<svg xmlns="http://www.w3.org/2000/svg" width="14.937" height="14.938" viewBox="0 0 14.937 14.938">
  <path id="Dribble" d="M965.1,2944.234a7.445,7.445,0,0,0-.436-1.4,7.5,7.5,0,0,0-1.6-2.373,7.558,7.558,0,0,0-1.1-.912,7.468,7.468,0,0,0-9.459.912,7.613,7.613,0,0,0-.911,1.1,7.344,7.344,0,0,0-.688,1.27,7.418,7.418,0,0,0-.437,1.4,7.543,7.543,0,0,0,0,3.008,7.488,7.488,0,0,0,1.125,2.674,7.626,7.626,0,0,0,.911,1.1,7.626,7.626,0,0,0,2.375,1.6,7.419,7.419,0,0,0,1.4.433,7.455,7.455,0,0,0,3.008,0,7.4,7.4,0,0,0,1.4-.433,7.6,7.6,0,0,0,2.374-1.6,7.443,7.443,0,0,0,2.035-3.778,7.545,7.545,0,0,0,0-3.008Zm-.94,1.439a14.9,14.9,0,0,0-4.442-.207c-.045-.11-.091-.221-.138-.33-.133-.312-.276-.621-.424-.924a8.228,8.228,0,0,0,3.554-2.525A6.36,6.36,0,0,1,964.156,2945.674Zm-2.163-4.721a6.965,6.965,0,0,1-3.333,2.309,32.076,32.076,0,0,0-2.384-3.72,6.373,6.373,0,0,1,5.716,1.412Zm-5.741-1.408v0l-.02,0A.068.068,0,0,0,956.252,2939.544Zm-1.193.426a38.463,38.463,0,0,1,2.367,3.676,23.66,23.66,0,0,1-5.889.777A6.39,6.39,0,0,1,955.059,2939.97Zm-3.658,5.767c0-.068,0-.135,0-.2a23.386,23.386,0,0,0,6.549-.908c.183.357.359.721.519,1.084-.085.023-.168.049-.252.076a10.077,10.077,0,0,0-5.187,4.209v0A6.364,6.364,0,0,1,951.4,2945.738Zm6.379,6.379a6.357,6.357,0,0,1-4.064-1.461c.083.068.143.111.143.111a8.65,8.65,0,0,1,5.006-3.986.367.367,0,0,1,.041-.012,26.279,26.279,0,0,1,1.362,4.844A6.352,6.352,0,0,1,957.78,2952.117Zm3.563-1.09a27.681,27.681,0,0,0-1.241-4.556,9.276,9.276,0,0,1,3.976.28A6.37,6.37,0,0,1,961.344,2951.027Z" transform="translate(-950.311 -2938.269)" fill="#c2cfd7"/>
</svg>
