<svg xmlns="http://www.w3.org/2000/svg" width="15.051" height="13.522" viewBox="0 0 15.051 13.522">
  <path id="Google_" data-name="Google " d="M990.043,2951.042a3.552,3.552,0,0,1-2.319-1.5,1.9,1.9,0,0,1-.249-.945,2.348,2.348,0,0,1,.239-1.012,4.355,4.355,0,0,1,4-2.175h.051a1.578,1.578,0,0,1-.214-.8,1.666,1.666,0,0,1,.054-.419,3.21,3.21,0,0,1-3.263-3.215,3.428,3.428,0,0,1,2.471-3.013,3.977,3.977,0,0,1,1.318-.229h3.992a.315.315,0,0,1,.3.219.312.312,0,0,1-.114.349l-.894.65a.326.326,0,0,1-.185.058h-.32a3.1,3.1,0,0,1,.656,1.993,2.984,2.984,0,0,1-1.247,2.334c-.624.483-.647.615-.647.893a2.661,2.661,0,0,0,.919.986,3.088,3.088,0,0,1,1.528,2.849,3.254,3.254,0,0,1-2.606,2.971,5.81,5.81,0,0,1-1.632.221A7.4,7.4,0,0,1,990.043,2951.042Zm-.5-2.867a2.1,2.1,0,0,0,2.324,1.821c1.72,0,2.591-.593,2.591-1.761a1.441,1.441,0,0,0-.04-.34c-.116-.455-.532-.738-1.16-1.166l-.271-.186a3.1,3.1,0,0,0-.856-.13h-.038C990.734,2946.411,989.543,2947.235,989.543,2948.174Zm1.236-8.87a2.064,2.064,0,0,0-.383,1.628c.157,1.183,1.019,2.2,1.882,2.231h.016a1.05,1.05,0,0,0,.813-.371,2.148,2.148,0,0,0,.393-1.666,2.362,2.362,0,0,0-1.882-2.193h-.035A1.047,1.047,0,0,0,990.779,2939.3Zm8.2,7.783a.311.311,0,0,1-.313-.311V2944.5H996.4a.316.316,0,0,1-.316-.315v-.646a.317.317,0,0,1,.316-.314h2.269v-2.268a.313.313,0,0,1,.313-.314h.647a.314.314,0,0,1,.314.314v2.268h2.27a.315.315,0,0,1,.313.314v.646a.315.315,0,0,1-.313.315h-2.27v2.271a.312.312,0,0,1-.314.311Z" transform="translate(-987.475 -2937.739)" fill="#c2cfd7"/>
</svg>
