<svg xmlns="http://www.w3.org/2000/svg" width="14.883" height="12.096" viewBox="0 0 14.883 12.096">
  <path id="Tweeter" d="M933.739,2941.553a6.032,6.032,0,0,1-1.753.479,3.058,3.058,0,0,0,1.342-1.689,6.129,6.129,0,0,1-1.939.744,3.053,3.053,0,0,0-5.283,2.088,3.113,3.113,0,0,0,.08.7,8.653,8.653,0,0,1-6.294-3.192,3.059,3.059,0,0,0,.945,4.079,3.042,3.042,0,0,1-1.384-.383v.039a3.057,3.057,0,0,0,2.45,2.994,3.04,3.04,0,0,1-.806.107,2.943,2.943,0,0,1-.573-.056,3.056,3.056,0,0,0,2.851,2.123,6.128,6.128,0,0,1-3.791,1.306,6.465,6.465,0,0,1-.73-.042,8.686,8.686,0,0,0,13.37-7.316c0-.131,0-.264-.01-.395A6.226,6.226,0,0,0,933.739,2941.553Z" transform="translate(-918.855 -2940.121)" fill="#c2cfd7"/>
</svg>
