<svg xmlns="http://www.w3.org/2000/svg" width="14.818" height="14.494" viewBox="0 0 14.818 14.494">
  <path id="Youtube" d="M1024.8,2951.747a2.708,2.708,0,0,1-2.708-2.705v-2.177a2.709,2.709,0,0,1,2.708-2.708h9.406a2.707,2.707,0,0,1,2.7,2.708v2.177a2.706,2.706,0,0,1-2.7,2.705Zm7.878-5.088a1.062,1.062,0,0,0-.318.8v1.686a1.182,1.182,0,0,0,.289.847,1.02,1.02,0,0,0,.793.311,1.114,1.114,0,0,0,.841-.29,1.2,1.2,0,0,0,.283-.868v-.194h-.77v.172a.77.77,0,0,1-.076.426.3.3,0,0,1-.259.1.289.289,0,0,1-.256-.115.813.813,0,0,1-.071-.41v-.707h1.432v-.957a1.117,1.117,0,0,0-.275-.816,1.047,1.047,0,0,0-.793-.285A1.132,1.132,0,0,0,1032.676,2946.659Zm-5.574,2.922a.791.791,0,0,0,.134.5.46.46,0,0,0,.39.167.932.932,0,0,0,.437-.119,1.625,1.625,0,0,0,.431-.345v.41h.751v-3.752h-.751v2.849a1,1,0,0,1-.232.2.425.425,0,0,1-.209.077.183.183,0,0,1-.154-.062.312.312,0,0,1-.048-.192v-2.876h-.75Zm3.785.582a.9.9,0,0,0,.392.08.616.616,0,0,0,.508-.211.938.938,0,0,0,.175-.611v-2.08a1.12,1.12,0,0,0-.185-.7.651.651,0,0,0-.545-.24.742.742,0,0,0-.346.09,1.118,1.118,0,0,0-.32.259v-1.636h-.76v5.084h.76v-.29A.948.948,0,0,0,1030.888,2950.163Zm-6.7-4.311h.874v4.344h.843v-4.344h.874v-.74h-2.591Zm6.56,3.764a.61.61,0,0,1-.176-.132v-2.338a.543.543,0,0,1,.154-.115.378.378,0,0,1,.158-.035.292.292,0,0,1,.233.1.446.446,0,0,1,.078.29v1.937a.422.422,0,0,1-.064.258.243.243,0,0,1-.2.078A.413.413,0,0,1,1030.743,2949.616Zm2.389-1.789v-.379a.543.543,0,0,1,.077-.336.3.3,0,0,1,.256-.1.292.292,0,0,1,.251.1.548.548,0,0,1,.078.336v.379Zm-4.644-5.18a1.094,1.094,0,0,1-.332-.839v-2.141a.943.943,0,0,1,.339-.763,1.391,1.391,0,0,1,.916-.285,1.242,1.242,0,0,1,.86.3,1,1,0,0,1,.333.774v2.132a1.086,1.086,0,0,1-.326.833,1.3,1.3,0,0,1-.906.3A1.245,1.245,0,0,1,1028.488,2942.646Zm.631-3.229a.286.286,0,0,0-.1.219v2.252a.364.364,0,0,0,.09.262.339.339,0,0,0,.257.092.388.388,0,0,0,.273-.092.344.344,0,0,0,.1-.262v-2.252a.273.273,0,0,0-.1-.219.41.41,0,0,0-.271-.082A.367.367,0,0,0,1029.119,2939.417Zm2.319,3.31a.86.86,0,0,1-.148-.552v-3.451h.841v3.166a.335.335,0,0,0,.055.212.2.2,0,0,0,.172.068.487.487,0,0,0,.235-.088,1.09,1.09,0,0,0,.259-.221v-3.136h.845v4.13h-.845v-.457a1.8,1.8,0,0,1-.484.388,1.072,1.072,0,0,1-.489.13A.533.533,0,0,1,1031.438,2942.727Zm-5.408.126v-2.218l-1.131-3.383h.957l.617,2.24h.061l.588-2.24h.967l-1.107,3.278v2.323Z" transform="translate(-1022.09 -2937.253)" fill="#c2cfd7"/>
</svg>
