<?xml version="1.0" standalone="no"?>
<!DOCTYPE svg PUBLIC "-//W3C//DTD SVG 1.1//EN" "http://www.w3.org/Graphics/SVG/1.1/DTD/svg11.dtd" >
<svg>
<metadata>
Created by FontForge 20090914 at Fri Aug  6 04:01:38 2021
 By www-data
Copyright 2011 The Questrial Project Authors (https://github.com/googlefonts/questrial)
</metadata>
<defs>
<font id="Questrial-Regular" horiz-adv-x="0" >
  <font-face 
    font-family="Questrial"
    font-weight="400"
    font-stretch="normal"
    units-per-em="1000"
    panose-1="0 0 0 0 0 0 0 0 0 0"
    ascent="800"
    descent="-200"
    x-height="500"
    cap-height="662"
    bbox="-279.499 -439 1245 1028"
    underline-thickness="50"
    underline-position="-75"
    unicode-range="U+000D-U+FB04"
  />
<missing-glyph horiz-adv-x="524" 
d="M33 0v662h460v-662h-460zM263 370l171 247h-343zM78 104l157 227l-157 227v-454zM448 104v454l-158 -227zM91 45h343l-171 247z" />
    <glyph glyph-name="f_f" unicode="ff" horiz-adv-x="604" 
d="M99 0v434.002h-86v66h86v44c0 54.667 16.5 95.667 49.5 123s78.167 41 135.5 41h6v-71h-10c-34.667 0 -61 -7.83301 -79 -23.5s-27 -40.834 -27 -75.501v-38h222v44c0 54.667 16.5 95.667 49.5 123s78.167 41 135.5 41h6v-71h-10c-34.667 0 -61 -7.83301 -79 -23.5
s-27 -40.834 -27 -75.501v-38h116v-66h-116v-434h-75v434h-222v-434h-75z" />
    <glyph glyph-name="fi" unicode="fi" horiz-adv-x="496" 
d="M99 0v434.001h-86v66h86v44c0 54.667 16.5 95.667 49.5 123s78.167 41 135.5 41h6v-71h-10c-34.667 0 -61 -7.83301 -79 -23.5s-27 -40.834 -27 -75.501v-38h257l-2 -2v-498h-75v434h-180v-434h-75zM351 584.001v98h81v-98h-81z" />
    <glyph glyph-name="fl" unicode="fl" horiz-adv-x="512" 
d="M99 0v434.001h-86v66h86v44c0 54.667 16.5 95.667 49.5 123s78.167 41 135.5 41h6v-71h-10c-34.667 0 -61 -7.83301 -79 -23.5s-27 -40.834 -27 -75.501v-38h116v-66h-116v-434h-75zM372 0.000976562v700h75v-700h-75z" />
    <glyph glyph-name="f_f_i" unicode="ffi" horiz-adv-x="793" 
d="M99 0v434.002h-86v66h86v44c0 54.667 16.5 95.667 49.5 123s78.167 41 135.5 41h6v-71h-10c-34.667 0 -61 -7.83301 -79 -23.5s-27 -40.834 -27 -75.501v-38h222v44c0 54.667 16.5 95.667 49.5 123s78.167 41 135.5 41h6v-71h-10c-34.667 0 -61 -7.83301 -79 -23.5
s-27 -40.834 -27 -75.501v-38h257v-500h-75v434h-182v-434h-75v434h-222v-434h-75zM650 584.002v98h81v-98h-81z" />
    <glyph glyph-name="f_f_l" unicode="ffl" horiz-adv-x="793" 
d="M99 0v434.002h-86v66h86v44c0 54.667 16.5 95.667 49.5 123s78.167 41 135.5 41h6v-71h-10c-34.667 0 -61 -7.83301 -79 -23.5s-27 -40.834 -27 -75.501v-38h222v44c0 54.667 16.5 95.667 49.5 123s78.167 41 135.5 41h6v-71h-10c-34.667 0 -61 -7.83301 -79 -23.5
s-27 -40.834 -27 -75.501v-38h116v-66h-116v-434h-75v434h-222v-434h-75zM653 0.00195312v700h75v-700h-75z" />
    <glyph glyph-name=".notdef" horiz-adv-x="524" 
d="M33 0v662h460v-662h-460zM263 370l171 247h-343zM78 104l157 227l-157 227v-454zM448 104v454l-158 -227zM91 45h343l-171 247z" />
    <glyph glyph-name="CR" unicode="&#xd;" horiz-adv-x="600" 
 />
    <glyph glyph-name="space" unicode=" " horiz-adv-x="213" 
 />
    <glyph glyph-name="exclam" unicode="!" horiz-adv-x="221" 
d="M83 183l-19 479h93l-19 -479h-55zM62 0v102h97v-102h-97z" />
    <glyph glyph-name="quotedbl" unicode="&#x22;" horiz-adv-x="317" 
d="M66 443l-19 219h89l-19 -219h-51zM200 443l-19 219h89l-19 -219h-51z" />
    <glyph glyph-name="numbersign" unicode="#" horiz-adv-x="581" 
d="M128 25l20 143h-103v65h112l20 144h-102v65h111l21 143h65l-21 -143h116l21 143h65l-21 -143h104v-65h-113l-20 -144h103v-65h-112l-20 -143h-65l20 143h-116l-20 -143h-65zM222 233h116l20 144h-116z" />
    <glyph glyph-name="dollar" unicode="$" horiz-adv-x="615" 
d="M279 746l65.998 -0.00390625v-78c48.667 -4.66699 88.667 -16.167 120 -34.5s55 -40.833 71 -67.5s25 -55 27 -85h-77c-3.33301 28.667 -16.333 53.834 -39 75.501s-56.667 35.167 -102 40.5v-231c29.333 -6.66699 57.833 -14.667 85.5 -24
s52.834 -20.666 75.501 -33.999s40.667 -30.166 54 -50.499s20 -45.166 20 -74.499c0 -58 -20.833 -103.333 -62.5 -136s-99.167 -50.667 -172.5 -54v-80h-66v80c-56 4 -101.667 15.167 -137 33.5s-61.666 42.333 -78.999 72s-27.666 62.834 -30.999 99.501h78
c2 -42 19 -73.5 51 -94.5s71.333 -33.833 118 -38.5v244c-28.667 7.33301 -56.5 15.333 -83.5 24s-51.333 19.667 -73 33s-38.834 29.666 -51.501 48.999s-19 43.333 -19 72c0 51.333 18.833 93.833 56.5 127.5s94.5 52.167 170.5 55.5v76zM124.998 487.996
c0 -20 7 -36.5 21 -49.5s32.667 -23.833 56 -32.5s49 -16.667 77 -24v217c-43.333 -2 -76 -9.33301 -98 -22s-36.833 -27.167 -44.5 -43.5s-11.5 -31.5 -11.5 -45.5zM504.998 179.996c0 21.333 -7.33301 39.001 -22 53.001s-34 25.667 -58 35s-50.667 17.666 -80 24.999
v-229c49.333 2 88.333 12.667 117 32s43 47.333 43 84z" />
    <glyph glyph-name="percent" unicode="%" horiz-adv-x="845" 
d="M161 -12l459 682h63l-459 -682h-63zM192 288c-46.667 0 -83.334 16.168 -110.001 48.501s-40 79.166 -40 140.499c0 62 13.333 109.167 40 141.5s63.334 48.5 110.001 48.5c36 -0.666992 65 -10 87 -28s38 -41.333 48 -70s15 -59.334 15 -92.001
c0 -61.333 -13.5 -108.166 -40.5 -140.499s-63.5 -48.5 -109.5 -48.5zM192 345.001c22.667 0.666992 40.333 7.66797 53 21.001s21.667 30.166 27 50.499s8 40.5 8 60.5c0 44 -7.83301 77 -23.5 99s-37.167 33 -64.5 33c-28 0 -49.833 -11 -65.5 -33s-23.5 -55 -23.5 -99
s7.83301 -77 23.5 -99s37.5 -33 65.5 -33zM652.999 -7.99805c-46.667 0 -83.334 16.168 -110.001 48.501s-40 79.166 -40 140.499c0 62 13.333 109.167 40 141.5s63.334 48.5 110.001 48.5c36 -0.666992 65 -10 87 -28s38 -41.333 48 -70s15 -59.334 15 -92.001
c0 -61.333 -13.5 -108.166 -40.5 -140.499s-63.5 -48.5 -109.5 -48.5zM652.999 49.0029c22.667 0.666992 40.333 7.66797 53 21.001s21.667 30.166 27 50.499s8 40.5 8 60.5c0 44 -7.83301 77 -23.5 99s-37.167 33 -64.5 33c-28 0 -49.833 -11 -65.5 -33
s-23.5 -55 -23.5 -99s7.83301 -77 23.5 -99s37.5 -33 65.5 -33z" />
    <glyph glyph-name="ampersand" unicode="&#x26;" horiz-adv-x="580" 
d="M269 -8c-41.333 0 -79.668 8.33203 -115.001 24.999s-63.666 39.834 -84.999 69.501s-32 64.167 -32 103.5c0 35.333 10.667 67.166 32 95.499s51.333 49.833 90 64.5c-14.667 4.66699 -29.834 13.834 -45.501 27.501s-28.667 30.167 -39 49.5s-15.5 40 -15.5 62
c0 51.333 18.667 94.333 56 129s92 52 164 52c45.333 0 82.666 -6.83301 111.999 -20.5s51.833 -31 67.5 -52s25.834 -42.833 30.501 -65.5h-79c-4.66699 16 -18.167 31.667 -40.5 47s-53.166 23 -92.499 23c-49.333 0 -85.5 -11.167 -108.5 -33.5
s-34.5 -49.166 -34.5 -80.499c0 -37.333 13 -65 39 -83s56.333 -27 91 -27h161v44h70v-44h65v-67h-65v-127c0 -56.667 -20 -102.834 -60 -138.501s-95.333 -53.5 -166 -53.5zM268.998 58.999c52.667 0 91.833 12.167 117.5 36.5s38.5 51.833 38.5 82.5v133h-170
c-28 0 -52.833 -5.66699 -74.5 -17s-38.5 -26.166 -50.5 -44.499s-18 -38.833 -18 -61.5s6.5 -43.834 19.5 -63.501s31.333 -35.5 55 -47.5s51.167 -18 82.5 -18z" />
    <glyph glyph-name="quotesingle" unicode="'" horiz-adv-x="183" 
d="M66 443l-19 219h89l-19 -219h-51z" />
    <glyph glyph-name="parenleft" unicode="(" horiz-adv-x="245" 
d="M163 -138c-42 65.333 -73.833 132.832 -95.5 202.499s-32.5 141.834 -32.5 216.501c0 74 10.833 146.167 32.5 216.5s53.5 137.833 95.5 202.5h68c-38 -60.667 -67.5 -126.5 -88.5 -197.5s-31.5 -144.833 -31.5 -221.5s10.5 -150.5 31.5 -221.5
s50.5 -136.833 88.5 -197.5h-68z" />
    <glyph glyph-name="parenright" unicode=")" horiz-adv-x="245" 
d="M14 -138c38 60.667 67.5 126.501 88.5 197.501s31.5 144.833 31.5 221.5s-10.5 150.5 -31.5 221.5s-50.5 136.833 -88.5 197.5h68c42 -64.667 73.833 -132.167 95.5 -202.5s32.5 -142.5 32.5 -216.5c0 -74.667 -10.833 -146.834 -32.5 -216.501
s-53.5 -137.167 -95.5 -202.5h-68z" />
    <glyph glyph-name="asterisk" unicode="*" horiz-adv-x="373" 
d="M132 397l-51 37l74 81l-107 23l19 60l100 -45l-12 109h63l-12 -109l100 45l19 -60l-107 -22l74 -82l-51 -37l-54 95z" />
    <glyph glyph-name="plus" unicode="+" horiz-adv-x="550" 
d="M242 0v203h-192v65h192v203h65v-203h193v-65h-193v-203h-65z" />
    <glyph glyph-name="comma" unicode="," horiz-adv-x="220" 
d="M11 -111l58 213h98l-88 -213h-68z" />
    <glyph glyph-name="hyphen" unicode="-" horiz-adv-x="360" 
d="M55 259v73h250v-73h-250z" />
    <glyph glyph-name="period" unicode="." horiz-adv-x="203" 
d="M53 0v102h97v-102h-97z" />
    <glyph glyph-name="slash" unicode="/" horiz-adv-x="371" 
d="M36 -32l229 712h70l-229 -712h-70z" />
    <glyph glyph-name="zero" unicode="0" horiz-adv-x="550" 
d="M275 -8c-78 0 -136.166 28.832 -174.499 86.499s-57.5 141.834 -57.5 252.501s19.167 194.834 57.5 252.501s96.5 86.5 174.5 86.5c45.333 -0.666992 83 -10.5 113 -29.5s53.667 -44.5 71 -76.5s29.666 -68 36.999 -108s11 -81.667 11 -125
c0 -110.667 -19.167 -194.834 -57.5 -252.501s-96.5 -86.5 -174.5 -86.5zM275.001 64.999c34 0.666992 61.333 9 82 25s36.5 37 47.5 63s18.333 54.5 22 85.5s5.5 61.833 5.5 92.5c0 88.667 -12.333 155.167 -37 199.5s-64.667 66.5 -120 66.5
c-54.667 0 -94.5 -22.167 -119.5 -66.5s-37.5 -110.833 -37.5 -199.5s12.5 -155.167 37.5 -199.5s64.833 -66.5 119.5 -66.5z" />
    <glyph glyph-name="one" unicode="1" horiz-adv-x="550" 
d="M275 0v590h-140v72h215v-662h-75z" />
    <glyph glyph-name="two" unicode="2" horiz-adv-x="550" 
d="M52 0l0.000976562 41.002c0 32.667 9 62.5 27 89.5s41 52.167 69 75.5s58 45.833 90 67.5l90 63.5c28 20.667 51 42.167 69 64.5s27 46.166 27 71.499c0 38.667 -12.833 69 -38.5 91s-62.5 33 -110.5 33c-44 0 -79.833 -9.83301 -107.5 -29.5
s-44.167 -48.167 -49.5 -85.5h-75c4 38 16.5 71.167 37.5 99.5s48.167 50.166 81.5 65.499s70.333 23 111 23c48 0 88.833 -8.66699 122.5 -26s59.334 -40.666 77.001 -69.999s26.5 -62.333 26.5 -99c0 -30.667 -8.33301 -59.334 -25 -86.001s-38.334 -51.667 -65.001 -75
s-54.834 -45.333 -84.501 -66l-85.5 -60.5c-27.333 -19.667 -50 -39 -68 -58s-28 -38.167 -30 -57.5h356v-72h-445z" />
    <glyph glyph-name="three" unicode="3" horiz-adv-x="550" 
d="M277 -8c-41.333 0 -79.1699 8.17188 -113.503 24.5049s-62.5 38.166 -84.5 65.499s-34.667 58.333 -38 93h76c3.33301 -20.667 12.666 -39.334 27.999 -56.001s34.5 -29.834 57.5 -39.501s47.833 -14.5 74.5 -14.5c47.333 0 84.166 12 110.499 36s39.5 53 39.5 87
c0 22.667 -6.16699 43.5 -18.5 62.5s-29.166 34.333 -50.499 46s-46 17.5 -74 17.5h-76v69h67c23.333 0 44.833 4.5 64.5 13.5s35.5 21.667 47.5 38s18 35.166 18 56.499c0 31.333 -11.167 56.833 -33.5 76.5s-55.166 29.5 -98.499 29.5
c-40.667 0 -73.167 -9.33301 -97.5 -28s-38.833 -40.667 -43.5 -66h-73c3.33301 27.333 13.5 53.666 30.5 78.999s40.833 46.333 71.5 63s67.334 25 110.001 25c65.333 0 116.5 -16.5 153.5 -49.5s55.5 -75.167 55.5 -126.5c0 -22 -5.16699 -42.833 -15.5 -62.5
s-23.166 -36.5 -38.499 -50.5s-30.666 -23.333 -45.999 -28c38.667 -14.667 68.667 -36.667 90 -66s32 -61.666 32 -96.999c0 -39.333 -10 -73.833 -30 -103.5s-47 -52.834 -81 -69.501s-72 -25 -114 -25z" />
    <glyph glyph-name="four" unicode="4" horiz-adv-x="550" 
d="M347 0v169h-316v73l278 420h113v-426h89v-67h-89v-169h-75zM101 236h246v362z" />
    <glyph glyph-name="five" unicode="5" horiz-adv-x="550" 
d="M280 -8c-42.667 0 -78.501 5.83398 -107.501 17.501s-52.333 26.5 -70 44.5s-31.334 37 -41.001 57s-16.167 38.333 -19.5 55h77c5.33301 -16 14 -31.833 26 -47.5s28.833 -28.5 50.5 -38.5s48.834 -15 81.501 -15c30 0 56.167 6.5 78.5 19.5s39.833 30.667 52.5 53
s19 47.166 19 74.499c0 44 -13.833 79.5 -41.5 106.5s-63.167 40.5 -106.5 40.5c-29.333 0 -55.666 -5.5 -78.999 -16.5s-40.666 -23.167 -51.999 -36.5l-69 42l45 314h345v-72h-277l-30 -192c15.333 9.33301 33.666 16.833 54.999 22.5s42 8.5 62 8.5
c44.667 0 83.667 -9.33301 117 -28s59.333 -44.167 78 -76.5s28 -69.833 28 -112.5c0 -40.667 -9.83301 -77.667 -29.5 -111s-46.167 -59.833 -79.5 -79.5s-71 -29.5 -113 -29.5z" />
    <glyph glyph-name="six" unicode="6" horiz-adv-x="550" 
d="M288 -8c-80.667 0 -141.668 29.3301 -183.001 87.9971s-62 142.334 -62 251.001c0 104.667 21 187.334 63 248.001s104.667 91 188 91c42.667 0 77.834 -8 105.501 -24s49.5 -36.333 65.5 -61s26.667 -50.334 32 -77.001h-84c-4.66699 14.667 -11.5 28.667 -20.5 42
s-21.333 24.5 -37 33.5s-36.167 13.5 -61.5 13.5c-40.667 0 -74 -12 -100 -36s-45.167 -56.333 -57.5 -97s-18.5 -86 -18.5 -136c16 27.333 39.667 49.833 71 67.5s65.333 26.5 102 26.5c42 0 80 -9.16699 114 -27.5s61 -43.666 81 -75.999s30 -69.5 30 -111.5
c0 -41.333 -10.333 -78.166 -31 -110.499s-48.167 -57.833 -82.5 -76.5s-72.5 -28 -114.5 -28zM287.999 64.9971c28 0 53.667 5.99902 77 17.999s41.833 28.833 55.5 50.5s20.5 46.167 20.5 73.5s-6.83301 51.833 -20.5 73.5s-32.167 38.834 -55.5 51.501s-49 19 -77 19
s-53.5 -5.83301 -76.5 -17.5s-41.5 -28 -55.5 -49s-21 -45.167 -21 -72.5c0 -29.333 6.83301 -55 20.5 -77s32 -39.167 55 -51.5s48.833 -18.5 77.5 -18.5z" />
    <glyph glyph-name="seven" unicode="7" horiz-adv-x="550" 
d="M143 0l286 590h-382v72h459v-85l-276 -577h-87z" />
    <glyph glyph-name="eight" unicode="8" horiz-adv-x="550" 
d="M275 -8c-75.333 0 -133.664 18.333 -174.997 55s-62 84.334 -62 143.001c0 38 11.5 72.833 34.5 104.5s53.833 54.834 92.5 69.501c-14.667 5.33301 -29.834 13.833 -45.501 25.5s-28.834 27 -39.501 46s-16 41.5 -16 67.5c0 49.333 18.167 89.5 54.5 120.5
s88.5 46.5 156.5 46.5s120.167 -15.5 156.5 -46.5s54.5 -71.167 54.5 -120.5c0 -26 -5.33301 -48.5 -16 -67.5s-23.834 -34.333 -39.501 -46s-30.834 -20.167 -45.501 -25.5c39.333 -14.667 70.333 -37.834 93 -69.501s34 -66.5 34 -104.5
c0 -58.667 -20.667 -106.334 -62 -143.001s-99.666 -55 -174.999 -55zM275.002 396c20.667 0 41.5 3.5 62.5 10.5s38.5 18.167 52.5 33.5s21 35 21 59c0 31.333 -12.667 55.666 -38 72.999s-58 26 -98 26s-72.667 -8.66699 -98 -26s-38 -41.666 -38 -72.999
c0 -24 7 -43.667 21 -59s31.5 -26.5 52.5 -33.5s41.833 -10.5 62.5 -10.5zM275.002 64c49.333 0 88.6689 11.5 118.002 34.5s44 53.833 44 92.5c0 28.667 -7.33301 53.167 -22 73.5s-34.167 35.833 -58.5 46.5s-51.5 16 -81.5 16c-29.333 0 -56.333 -5.33301 -81 -16
s-44.334 -26.167 -59.001 -46.5s-22 -44.833 -22 -73.5c0 -38.667 14.667 -69.5 44 -92.5s68.666 -34.5 117.999 -34.5z" />
    <glyph glyph-name="nine" unicode="9" horiz-adv-x="550" 
d="M256 -8c-42 0 -77.002 8.00391 -105.002 24.0039s-49.833 36.5 -65.5 61.5s-26.5 50.5 -32.5 76.5h84c4.66699 -14 11.5 -27.833 20.5 -41.5s21.5 -25 37.5 -34s36.333 -13.5 61 -13.5c41.333 0 74.833 12 100.5 36s44.667 56.333 57 97s18.5 86 18.5 136
c-16 -27.333 -39.5 -49.833 -70.5 -67.5s-65.167 -26.5 -102.5 -26.5c-41.333 0 -79.166 9.16699 -113.499 27.5s-61.5 43.666 -81.5 75.999s-30 69.5 -30 111.5c0 41.333 10.333 78.166 31 110.499s48.334 57.833 83.001 76.5s72.667 28 114 28
c80.667 0 141.667 -29.333 183 -88s62 -142.334 62 -251.001c0 -104.667 -21 -187.334 -63 -248.001s-104.667 -91 -188 -91zM261.998 311.004c28 0 53.667 5.83398 77 17.501s41.833 28 55.5 49s20.5 45.167 20.5 72.5c0 29.333 -6.83301 55 -20.5 77s-32 39.167 -55 51.5
s-48.833 18.5 -77.5 18.5c-28 0 -53.5 -6 -76.5 -18s-41.5 -28.667 -55.5 -50s-21 -46 -21 -74c0 -27.333 7 -51.833 21 -73.5s32.5 -38.834 55.5 -51.501s48.5 -19 76.5 -19z" />
    <glyph glyph-name="colon" unicode=":" horiz-adv-x="203" 
d="M53 398v102h97v-102h-97zM53 0v102h97v-102h-97z" />
    <glyph glyph-name="semicolon" unicode=";" horiz-adv-x="245" 
d="M80 398v102h97v-102h-97zM25 -133l58 213h98l-88 -213h-68z" />
    <glyph glyph-name="less" unicode="&#x3c;" horiz-adv-x="550" 
d="M507 8l-481 212v63l481 213v-78l-405 -166l405 -166v-78z" />
    <glyph glyph-name="equal" unicode="=" horiz-adv-x="550" 
d="M57 301v67h436v-67h-436zM57 103v67h436v-67h-436z" />
    <glyph glyph-name="greater" unicode="&#x3e;" horiz-adv-x="550" 
d="M42 8v78l405 166l-405 166v78l481 -213v-63z" />
    <glyph glyph-name="question" unicode="?" horiz-adv-x="510" 
d="M227 183c0 32.667 5.66992 60.5 17.0029 83.5s25.333 43 42 60l49.5 49c16.333 15.667 30.166 32.334 41.499 50.001s17 38.834 17 63.501c0 16.667 -3.83301 33.667 -11.5 51s-20.834 31.833 -39.501 43.5s-44.334 17.5 -77.001 17.5s-60.167 -6.33301 -82.5 -19
s-39.666 -29.334 -51.999 -50.001s-19.5 -42.667 -21.5 -66h-71c2 36.667 12.167 70.5 30.5 101.5s43.666 55.833 75.999 74.5s70.5 28 114.5 28c48 0 87.167 -8.83301 117.5 -26.5s52.5 -40.334 66.5 -68.001s21 -56.5 21 -86.5c0 -31.333 -5.5 -57.5 -16.5 -78.5
s-24.667 -39.667 -41 -56l-49.5 -47.5c-16.667 -15.333 -30.5 -32.833 -41.5 -52.5s-16.5 -43.5 -16.5 -71.5h-73zM215.003 0v102h97v-102h-97z" />
    <glyph glyph-name="at" unicode="@" horiz-adv-x="852" 
d="M392 -100c-50 0 -95.8262 9 -137.493 27s-77.834 42.5 -108.501 73.5s-54.334 67 -71.001 108s-25 84.5 -25 130.5c0 54.667 11.167 107 33.5 157s52.833 94.5 91.5 133.5s83.167 69.833 133.5 92.5s103.5 34 159.5 34c45.333 0 88.5 -8.5 129.5 -25.5
s77.5 -40.833 109.5 -71.5s57.167 -66.5 75.5 -107.5s27.5 -85.5 27.5 -133.5c0 -56.667 -9 -103 -27 -139s-41.167 -62.667 -69.5 -80s-58.166 -26 -89.499 -26c-22.667 0 -40.334 3.5 -53.001 10.5s-21.834 15.167 -27.501 24.5s-9.16699 17.5 -10.5 24.5l-2 10.5
c-17.333 -21.333 -37.666 -38.333 -60.999 -51s-51.333 -19 -84 -19c-56.667 0 -99.167 16 -127.5 48s-42.5 71.333 -42.5 118c0 48.667 10.167 91.167 30.5 127.5s47.666 64.666 81.999 84.999s72.5 30.5 114.5 30.5c33.333 0 60.666 -6.33301 81.999 -19
s37.666 -29.667 48.999 -51l10 64h60l-47 -292l-0.5 -3.5c-0.333008 -2.33301 -0.5 -5.5 -0.5 -9.5c0 -6 1.16699 -13.167 3.5 -21.5s7.33301 -15.666 15 -21.999s19.167 -9.5 34.5 -9.5c37.333 0 67.333 15.667 90 47s34 81 34 149c0 43.333 -7.83301 83.5 -23.5 120.5
s-37.5 69.333 -65.5 97s-60.333 49.167 -97 64.5s-76.334 23 -119.001 23c-50 0 -97.833 -10 -143.5 -30s-86.334 -47.667 -122.001 -83s-63.834 -75.833 -84.501 -121.5s-31 -94.167 -31 -145.5c0 -42.667 7.83301 -82.5 23.5 -119.5s37.5 -69 65.5 -96
s60.333 -48.167 97 -63.5s76.334 -23 119.001 -23c46 0 86.5 6.16699 121.5 18.5s67.833 30.833 98.5 55.5l22 -30c-34.667 -28 -73 -48.5 -115 -61.5s-84.333 -19.5 -127 -19.5zM402.007 127c32.667 0 60.667 8.5 84 25.5s41.166 39.333 53.499 67s18.5 57.167 18.5 88.5
c0 33.333 -9.66699 61.833 -29 85.5s-48 35.5 -86 35.5c-48.667 0 -88.667 -16.833 -120 -50.5s-47 -78.167 -47 -133.5c0 -34 10.333 -62.167 31 -84.5s52.334 -33.5 95.001 -33.5z" />
    <glyph glyph-name="A" unicode="A" horiz-adv-x="662" 
d="M3 0l281 662h94l281 -662h-83l-81 192h-328l-81 -192h-83zM196 261h270l-135 323z" />
    <glyph glyph-name="B" unicode="B" horiz-adv-x="662" 
d="M81 0l0.000976562 661.999h297c52 0 93.167 -9 123.5 -27s52.166 -40.5 65.499 -67.5s20 -53.833 20 -80.5c0 -42.667 -9 -75.5 -27 -98.5s-38.667 -39.833 -62 -50.5c18.667 -6 37.5 -15.5 56.5 -28.5s34.833 -30.5 47.5 -52.5s19 -49.667 19 -83
c0 -49.333 -18.833 -90.666 -56.5 -123.999s-94.167 -50 -169.5 -50h-314zM156.001 365.999l222 -0.00195312c23.333 0 45.166 4 65.499 12s36.833 20.5 49.5 37.5s19 38.833 19 65.5c0 18.667 -4.16699 36.334 -12.5 53.001s-21.666 30.334 -39.999 41.001
s-42.833 16 -73.5 16h-230v-225zM156.001 70.9971h247c45.333 0 80.5 9.5 105.5 28.5s37.5 45.833 37.5 80.5c0 31.333 -12 58.833 -36 82.5s-62.333 35.5 -115 35.5h-239v-227z" />
    <glyph glyph-name="C" unicode="C" horiz-adv-x="690" 
d="M359 -8c-66 0 -123 15.1699 -171 45.5029s-84.833 71.166 -110.5 122.499s-38.5 108.333 -38.5 171s12.833 119.667 38.5 171s62.5 92.166 110.5 122.499s105 45.5 171 45.5c50 0 95 -8.83301 135 -26.5s74 -41.834 102 -72.501s49 -66.334 63 -107.001h-79
c-16.667 40.667 -43 73 -79 97s-81.333 36 -136 36c-53.333 0 -98.833 -11.833 -136.5 -35.5s-66.167 -55.5 -85.5 -95.5s-29 -85 -29 -135c0 -49.333 9.66699 -94.166 29 -134.499s47.833 -72.333 85.5 -96s83.167 -35.5 136.5 -35.5c54.667 0 100 12 136 36
s62.333 56.333 79 97h79c-14 -40 -35 -75.5 -63 -106.5s-62 -55.333 -102 -73s-85 -26.5 -135 -26.5z" />
    <glyph glyph-name="D" unicode="D" horiz-adv-x="703" 
d="M81 0v662.002h279c39.333 0 77.166 -7.5 113.499 -22.5s68.833 -36.833 97.5 -65.5s51.334 -63.334 68.001 -104.001s25 -87 25 -139s-8.33301 -98.333 -25 -139s-39.334 -75.334 -68.001 -104.001s-61.167 -50.5 -97.5 -65.5s-74.166 -22.5 -113.499 -22.5h-279z
M156 71.002l201 0.000976562c47.333 0 88.333 12 123 36s61.5 55.667 80.5 95s28.5 82.333 28.5 129c0 47.333 -9.5 90.666 -28.5 129.999s-45.833 70.833 -80.5 94.5s-75.667 35.5 -123 35.5h-201v-520z" />
    <glyph glyph-name="E" unicode="E" horiz-adv-x="608" 
d="M81 0v662h487v-72h-412v-222h368v-73h-368v-223h412v-72h-487z" />
    <glyph glyph-name="F" unicode="F" horiz-adv-x="583" 
d="M81 0v662h478v-72h-403v-230h359v-73h-359v-287h-75z" />
    <glyph glyph-name="G" unicode="G" horiz-adv-x="723" 
d="M363 -8c-67.333 0 -125.164 15.168 -173.497 45.501s-85.5 71.166 -111.5 122.499s-39 108.333 -39 171s13.333 119.667 40 171s64.5 92.166 113.5 122.499s106.5 45.5 172.5 45.5c71.333 0 133.166 -17.5 185.499 -52.5s90.833 -80.167 115.5 -135.5h-82
c-20 35.333 -47.833 63.333 -83.5 84s-78.834 31 -129.501 31c-53.333 0 -99.333 -11.833 -138 -35.5s-68.167 -55.5 -88.5 -95.5s-30.5 -85 -30.5 -135c0 -49.333 10 -94.166 30 -134.499s49.167 -72.333 87.5 -96s84.166 -35.5 137.499 -35.5
c40 0 77.833 8.66699 113.5 26s64.667 42.333 87 75s33.5 72 33.5 118h-242v68h311v-352h-69v117c-14 -21.333 -32 -41.5 -54 -60.5s-48.5 -34.5 -79.5 -46.5s-66.5 -18 -106.5 -18z" />
    <glyph glyph-name="H" unicode="H" horiz-adv-x="697" 
d="M81 0v662h75v-294h385v294h75v-662h-75v295h-385v-295h-75z" />
    <glyph glyph-name="I" unicode="I" horiz-adv-x="237" 
d="M81 0v662h75v-662h-75z" />
    <glyph glyph-name="J" unicode="J" horiz-adv-x="527" 
d="M236 -8c-47.333 0 -86.8311 9.16797 -118.498 27.501s-55.834 41.666 -72.501 69.999s-26.667 57.5 -30 87.5h78c2.66699 -17.333 9.66699 -34.666 21 -51.999s27.333 -31.666 48 -42.999s46.667 -17 78 -17c30 0 54.167 4.83301 72.5 14.5s32 22.5 41 38.5
s15.167 33.167 18.5 51.5s5 35.833 5 52.5v440h75v-443c0 -38.667 -6.83301 -75.334 -20.5 -110.001s-36.334 -62.834 -68.001 -84.501s-74.167 -32.5 -127.5 -32.5z" />
    <glyph glyph-name="K" unicode="K" horiz-adv-x="641" 
d="M81 0v662h75v-345l368 345h106l-282 -266l298 -396h-94l-259 345l-137 -128v-217h-75z" />
    <glyph glyph-name="L" unicode="L" horiz-adv-x="533" 
d="M81 0v662h75v-590h361v-72h-436z" />
    <glyph glyph-name="M" unicode="M" horiz-adv-x="806" 
d="M81 0v662h87l237 -314l233 314h87v-662h-75v548l-245 -315l-249 315v-548h-75z" />
    <glyph glyph-name="N" unicode="N" horiz-adv-x="733" 
d="M81 0v662h87l409 -557v557h75v-662h-87l-409 559v-559h-75z" />
    <glyph glyph-name="O" unicode="O" horiz-adv-x="750" 
d="M375 -8c-50 0 -95.667 8.66699 -137 26s-76.833 41.666 -106.5 72.999s-52.5 67.5 -68.5 108.5s-24 84.833 -24 131.5c0 47.333 8 91.333 24 132s38.833 76.667 68.5 108s65.167 55.666 106.5 72.999s87 26 137 26s95.667 -8.66699 137 -26s76.833 -41.666 106.5 -72.999
s52.5 -67.333 68.5 -108s24 -84.667 24 -132c0 -46.667 -8 -90.5 -24 -131.5s-38.833 -77.167 -68.5 -108.5s-65.167 -55.666 -106.5 -72.999s-87 -26 -137 -26zM375 65c54 0 100.5 11.833 139.5 35.5s69 55.667 90 96s31.5 85.166 31.5 134.499c0 50 -10.5 95 -31.5 135
s-51 71.833 -90 95.5s-85.5 35.5 -139.5 35.5c-53.333 0 -99.666 -11.833 -138.999 -35.5s-69.5 -55.5 -90.5 -95.5s-31.5 -85 -31.5 -135c0 -49.333 10.5 -94.166 31.5 -134.499s51.167 -72.333 90.5 -96s85.666 -35.5 138.999 -35.5z" />
    <glyph glyph-name="P" unicode="P" horiz-adv-x="628" 
d="M81 0v661.998h298c70.667 0 126.334 -19.167 167.001 -57.5s61 -90.166 61 -155.499s-20.333 -117.166 -61 -155.499s-96.334 -57.5 -167.001 -57.5h-223v-236h-75zM156 305.998h218c52 0 91.333 12.667 118 38s40 60.333 40 105c0 44 -13.333 78.667 -40 104
s-66 38 -118 38h-218v-285z" />
    <glyph glyph-name="Q" unicode="Q" horiz-adv-x="750" 
d="M596 -157c-32.667 0 -64.333 6.33203 -95 18.999s-58 30.334 -82 53.001s-43.333 48.667 -58 78c-64 2 -120.167 18.333 -168.5 49s-86 71.167 -113 121.5s-40.5 106.166 -40.5 167.499c0 47.333 8 91.333 24 132s38.833 76.667 68.5 108s65.167 55.666 106.5 72.999
s87 26 137 26s95.667 -8.66699 137 -26s76.833 -41.666 106.5 -72.999s52.5 -67.333 68.5 -108s24 -84.667 24 -132c0 -56 -11.5 -107.5 -34.5 -154.5s-55 -86.167 -96 -117.5s-88.833 -51.666 -143.5 -60.999c6.66699 -12 16.667 -25.167 30 -39.5
s30.666 -26.5 51.999 -36.5s47.333 -15 78 -15c24 0 45.833 4 65.5 12s38.167 19 55.5 33l40 -54c-23.333 -18.667 -48.166 -32.5 -74.499 -41.5s-55.5 -13.5 -87.5 -13.5zM375.001 64.999c54 0 100.5 11.833 139.5 35.5s69 55.667 90 96s31.5 85.166 31.5 134.499
c0 50 -10.5 95 -31.5 135s-51 71.833 -90 95.5s-85.5 35.5 -139.5 35.5c-53.333 0 -99.666 -11.833 -138.999 -35.5s-69.5 -55.5 -90.5 -95.5s-31.5 -85 -31.5 -135c0 -49.333 10.5 -94.166 31.5 -134.499s51.167 -72.333 90.5 -96s85.666 -35.5 138.999 -35.5z" />
    <glyph glyph-name="R" unicode="R" horiz-adv-x="669" 
d="M81 0l0.000976562 661.999h317c68 0 122.167 -18.667 162.5 -56s60.5 -87.666 60.5 -150.999c0 -42.667 -8.16699 -76.667 -24.5 -102s-36.833 -44.5 -61.5 -57.5s-49.334 -22.5 -74.001 -28.5l174 -267h-89l-160 254h-230v-254h-75zM156.001 324.999h229
c24 0 48.333 3.66699 73 11s45.5 20.5 62.5 39.5s25.5 45.5 25.5 79.5c0 42 -14.333 75.167 -43 99.5s-66.667 36.5 -114 36.5h-233v-266z" />
    <glyph glyph-name="S" unicode="S" horiz-adv-x="615" 
d="M318 -8c-65.333 0 -118.338 8.83496 -159.005 26.502s-71.167 42.167 -91.5 73.5s-32.166 66.666 -35.499 105.999h78c2 -32 12.667 -57.833 32 -77.5s44.833 -34.167 76.5 -43.5s66.5 -14 104.5 -14c56 0 100.333 9.83301 133 29.5s49 48.834 49 87.501
c0 23.333 -8.16699 42.166 -24.5 56.499s-38 26.166 -65 35.499s-56.5 17.833 -88.5 25.5s-64.167 15.834 -96.5 24.501s-62 19.667 -89 33s-48.667 30.5 -65 51.5s-24.5 47.833 -24.5 80.5c0 54 20.833 98 62.5 132s103.834 51 186.501 51c58.667 0 107 -8.83301 145 -26.5
s66.5 -40.834 85.5 -69.501s29.5 -59.667 31.5 -93h-77c-4 33.333 -20.667 61.5 -50 84.5s-74.333 34.5 -135 34.5c-37.333 0 -67.666 -3.66699 -90.999 -11s-41.166 -16.833 -53.499 -28.5s-20.666 -23.834 -24.999 -36.501s-6.5 -24.667 -6.5 -36
c0 -22 8.16699 -39.833 24.5 -53.5s38 -25 65 -34s56.833 -17.167 89.5 -24.5s65.167 -15.5 97.5 -24.5s62 -20.333 89 -34s48.667 -31.167 65 -52.5s24.5 -48.666 24.5 -81.999c0 -61.333 -23.333 -108.5 -70 -141.5s-110.667 -49.5 -192 -49.5z" />
    <glyph glyph-name="T" unicode="T" horiz-adv-x="565" 
d="M245 0v591h-231v71h537v-71h-231v-591h-75z" />
    <glyph glyph-name="U" unicode="U" horiz-adv-x="709" 
d="M354 -8c-54.667 0 -103.169 12.167 -145.502 36.5s-75.5 58.5 -99.5 102.5s-36 95.333 -36 154v377h75v-379c0 -51.333 9.83301 -93 29.5 -125s45.334 -55.5 77.001 -70.5s64.834 -22.5 99.501 -22.5c35.333 0 68.666 7.5 99.999 22.5s57 38.5 77 70.5s30 73.667 30 125
v379h75v-377c0 -58 -12 -109 -36 -153s-57.167 -78.333 -99.5 -103s-91.166 -37 -146.499 -37z" />
    <glyph glyph-name="V" unicode="V" horiz-adv-x="628" 
d="M271 0l-268 662h82l229 -577l229 577h82l-268 -662h-86z" />
    <glyph glyph-name="W" unicode="W" horiz-adv-x="958" 
d="M215 0l-206 662h79l170 -556l178 556h86l178 -556l170 556h79l-206 -662h-85l-179 556l-179 -556h-85z" />
    <glyph glyph-name="X" unicode="X" horiz-adv-x="613" 
d="M-3 0l264 342l-246 320h95l196 -260l197 260h95l-246 -320l264 -342h-95l-215 284l-214 -284h-95z" />
    <glyph glyph-name="Y" unicode="Y" horiz-adv-x="636" 
d="M281 0v262l-278 400h91l224 -322l224 322h91l-277 -400v-262h-75z" />
    <glyph glyph-name="Z" unicode="Z" horiz-adv-x="584" 
d="M29 0v71l432 521h-426v70h518v-72l-432 -520h432v-70h-524z" />
    <glyph glyph-name="bracketleft" unicode="[" horiz-adv-x="280" 
d="M66 -133v812h187v-62h-121v-688h121v-62h-187z" />
    <glyph glyph-name="backslash" unicode="\" horiz-adv-x="371" 
d="M265 -32l-229 712h70l229 -712h-70z" />
    <glyph glyph-name="bracketright" unicode="]" horiz-adv-x="280" 
d="M27 -133v62h121v688h-121v62h187v-812h-187z" />
    <glyph glyph-name="asciicircum" unicode="^" horiz-adv-x="509" 
d="M75 355l149 313h61l149 -313h-70l-109 215l-110 -215h-70z" />
    <glyph glyph-name="underscore" unicode="_" horiz-adv-x="600" 
d="M50 -128v55h500v-55h-500z" />
    <glyph glyph-name="grave" unicode="`" horiz-adv-x="340" 
d="M200 570l-107 105h107l61 -105h-61z" />
    <glyph glyph-name="a" unicode="a" horiz-adv-x="595" 
d="M276 -8c-48.667 0 -91.167 11.501 -127.5 34.501s-64.5 54.167 -84.5 93.5s-30 82.666 -30 129.999c0 48 10 91.5 30 130.5s48.167 70 84.5 93s78.833 34.5 127.5 34.5c41.333 0 76.833 -8 106.5 -24s53.834 -37.667 72.501 -65v81h75v-500h-75v80
c-18.667 -26.667 -42.834 -48 -72.501 -64s-65.167 -24 -106.5 -24zM286 60.001c37.333 0 68.833 8.66699 94.5 26s45.167 40.5 58.5 69.5s20 60.5 20 94.5c0 34.667 -6.66699 66.334 -20 95.001s-32.833 51.667 -58.5 69s-57.167 26 -94.5 26
c-36.667 0 -68.334 -8.66699 -95.001 -26s-47 -40.333 -61 -69s-21 -60.334 -21 -95.001c0 -34 7 -65.5 21 -94.5s34.333 -52.167 61 -69.5s58.334 -26 95.001 -26z" />
    <glyph glyph-name="b" unicode="b" horiz-adv-x="595" 
d="M319 -8c-41.333 0 -76.833 7.99902 -106.5 23.999s-53.834 37.333 -72.501 64v-80h-75v700h75v-281c18.667 27.333 42.834 49 72.501 65s65.167 24 106.5 24c48.667 0 91.167 -11.5 127.5 -34.5s64.5 -54 84.5 -93s30 -82.5 30 -130.5
c0 -47.333 -10 -90.666 -30 -129.999s-48.167 -70.5 -84.5 -93.5s-78.833 -34.5 -127.5 -34.5zM309 59.999c37.333 0 69.166 8.66699 95.499 26s46.5 40.5 60.5 69.5s21 60.5 21 94.5c0 34.667 -7 66.334 -21 95.001s-34.167 51.667 -60.5 69s-58.166 26 -95.499 26
c-36.667 0 -68 -8.66699 -94 -26s-45.667 -40.333 -59 -69s-20 -60.334 -20 -95.001c0 -34 6.66699 -65.5 20 -94.5s33 -52.167 59 -69.5s57.333 -26 94 -26z" />
    <glyph glyph-name="c" unicode="c" horiz-adv-x="544" 
d="M280 -8c-50 0 -93.333 11.5039 -130 34.5039s-65.167 54.167 -85.5 93.5s-30.5 82.666 -30.5 129.999c0 48 10.167 91.5 30.5 130.5s48.833 70 85.5 93s80 34.5 130 34.5c59.333 0 109.833 -15.333 151.5 -46s69.834 -70.334 84.501 -119.001h-81
c-11.333 28.667 -29.5 52 -54.5 70s-55.167 27 -90.5 27c-36.667 0 -68.667 -8.66699 -96 -26s-48.333 -40.333 -63 -69s-22 -60.334 -22 -95.001c0 -34 7.33301 -65.5 22 -94.5s35.667 -52.167 63 -69.5s59.333 -26 96 -26c35.333 0 65.5 9 90.5 27s43.167 41.333 54.5 70
h81c-14.667 -48.667 -42.834 -88.334 -84.501 -119.001s-92.167 -46 -151.5 -46z" />
    <glyph glyph-name="d" unicode="d" horiz-adv-x="595" 
d="M276 -8c-48.667 0 -91.167 11.501 -127.5 34.501s-64.5 54.167 -84.5 93.5s-30 82.666 -30 129.999c0 48 10 91.5 30 130.5s48.167 70 84.5 93s78.833 34.5 127.5 34.5c41.333 0 76.833 -8 106.5 -24s53.834 -37.667 72.501 -65v281h75v-700h-75v80
c-18.667 -26.667 -42.834 -48 -72.501 -64s-65.167 -24 -106.5 -24zM286 60.001c37.333 0 68.833 8.66699 94.5 26s45.167 40.5 58.5 69.5s20 60.5 20 94.5c0 34.667 -6.66699 66.334 -20 95.001s-32.833 51.667 -58.5 69s-57.167 26 -94.5 26
c-36.667 0 -68.334 -8.66699 -95.001 -26s-47 -40.333 -61 -69s-21 -60.334 -21 -95.001c0 -34 7 -65.5 21 -94.5s34.333 -52.167 61 -69.5s58.334 -26 95.001 -26z" />
    <glyph glyph-name="e" unicode="e" horiz-adv-x="557" 
d="M287 -8c-50.667 0 -94.999 11.498 -132.999 34.498s-67.5 54.167 -88.5 93.5s-31.5 82.666 -31.5 129.999c0 48 10 91.5 30 130.5s48.667 70 86 93s81.333 34.5 132 34.5c51.333 0 95.5 -11.5 132.5 -34.5s65.5 -54 85.5 -93s30 -82.5 30 -130.5v-30h-419
c4 -29.333 13.5 -56.166 28.5 -80.499s35.167 -43.666 60.5 -57.999s54.666 -21.5 87.999 -21.5c35.333 0 65 7.83301 89 23.5s42.667 35.834 56 60.501h82c-17.333 -44.667 -44.833 -81.167 -82.5 -109.5s-86.167 -42.5 -145.5 -42.5zM112.001 289.998h340
c-6.66699 42.667 -24.667 78.334 -54 107.001s-68 43 -116 43s-86.5 -14.333 -115.5 -43s-47.167 -64.334 -54.5 -107.001z" />
    <glyph glyph-name="f" unicode="f" horiz-adv-x="307" 
d="M99 0v434.001h-86v66h86v44c0 54.667 16.5 95.667 49.5 123s78.167 41 135.5 41h6v-71h-10c-34.667 0 -61 -7.83301 -79 -23.5s-27 -40.834 -27 -75.501v-38h116v-66h-116v-434h-75z" />
    <glyph glyph-name="g" unicode="g" horiz-adv-x="595" 
d="M294 -206c-62.667 0 -113.666 13.502 -152.999 40.502s-66 62.167 -80 105.5h83c10 -24.667 27.333 -43.834 52 -57.501s56 -20.5 94 -20.5c57.333 0 99.166 13.5 125.499 40.5s39.5 66.167 39.5 117.5v69c-18.667 -26.667 -42.834 -48.167 -72.501 -64.5
s-65.167 -24.5 -106.5 -24.5c-48.667 0 -91.167 11.167 -127.5 33.5s-64.5 52.833 -84.5 91.5s-30 81.667 -30 129c0 48 10 91.167 30 129.5s48.167 68.666 84.5 90.999s78.833 33.5 127.5 33.5c41.333 0 76.833 -7.83301 106.5 -23.5s53.834 -37.167 72.501 -64.5v80h75
v-485c0 -71.333 -20.5 -126 -61.5 -164s-99.167 -57 -174.5 -57zM286.001 68.002c36.667 0 67.834 8.33301 93.501 25s45.334 39.167 59.001 67.5s20.5 59.5 20.5 93.5c0 34.667 -6.83301 66 -20.5 94s-33.334 50.333 -59.001 67s-56.834 25 -93.501 25
s-68.334 -8.33301 -95.001 -25s-47 -39 -61 -67s-21 -59.333 -21 -94c0 -34 7 -65.167 21 -93.5s34.333 -50.833 61 -67.5s58.334 -25 95.001 -25z" />
    <glyph glyph-name="h" unicode="h" horiz-adv-x="566" 
d="M65 0l0.000976562 699.998h75v-278c18 24 40 44.333 66 61s59.333 25 100 25c34.667 0 67.167 -8.16699 97.5 -24.5s55 -40.666 74 -72.999s28.5 -72.166 28.5 -119.499v-291h-75v289c0 45.333 -13 81.833 -39 109.5s-59.667 41.5 -101 41.5
c-28 0 -53.333 -6.33301 -76 -19s-40.834 -30.5 -54.501 -53.5s-20.5 -49.5 -20.5 -79.5v-288h-75z" />
    <glyph glyph-name="i" unicode="i" horiz-adv-x="205" 
d="M62 584v98h81v-98h-81zM65 0v500h75v-500h-75z" />
    <glyph glyph-name="j" unicode="j" horiz-adv-x="205" 
d="M62 584v98h81v-98h-81zM65 -198v698h75v-698h-75z" />
    <glyph glyph-name="k" unicode="k" horiz-adv-x="502" 
d="M65 0v700h75v-448l241 248h105l-201 -197l216 -303h-92l-175 251l-94 -93v-158h-75z" />
    <glyph glyph-name="l" unicode="l" horiz-adv-x="205" 
d="M65 0v700h75v-700h-75z" />
    <glyph glyph-name="m" unicode="m" horiz-adv-x="868" 
d="M65 0l0.00292969 500.002h75v-76c11.333 20 29.333 39 54 57s57.334 27 98.001 27c33.333 0 64.166 -8.83301 92.499 -26.5s50.5 -42.5 66.5 -74.5c6.66699 11.333 17.167 25 31.5 41s33.166 30 56.499 42s51.333 18 84 18c32 0 62 -8.33301 90 -25
s50.833 -40.5 68.5 -71.5s26.5 -67.5 26.5 -109.5v-302h-75v300c0 42 -11.833 75.833 -35.5 101.5s-53.167 38.5 -88.5 38.5c-36.667 0 -68.334 -12.333 -95.001 -37s-40 -59.334 -40 -104.001v-299h-75v300c0 42 -11.833 75.833 -35.5 101.5s-53.167 38.5 -88.5 38.5
c-36.667 0 -68.334 -12.333 -95.001 -37s-40 -59.334 -40 -104.001v-299h-75z" />
    <glyph glyph-name="n" unicode="n" horiz-adv-x="566" 
d="M65 0l0.000976562 499.998h75v-78c18 24 40 44.333 66 61s59.333 25 100 25c34.667 0 67.167 -8.16699 97.5 -24.5s55 -40.666 74 -72.999s28.5 -72.166 28.5 -119.499v-291h-75v289c0 45.333 -13 81.833 -39 109.5s-59.667 41.5 -101 41.5
c-28 0 -53.333 -6.33301 -76 -19s-40.834 -30.5 -54.501 -53.5s-20.5 -49.5 -20.5 -79.5v-288h-75z" />
    <glyph glyph-name="o" unicode="o" horiz-adv-x="564" 
d="M282 -8c-50.667 0 -94.667 11.5 -132 34.5s-66 54.167 -86 93.5s-30 82.666 -30 129.999c0 48 10 91.5 30 130.5s48.667 70 86 93s81.333 34.5 132 34.5c51.333 0 95.5 -11.5 132.5 -34.5s65.5 -54 85.5 -93s30 -82.5 30 -130.5c0 -47.333 -10 -90.666 -30 -129.999
s-48.5 -70.5 -85.5 -93.5s-81.167 -34.5 -132.5 -34.5zM282 60c37.333 0 68.833 8.66699 94.5 26s45.167 40.5 58.5 69.5s20 60.5 20 94.5c0 34.667 -6.66699 66.334 -20 95.001s-32.833 51.667 -58.5 69s-57.167 26 -94.5 26c-36.667 0 -68 -8.66699 -94 -26
s-45.667 -40.333 -59 -69s-20 -60.334 -20 -95.001c0 -34 6.66699 -65.5 20 -94.5s33 -52.167 59 -69.5s57.333 -26 94 -26z" />
    <glyph glyph-name="p" unicode="p" horiz-adv-x="595" 
d="M65 -198v697.999h75v-80c18.667 27.333 42.834 48.833 72.501 64.5s65.167 23.5 106.5 23.5c48.667 0 91.167 -11.5 127.5 -34.5s64.5 -54 84.5 -93s30 -82.5 30 -130.5c0 -47.333 -10 -90.666 -30 -129.999s-48.167 -70.5 -84.5 -93.5s-78.833 -34.5 -127.5 -34.5
c-41.333 0 -76.833 8.16699 -106.5 24.5s-53.834 37.833 -72.501 64.5v-279h-75zM309 59.999c37.333 0 69.166 8.66699 95.499 26s46.5 40.5 60.5 69.5s21 60.5 21 94.5c0 34.667 -7 66.334 -21 95.001s-34.167 51.667 -60.5 69s-58.166 26 -95.499 26
c-36.667 0 -68 -8.66699 -94 -26s-45.667 -40.333 -59 -69s-20 -60.334 -20 -95.001c0 -34 6.66699 -65.5 20 -94.5s33 -52.167 59 -69.5s57.333 -26 94 -26z" />
    <glyph glyph-name="q" unicode="q" horiz-adv-x="595" 
d="M455 -198v279.001c-18.667 -26.667 -42.834 -48.167 -72.501 -64.5s-65.167 -24.5 -106.5 -24.5c-48.667 0 -91.167 11.5 -127.5 34.5s-64.5 54.167 -84.5 93.5s-30 82.666 -30 129.999c0 48 10 91.5 30 130.5s48.167 70 84.5 93s78.833 34.5 127.5 34.5
c41.333 0 76.833 -7.83301 106.5 -23.5s53.834 -37.167 72.501 -64.5v80h75v-698h-75zM286 60.001c37.333 0 68.833 8.66699 94.5 26s45.167 40.5 58.5 69.5s20 60.5 20 94.5c0 34.667 -6.66699 66.334 -20 95.001s-32.833 51.667 -58.5 69s-57.167 26 -94.5 26
c-36.667 0 -68.334 -8.66699 -95.001 -26s-47 -40.333 -61 -69s-21 -60.334 -21 -95.001c0 -34 7 -65.5 21 -94.5s34.333 -52.167 61 -69.5s58.334 -26 95.001 -26z" />
    <glyph glyph-name="r" unicode="r" horiz-adv-x="345" 
d="M65 0l-0.00195312 499.999h75v-123c2.66699 8.66699 7.83398 20.167 15.501 34.5s18.834 28.833 33.501 43.5s33.167 27.167 55.5 37.5s48.833 15.5 79.5 15.5h5v-75h-9c-37.333 0 -69.5 -10.167 -96.5 -30.5s-47.667 -46.666 -62 -78.999s-21.5 -66.833 -21.5 -103.5
v-220h-75z" />
    <glyph glyph-name="s" unicode="s" horiz-adv-x="482" 
d="M247 -8c-46 0 -84.833 7.66797 -116.5 23.001s-55.834 35.5 -72.501 60.5s-26 52.167 -28 81.5h78c2 -16.667 7.83301 -32.834 17.5 -48.501s24.5 -28.334 44.5 -38.001s46 -14.5 78 -14.5c10 0 22.333 1 37 3s28.834 5.66699 42.501 11s25.167 13.333 34.5 24
s14 24.334 14 41.001c0 20.667 -8 36.667 -24 48s-36.667 20.166 -62 26.499s-52.166 12.5 -80.499 18.5s-55.166 13.833 -80.499 23.5s-46 23.334 -62 41.001s-24 41.834 -24 72.501c0 45.333 16.5 80.5 49.5 105.5s81.833 37.5 146.5 37.5
c44 0 79.833 -6.83301 107.5 -20.5s48.667 -31.167 63 -52.5s22.833 -44.333 25.5 -69h-76c-2.66699 21.333 -13.167 39.666 -31.5 54.999s-48.5 23 -90.5 23c-79.333 0 -119 -24 -119 -72c0 -20 8 -35.333 24 -46s36.667 -19.167 62 -25.5s52.166 -12.333 80.499 -18
s55.166 -13.5 80.499 -23.5s46 -24.167 62 -42.5s24 -43.166 24 -74.499c0 -48.667 -18.5 -85.834 -55.5 -111.501s-86.5 -38.5 -148.5 -38.5z" />
    <glyph glyph-name="t" unicode="t" horiz-adv-x="326" 
d="M119 0v434h-102v66h102v179h75v-179h115v-66h-115v-434h-75z" />
    <glyph glyph-name="u" unicode="u" horiz-adv-x="566" 
d="M260 -8c-34 0 -66.334 8.16895 -97.001 24.502s-55.5 40.666 -74.5 72.999s-28.5 72.166 -28.5 119.499v291h75v-289c0 -45.333 13.167 -81.833 39.5 -109.5s59.833 -41.5 100.5 -41.5c28 0 53.333 6.5 76 19.5s40.834 30.833 54.501 53.5s20.5 49 20.5 79v288h75v-500
h-75v78c-18 -24 -40 -44.333 -66 -61s-59.333 -25 -100 -25z" />
    <glyph glyph-name="v" unicode="v" horiz-adv-x="489" 
d="M201 0l-196 500h82l158 -420l157 420h82l-195 -500h-88z" />
    <glyph glyph-name="w" unicode="w" horiz-adv-x="746" 
d="M162 0l-157 500h80l120 -407l127 407h82l127 -407l120 407h80l-157 -500h-86l-125 399l-125 -399h-86z" />
    <glyph glyph-name="x" unicode="x" horiz-adv-x="482" 
d="M4 0l193 258l-181 242h96l129 -189l128 189h96l-181 -242l194 -258h-96l-141 204l-142 -204h-95z" />
    <glyph glyph-name="y" unicode="y" horiz-adv-x="497" 
d="M117 -198l91 205l-204 493h83l161 -410l164 410h82l-296 -698h-81z" />
    <glyph glyph-name="z" unicode="z" horiz-adv-x="458" 
d="M31 0v71l299 360h-295v69h390v-70l-300 -360h300v-70h-394z" />
    <glyph glyph-name="braceleft" unicode="{" horiz-adv-x="294" 
d="M269 -133c-24 0 -46.167 1.33398 -66.5 4.00098s-38.166 8.5 -53.499 17.5s-27.333 23.167 -36 42.5s-13 46 -13 80v144c0 22 -4.5 40 -13.5 54s-19.5 24.333 -31.5 31s-23.333 10 -34 10v46c10.667 0 22 3.33301 34 10s22.5 17 31.5 31s13.5 32 13.5 54v144
c0 34 4.33301 60.667 13 80s20.667 33.5 36 42.5s33.166 14.833 53.499 17.5s42.5 4 66.5 4v-54c-40 -0.666992 -67.167 -7.16699 -81.5 -19.5s-21.5 -36.166 -21.5 -71.499v-132c0 -37.333 -7 -65.833 -21 -85.5s-30.333 -34.167 -49 -43.5c18.667 -8.66699 35 -23 49 -43
s21 -48.667 21 -86v-132c0 -34.667 7.16699 -58.334 21.5 -71.001s41.5 -19.334 81.5 -20.001v-54z" />
    <glyph glyph-name="bar" unicode="|" horiz-adv-x="191" 
d="M65 -179v927h61v-927h-61z" />
    <glyph glyph-name="braceright" unicode="}" horiz-adv-x="294" 
d="M25 -133v53.999c40 0.666992 67.167 7.33398 81.5 20.001s21.5 36.334 21.5 71.001v132c0 37.333 7 66 21 86s30.333 34.333 49 43c-18.667 9.33301 -35 23.833 -49 43.5s-21 48.167 -21 85.5v132c0 35.333 -7.16699 59.166 -21.5 71.499s-41.5 18.833 -81.5 19.5v54
c24 0 46.167 -1.33301 66.5 -4s38.166 -8.5 53.499 -17.5s27.333 -23.167 36 -42.5s13 -46 13 -80v-144c0 -22 4.5 -40 13.5 -54s19.667 -24.333 32 -31s23.5 -10 33.5 -10v-46c-10 0 -21.167 -3.33301 -33.5 -10s-23 -17 -32 -31s-13.5 -32 -13.5 -54v-144
c0 -34 -4.33301 -60.667 -13 -80s-20.667 -33.5 -36 -42.5s-33.166 -14.833 -53.499 -17.5s-42.5 -4 -66.5 -4z" />
    <glyph glyph-name="asciitilde" unicode="~" horiz-adv-x="524" 
d="M48 215c1.33301 12 3.83594 25.665 7.50293 40.998s9.5 30.166 17.5 44.499s19 26 33 35s32 13.5 54 13.5c17.333 0 35.833 -3 55.5 -9s39.167 -13.167 58.5 -21.5s37.5 -15.5 54.5 -21.5s31.167 -9 42.5 -9c20 0 35 4.83301 45 14.5s17.167 20.334 21.5 32.001
s7.16602 20.167 8.49902 25.5h32c-2 -12 -4.83301 -25.667 -8.5 -41s-9.33398 -30.166 -17.001 -44.499s-18.334 -26 -32.001 -35s-31.5 -13.5 -53.5 -13.5c-17.333 0 -36 3 -56 9s-39.667 13 -59 21s-37.5 15 -54.5 21s-31.167 9 -42.5 9c-20.667 0 -36 -4.66699 -46 -14
s-17 -19.666 -21 -30.999l-9 -26h-31z" />
    <glyph glyph-name="uni00A0" unicode="&#xa0;" horiz-adv-x="213" 
 />
    <glyph glyph-name="exclamdown" unicode="&#xa1;" horiz-adv-x="207" 
d="M76 317l-19 -479h93l-19 479h-55zM55 500v-102h97v102h-97z" />
    <glyph glyph-name="cent" unicode="&#xa2;" horiz-adv-x="574" 
d="M280 -101v93c-47.333 2.66699 -88.333 15.667 -123 39s-61.5 54.166 -80.5 92.499s-28.5 80.5 -28.5 126.5s9.5 88.167 28.5 126.5s45.833 69.333 80.5 93s75.667 36.5 123 38.5v87h36v-88c53.333 -4 99 -21 137 -51s63.667 -67.667 77 -113h-81
c-10.667 27.333 -27.334 49.666 -50.001 66.999s-50.334 27.333 -83.001 30v-380c32.667 2.66699 60.334 12.834 83.001 30.501s39.334 39.834 50.001 66.501h81c-13.333 -45.333 -39 -83 -77 -113s-83.667 -47 -137 -51v-94h-36zM280 61v377.999
c-32 -4 -59.833 -15 -83.5 -33s-41.834 -40.5 -54.501 -67.5s-19 -56.5 -19 -88.5c0 -31.333 6.33301 -60.666 19 -87.999s30.834 -50 54.501 -68s51.5 -29 83.5 -33z" />
    <glyph glyph-name="sterling" unicode="&#xa3;" horiz-adv-x="575" 
d="M48 0v60.998l80 9v249h-71v58h71v72c0 38.667 6.66699 74.834 20 108.501s35 60.834 65 81.501s70 31 120 31c42 0 76.5 -7.16699 103.5 -21.5s48.167 -33 63.5 -56s25.666 -47.833 30.999 -74.5h-71c-6.66699 21.333 -19.667 40.166 -39 56.499
s-47.666 24.5 -84.999 24.5c-30 0 -54 -4.66699 -72 -14s-31.5 -21.666 -40.5 -36.999s-15 -31.833 -18 -49.5s-4.5 -35.167 -4.5 -52.5v-69h148v-58h-148v-249h303v-70h-456z" />
    <glyph glyph-name="currency" unicode="&#xa4;" horiz-adv-x="567" 
d="M93 88l-45.001 45l64 64c-12.667 18 -22.667 37.667 -30 59s-11 44 -11 68c0 47.333 13.667 89.333 41 126l-64 65l45 45l64 -65c18 13.333 37.667 23.5 59 30.5s44 10.5 68 10.5c47.333 0 89.333 -13.667 126 -41l65 65l44 -45l-64 -65
c27.333 -36.667 41 -78.667 41 -126c0 -24 -3.5 -46.667 -10.5 -68s-17.167 -41 -30.5 -59l64 -64l-44 -45l-65 65c-36 -28 -78 -42 -126 -42c-47.333 0 -89.666 14 -126.999 42zM283.999 172c28 0 53.5 6.83301 76.5 20.5s41.333 32 55 55s20.5 48.5 20.5 76.5
s-6.83301 53.5 -20.5 76.5s-32 41.333 -55 55s-48.5 20.5 -76.5 20.5s-53.5 -6.83301 -76.5 -20.5s-41.333 -32 -55 -55s-20.5 -48.5 -20.5 -76.5s6.83301 -53.5 20.5 -76.5s32 -41.333 55 -55s48.5 -20.5 76.5 -20.5z" />
    <glyph glyph-name="yen" unicode="&#xa5;" horiz-adv-x="657" 
d="M291 0v125h-193v65h193v72l-17 27h-176v65h134l-195 308h91l200 -322l201 322h91l-196 -308h135v-65h-176l-17 -27v-72h193v-65h-193v-125h-75z" />
    <glyph glyph-name="brokenbar" unicode="&#xa6;" horiz-adv-x="191" 
d="M65 393v355h61v-355h-61zM126 177v-356h-61v356h61z" />
    <glyph glyph-name="section" unicode="&#xa7;" horiz-adv-x="519" 
d="M250 -178c-36.667 0 -69.334 7.33203 -98.001 21.999s-51.667 34 -69 58s-27.333 50.333 -30 79h69c4 -22.667 17.667 -43.667 41 -63s53.333 -29 90 -29c30.667 0 56.5 6.66699 77.5 20s31.5 32.666 31.5 57.999c0 21.333 -7.66699 40.5 -23 57.5
s-34.833 33.333 -58.5 49s-49 31.167 -76 46.5s-52.5 31.666 -76.5 48.999s-43.5 36.5 -58.5 57.5s-22.5 44.833 -22.5 71.5c0 30 6.66699 54.667 20 74s32.333 34 57 44c-11.333 14 -20.5 29.167 -27.5 45.5s-10.5 34.5 -10.5 54.5c0 31.333 6 57 18 77
s27.167 35.5 45.5 46.5s38 18.667 59 23s40.5 6.5 58.5 6.5c36.667 0 69 -7.33301 97 -22s50.333 -34 67 -58s26.334 -50.333 29.001 -79h-69c-4 23.333 -16.833 44.5 -38.5 63.5s-51.167 28.5 -88.5 28.5c-30.667 0 -55.834 -6.66699 -75.501 -20
s-29.5 -32.666 -29.5 -57.999c0 -20.667 7.5 -39.667 22.5 -57s34.5 -33.833 58.5 -49.5s49.5 -31.167 76.5 -46.5s52.333 -31.666 76 -48.999s43.167 -36.5 58.5 -57.5s23 -44.833 23 -71.5c0 -30.667 -6.66699 -55.667 -20 -75s-32.666 -34 -57.999 -44
c12 -13.333 21.5 -28.166 28.5 -44.499s10.5 -34.5 10.5 -54.5c0 -31.333 -6.16699 -57 -18.5 -77s-28 -35.5 -47 -46.5s-39.167 -18.667 -60.5 -23s-41 -6.5 -59 -6.5zM360 108.999c12.667 6 22.666 14.333 29.999 25s11 24.334 11 41.001c0 23.333 -8 43.833 -24 61.5
s-36.333 34 -61 49l-78.5 45.5c-27.667 15.333 -53.167 32.333 -76.5 51c-12.667 -6.66699 -22.667 -15.334 -30 -26.001s-11 -24 -11 -40c0 -23.333 8 -43.833 24 -61.5s36.333 -34.167 61 -49.5s50.834 -30.5 78.501 -45.5s53.167 -31.833 76.5 -50.5z" />
    <glyph glyph-name="dieresis" unicode="&#xa8;" horiz-adv-x="246" 
d="M0 579v83h89v-83h-89zM157 579v83h89v-83h-89z" />
    <glyph glyph-name="copyright" unicode="&#xa9;" horiz-adv-x="779" 
d="M389 -13c-47.333 0 -91.666 8.83301 -132.999 26.5s-77.666 42.167 -108.999 73.5s-55.833 67.666 -73.5 108.999s-26.5 85.666 -26.5 132.999s8.83301 91.833 26.5 133.5s42.167 78.167 73.5 109.5s67.666 55.833 108.999 73.5s85.666 26.5 132.999 26.5
s91.666 -8.83301 132.999 -26.5s77.833 -42.167 109.5 -73.5s56.334 -67.833 74.001 -109.5s26.5 -86.167 26.5 -133.5s-8.83301 -91.666 -26.5 -132.999s-42.334 -77.666 -74.001 -108.999s-68.167 -55.833 -109.5 -73.5s-85.666 -26.5 -132.999 -26.5zM389 36
c40.667 0 78.667 7.66699 114 23s66.5 36.5 93.5 63.5s48.167 58.167 63.5 93.5s23 73 23 113c0 40.667 -7.66699 78.667 -23 114s-36.5 66.5 -63.5 93.5s-58.167 48.167 -93.5 63.5s-73.333 23 -114 23s-78.667 -7.66699 -114 -23s-66.5 -36.5 -93.5 -63.5
s-48 -58.167 -63 -93.5s-22.5 -73.333 -22.5 -114c0 -40 7.5 -77.667 22.5 -113s36 -66.5 63 -93.5s58.167 -48.167 93.5 -63.5s73.333 -23 114 -23zM389 133c-38.667 0 -72 8.5 -100 25.5s-49.5 40.333 -64.5 70s-22.5 63.167 -22.5 100.5c0 38 7.5 71.667 22.5 101
s36.5 52.333 64.5 69s61.333 25 100 25c45.333 0 84.833 -11.667 118.5 -35s54.167 -59 61.5 -107h-67c-4.66699 24.667 -16.5 44 -35.5 58s-43.167 21 -72.5 21c-38.667 0 -69 -12.167 -91 -36.5s-33 -56.166 -33 -95.499c0 -38.667 11 -70.334 33 -95.001
s52.333 -37 91 -37c29.333 0 53.5 7 72.5 21s30.833 33.333 35.5 58h67c-7.33301 -48.667 -27.833 -84.667 -61.5 -108s-73.167 -35 -118.5 -35z" />
    <glyph glyph-name="ordfeminine" unicode="&#xaa;" horiz-adv-x="371" 
d="M167 392c-40 0 -71.667 13.333 -95 40s-35 59 -35 97s11.667 70.333 35 97s55 40 95 40c22 0 40.833 -4.33301 56.5 -13s28.5 -20 38.5 -34v43h52v-266h-52v43c-10 -14.667 -22.833 -26.167 -38.5 -34.5s-34.5 -12.5 -56.5 -12.5zM177 440c26.667 0 47.667 8.5 63 25.5
s23 38.167 23 63.5s-7.66699 46.5 -23 63.5s-36.333 25.5 -63 25.5c-28.667 0 -50.5 -8.5 -65.5 -25.5s-22.5 -38.167 -22.5 -63.5c0 -26 7.5 -47.333 22.5 -64s36.833 -25 65.5 -25z" />
    <glyph glyph-name="guillemotleft" unicode="&#xab;" horiz-adv-x="487" 
d="M169 57l-130 202l130 202h89l-137 -202l137 -202h-89zM353 57l-130 202l130 202h89l-137 -202l137 -202h-89z" />
    <glyph glyph-name="logicalnot" unicode="&#xac;" horiz-adv-x="593" 
d="M457 186v135h-395v68h467v-203h-72z" />
    <glyph glyph-name="uni00AD" unicode="&#xad;" horiz-adv-x="356" 
d="M55 259v73h250v-73h-250z" />
    <glyph glyph-name="registered" unicode="&#xae;" horiz-adv-x="779" 
d="M389 -13c-47.333 0 -91.666 8.83301 -132.999 26.5s-77.666 42.167 -108.999 73.5s-55.833 67.666 -73.5 108.999s-26.5 85.666 -26.5 132.999s8.83301 91.833 26.5 133.5s42.167 78.167 73.5 109.5s67.666 55.833 108.999 73.5s85.666 26.5 132.999 26.5
s91.666 -8.83301 132.999 -26.5s77.833 -42.167 109.5 -73.5s56.334 -67.833 74.001 -109.5s26.5 -86.167 26.5 -133.5s-8.83301 -91.666 -26.5 -132.999s-42.334 -77.666 -74.001 -108.999s-68.167 -55.833 -109.5 -73.5s-85.666 -26.5 -132.999 -26.5zM389 36
c40.667 0 78.667 7.66699 114 23s66.5 36.5 93.5 63.5s48.167 58.167 63.5 93.5s23 73 23 113c0 40.667 -7.66699 78.667 -23 114s-36.5 66.5 -63.5 93.5s-58.167 48.167 -93.5 63.5s-73.333 23 -114 23s-78.667 -7.66699 -114 -23s-66.5 -36.5 -93.5 -63.5
s-48 -58.167 -63 -93.5s-22.5 -73.333 -22.5 -114c0 -40 7.5 -77.667 22.5 -113s36 -66.5 63 -93.5s58.167 -48.167 93.5 -63.5s73.333 -23 114 -23zM240 138l-0.000976562 381.999h162c54 0 93.5 -10.5 118.5 -31.5s37.5 -48.167 37.5 -81.5
c0 -22.667 -6.66699 -42.834 -20 -60.501s-31.666 -30.167 -54.999 -37.5c19.333 -5.33301 34 -15.333 44 -30s16.833 -30.667 20.5 -48s5.5 -32.666 5.5 -45.999v-47h-69v38c0 12.667 -1.16699 26.834 -3.5 42.501s-8.83301 29.5 -19.5 41.5s-28.667 18 -54 18h-97v-140
h-70zM309.999 337.999h87c27.333 0 49.5 5.33301 66.5 16s25.5 26 25.5 46c0 18.667 -6.83301 33.5 -20.5 44.5s-38.167 16.5 -73.5 16.5h-85v-123z" />
    <glyph glyph-name="macron" unicode="&#xaf;" horiz-adv-x="382" 
d="M57 582v60h264v-60h-264z" />
    <glyph glyph-name="degree" unicode="&#xb0;" horiz-adv-x="333" 
d="M166 406c-24 0 -45.833 5.83301 -65.5 17.5s-35.334 27.334 -47.001 47.001s-17.5 41.5 -17.5 65.5s5.83301 46 17.5 66s27.334 35.833 47.001 47.5s41.5 17.5 65.5 17.5s46 -5.83301 66 -17.5s35.833 -27.5 47.5 -47.5s17.5 -42 17.5 -66s-5.83301 -45.833 -17.5 -65.5
s-27.5 -35.334 -47.5 -47.001s-42 -17.5 -66 -17.5zM166 463c20.667 0 38.167 7.16699 52.5 21.5s21.5 31.5 21.5 51.5c0 20.667 -7.16699 38.167 -21.5 52.5s-31.833 21.5 -52.5 21.5c-20 0 -37.167 -7.16699 -51.5 -21.5s-21.5 -31.833 -21.5 -52.5
c0 -20 7.16699 -37.167 21.5 -51.5s31.5 -21.5 51.5 -21.5z" />
    <glyph glyph-name="plusminus" unicode="&#xb1;" horiz-adv-x="550" 
d="M242 122v154h-192v65h192v154h65v-154h193v-65h-193v-154h-65zM50 0v62h450v-62h-450z" />
    <glyph glyph-name="uni00B2" unicode="&#xb2;" horiz-adv-x="357" 
d="M50 449l0.00292969 32.999c0 27.333 9.5 51.833 28.5 73.5s50.833 47.167 95.5 76.5c19.333 14.667 35.333 30 48 46s19 32.333 19 49c0 17.333 -5.5 30.833 -16.5 40.5s-26.5 14.5 -46.5 14.5c-18.667 0 -35.334 -6.33301 -50.001 -19s-22 -29.667 -22 -51h-63
c0 28 6.83301 51.333 20.5 70s31 32.834 52 42.501s41.833 14.5 62.5 14.5c33.333 0 62.666 -9.16699 87.999 -27.5s38 -46.166 38 -83.499c0 -32.667 -10.667 -60.834 -32 -84.501s-47.333 -46.167 -78 -67.5l-51.5 -34c-15.667 -10.667 -25.834 -21.667 -30.501 -33h194
v-60h-256z" />
    <glyph glyph-name="uni00B3" unicode="&#xb3;" horiz-adv-x="366" 
d="M184 443c-26.667 0 -50.833 5.33398 -72.5 16.001s-38.834 25 -51.501 43s-19 38 -19 60h62c0 -19.333 8.33301 -34.166 25 -44.499s35 -15.5 55 -15.5c18.667 0 35.667 4.83301 51 14.5s23 24.5 23 44.5c0 17.333 -6.83301 31.833 -20.5 43.5s-28.167 17.5 -43.5 17.5
h-54v60h48c14 0 26.833 4.5 38.5 13.5s17.5 20.833 17.5 35.5c0 16 -5.5 28.333 -16.5 37s-25.833 13 -44.5 13c-20.667 0 -37.5 -4.83301 -50.5 -14.5s-19.5 -22.167 -19.5 -37.5h-60c0 31.333 12.333 57.5 37 78.5s55.334 31.5 92.001 31.5s66.667 -9.66699 90 -29
s35 -45 35 -77c0 -14.667 -4.33301 -29.334 -13 -44.001s-19.667 -26.334 -33 -35.001c38.667 -20 58 -50.667 58 -92c0 -22 -6 -42 -18 -60s-28 -32.333 -48 -43s-42.667 -16 -68 -16z" />
    <glyph glyph-name="acute" unicode="&#xb4;" horiz-adv-x="349" 
d="M86 570l61 105h107l-107 -105h-61z" />
    <glyph glyph-name="uni00B5" unicode="&#xb5;" horiz-adv-x="564" 
d="M72 -198v698h75v-289c0 -45.333 13.167 -81.833 39.5 -109.5s59.833 -41.5 100.5 -41.5c28 0 53.333 6.5 76 19.5s40.834 30.833 54.501 53.5s20.5 49 20.5 79v288h75v-500h-75v78c-18 -24 -39.333 -44.333 -64 -61s-57.334 -25 -98.001 -25
c-52.667 0 -95.667 18 -129 54v-244h-75z" />
    <glyph glyph-name="paragraph" unicode="&#xb6;" horiz-adv-x="565" 
d="M276 -141v476.001h-73c-30.667 0 -58.667 7.5 -84 22.5s-45.5 35.167 -60.5 60.5s-22.5 53.333 -22.5 84c0 31.333 7.5 59.666 22.5 84.999s35.167 45.5 60.5 60.5s53.333 22.5 84 22.5h306v-54h-43v-757h-59v757h-72v-757h-59z" />
    <glyph glyph-name="periodcentered" unicode="&#xb7;" horiz-adv-x="203" 
d="M53 242v102h97v-102h-97z" />
    <glyph glyph-name="cedilla" unicode="&#xb8;" horiz-adv-x="300" 
d="M151 -206c-25.333 0 -48.166 4.16699 -68.499 12.5s-36.833 17.833 -49.5 28.5l19 33c10.667 -7.33301 23 -14.166 37 -20.499s30 -9.5 48 -9.5c15.333 0 28.333 2.66699 39 8s16 14.666 16 27.999c0 10 -5.33301 18 -16 24s-23 9 -37 9c-12 0 -23.667 -1.66699 -35 -5
l-21 17l69 108h43l-44 -77c8 1.33301 15.333 2 22 2c25.333 0 47 -6.83301 65 -20.5s27 -32.5 27 -56.5c0 -28 -11.333 -48.5 -34 -61.5s-49.334 -19.5 -80.001 -19.5z" />
    <glyph glyph-name="uni00B9" unicode="&#xb9;" horiz-adv-x="319" 
d="M137 449v326h-82v60h144v-386h-62z" />
    <glyph glyph-name="ordmasculine" unicode="&#xba;" horiz-adv-x="342" 
d="M171 392c-40.667 0 -73.167 13.167 -97.5 39.5s-36.5 58.833 -36.5 97.5c0 39.333 12.167 72 36.5 98s56.833 39 97.5 39s73.167 -13 97.5 -39s36.5 -58.667 36.5 -98c0 -38.667 -12.167 -71.167 -36.5 -97.5s-56.833 -39.5 -97.5 -39.5zM171 452
c22 0 39.333 7.5 52 22.5s19 33.167 19 54.5c0 20.667 -6 38.667 -18 54s-29.667 23 -53 23s-41 -7.66699 -53 -23s-18 -33.333 -18 -54s6 -38.667 18 -54s29.667 -23 53 -23z" />
    <glyph glyph-name="guillemotright" unicode="&#xbb;" horiz-adv-x="487" 
d="M45 57l137 202l-137 202h89l130 -202l-130 -202h-89zM229 57l137 202l-137 202h89l130 -202l-130 -202h-89z" />
    <glyph glyph-name="onequarter" unicode="&#xbc;" horiz-adv-x="729" 
d="M137 276v326h-82v60h144v-386h-62zM111 -14l420 688h64l-420 -688h-64zM633 151h52v-58h-52v-98h-62v98h-184v55l166 233h80v-230zM449 151h122v171z" />
    <glyph glyph-name="onehalf" unicode="&#xbd;" horiz-adv-x="753" 
d="M457 0l0.00292969 32.999c0 27.333 9.5 51.833 28.5 73.5s50.833 47.167 95.5 76.5c19.333 14.667 35.333 30 48 46s19 32.333 19 49c0 17.333 -5.5 30.833 -16.5 40.5s-26.5 14.5 -46.5 14.5c-18.667 0 -35.334 -6.33301 -50.001 -19s-22 -29.667 -22 -51h-63
c0 28 6.83301 51.333 20.5 70s31 32.834 52 42.501s41.833 14.5 62.5 14.5c33.333 0 62.666 -9.16699 87.999 -27.5s38 -46.166 38 -83.499c0 -32.667 -10.667 -60.834 -32 -84.501s-47.333 -46.167 -78 -67.5l-51.5 -34c-15.667 -10.667 -25.834 -21.667 -30.501 -33h194
v-60h-256zM137.003 275.999v326h-82v60h144v-386h-62zM111.003 -14.001l420 688h64l-420 -688h-64z" />
    <glyph glyph-name="threequarters" unicode="&#xbe;" horiz-adv-x="792" 
d="M185 270c-26.667 0 -50.833 5.33398 -72.5 16.001s-38.834 25 -51.501 43s-19 38 -19 60h62c0 -19.333 8.33301 -34.166 25 -44.499s35 -15.5 55 -15.5c18.667 0 35.667 4.83301 51 14.5s23 24.5 23 44.5c0 17.333 -6.83301 31.833 -20.5 43.5s-28.167 17.5 -43.5 17.5
h-54v60h48c14 0 26.833 4.5 38.5 13.5s17.5 20.833 17.5 35.5c0 16 -5.5 28.333 -16.5 37s-25.833 13 -44.5 13c-20.667 0 -37.5 -4.83301 -50.5 -14.5s-19.5 -22.167 -19.5 -37.5h-60c0 31.333 12.333 57.5 37 78.5s55.334 31.5 92.001 31.5s66.667 -9.66699 90 -29
s35 -45 35 -77c0 -14.667 -4.33301 -29.334 -13 -44.001s-19.667 -26.334 -33 -35.001c38.667 -20 58 -50.667 58 -92c0 -22 -6 -42 -18 -60s-28 -32.333 -48 -43s-42.667 -16 -68 -16zM174.001 -13.999l420 688h64l-420 -688h-64zM696.001 156.001h52v-58h-52v-98h-62v98
h-184v55l166 233h80v-230zM512.001 156.001h122v171z" />
    <glyph glyph-name="questiondown" unicode="&#xbf;" horiz-adv-x="510" 
d="M283 317c0 -32.667 -5.66992 -60.5 -17.0029 -83.5s-25.333 -43 -42 -60l-49.5 -49c-16.333 -15.667 -30.166 -32.334 -41.499 -50.001s-17 -38.834 -17 -63.501c0 -16.667 3.83301 -33.667 11.5 -51s20.834 -31.833 39.501 -43.5s44.334 -17.5 77.001 -17.5
s60.167 6.33301 82.5 19s39.666 29.334 51.999 50.001s19.5 42.667 21.5 66h71c-2 -36.667 -12.167 -70.5 -30.5 -101.5s-43.666 -55.833 -75.999 -74.5s-70.5 -28 -114.5 -28c-48 0 -87.167 8.83301 -117.5 26.5s-52.5 40.334 -66.5 68.001s-21 56.5 -21 86.5
c0 31.333 5.5 57.5 16.5 78.5s24.667 39.667 41 56l49.5 47.5c16.667 15.333 30.5 32.833 41.5 52.5s16.5 43.5 16.5 71.5h73zM294.997 500v-102h-97v102h97z" />
    <glyph glyph-name="Agrave" unicode="&#xc0;" horiz-adv-x="662" 
d="M3 0l281 662h94l281 -662h-83l-81 192h-328l-81 -192h-83zM196 261h270l-135 323zM304 725l-107 105h107l61 -105h-61z" />
    <glyph glyph-name="Aacute" unicode="&#xc1;" horiz-adv-x="662" 
d="M3 0l281 662h94l281 -662h-83l-81 192h-328l-81 -192h-83zM196 261h270l-135 323zM297 725l61 105h107l-107 -105h-61z" />
    <glyph glyph-name="Acircumflex" unicode="&#xc2;" horiz-adv-x="662" 
d="M3 0l281 662h94l281 -662h-83l-81 192h-328l-81 -192h-83zM196 261h270l-135 323zM190 725l98 105h87l97 -105h-82l-59 54l-59 -54h-82z" />
    <glyph glyph-name="Atilde" unicode="&#xc3;" horiz-adv-x="662" 
d="M3 0l281 662h94l281 -662h-83l-81 192h-328l-81 -192h-83zM196 261h270l-135 323zM401 723c-22 0 -40.1699 3.33301 -54.5029 10s-27.666 13.334 -39.999 20.001s-26.166 10 -41.499 10s-26.666 -4.33301 -33.999 -13s-12.666 -17.334 -15.999 -26.001h-31
c3.33301 24.667 12.166 47.167 26.499 67.5s37.833 30.5 70.5 30.5c21.333 0 39.166 -3.33301 53.499 -10s27.666 -13.5 39.999 -20.5s26.166 -10.5 41.499 -10.5c14.667 0 25.834 4.5 33.501 13.5s12.834 17.833 15.501 26.5h32
c-3.33301 -24.667 -12.166 -47.167 -26.499 -67.5s-37.5 -30.5 -69.5 -30.5z" />
    <glyph glyph-name="Adieresis" unicode="&#xc4;" horiz-adv-x="662" 
d="M3 0l281 662h94l281 -662h-83l-81 192h-328l-81 -192h-83zM196 261h270l-135 323zM208 730v83h89v-83h-89zM365 730v83h89v-83h-89z" />
    <glyph glyph-name="Aring" unicode="&#xc5;" horiz-adv-x="662" 
d="M3 0l281 662h94l281 -662h-83l-81 192h-328l-81 -192h-83zM196 261h270l-135 323zM330 635c-24.667 0 -45.667 8.66699 -63 26s-26 38.333 -26 63c0 25.333 8.66699 46.666 26 63.999s38.333 26 63 26c25.333 0 46.833 -8.66699 64.5 -26s26.5 -38.666 26.5 -63.999
c0 -24.667 -8.83301 -45.667 -26.5 -63s-39.167 -26 -64.5 -26zM330 680c12.667 0 23.334 4.33301 32.001 13s13 19 13 31c0 12.667 -4.33301 23.334 -13 32.001s-19.334 13 -32.001 13c-11.333 0 -21.333 -4.33301 -30 -13s-13 -19.334 -13 -32.001
c0 -12 4.33301 -22.333 13 -31s18.667 -13 30 -13z" />
    <glyph glyph-name="AE" unicode="&#xc6;" horiz-adv-x="1022" 
d="M-3 0l453 662h533v-72h-387v-222h343v-73h-343v-223h387v-72h-462v185h-309l-125 -185h-90zM259 254h262v336h-34z" />
    <glyph glyph-name="Ccedilla" unicode="&#xc7;" horiz-adv-x="690" 
d="M365 65c54.667 0 100.001 12.0029 136.001 36.0029s62.333 56.333 79 97h79c-20.667 -58.667 -55.834 -107 -105.501 -145s-110.167 -58.333 -181.5 -61l-24 -42c8 1.33301 15.333 2 22 2c25.333 0 47 -6.83301 65 -20.5s27 -32.5 27 -56.5
c0 -28 -11.333 -48.5 -34 -61.5s-49.334 -19.5 -80.001 -19.5c-25.333 0 -48.166 4.16699 -68.499 12.5s-36.833 17.833 -49.5 28.5l19 33c10.667 -7.33301 23 -14.166 37 -20.499s30 -9.5 48 -9.5c15.333 0 28.333 2.66699 39 8s16 14.666 16 27.999
c0 10 -5.33301 18 -16 24s-23 9 -37 9c-12 0 -23.667 -1.66699 -35 -5l-21 17l47 74c-60 5.33301 -111.5 23.5 -154.5 54.5s-76 71.167 -99 120.5s-34.5 103.666 -34.5 162.999c0 62.667 12.833 119.667 38.5 171s62.5 92.166 110.5 122.499s105 45.5 171 45.5
c50 0 95 -8.83301 135 -26.5s74 -41.834 102 -72.501s49 -66.334 63 -107.001h-79c-16.667 40.667 -43 73 -79 97s-81.333 36 -136 36c-53.333 0 -98.833 -11.833 -136.5 -35.5s-66.167 -55.5 -85.5 -95.5s-29 -85 -29 -135c0 -49.333 9.66699 -94.166 29 -134.499
s47.833 -72.333 85.5 -96s83.167 -35.5 136.5 -35.5z" />
    <glyph glyph-name="Egrave" unicode="&#xc8;" horiz-adv-x="608" 
d="M81 0v662h487v-72h-412v-222h368v-73h-368v-223h412v-72h-487zM307 725l-107 105h107l61 -105h-61z" />
    <glyph glyph-name="Eacute" unicode="&#xc9;" horiz-adv-x="608" 
d="M81 0v662h487v-72h-412v-222h368v-73h-368v-223h412v-72h-487zM300 725l61 105h107l-107 -105h-61z" />
    <glyph glyph-name="Ecircumflex" unicode="&#xca;" horiz-adv-x="608" 
d="M81 0v662h487v-72h-412v-222h368v-73h-368v-223h412v-72h-487zM193 725l98 105h87l97 -105h-82l-59 54l-59 -54h-82z" />
    <glyph glyph-name="Edieresis" unicode="&#xcb;" horiz-adv-x="608" 
d="M81 0v662h487v-72h-412v-222h368v-73h-368v-223h412v-72h-487zM211 730v83h89v-83h-89zM368 730v83h89v-83h-89z" />
    <glyph glyph-name="Igrave" unicode="&#xcc;" horiz-adv-x="237" 
d="M81 0v662h75v-662h-75zM92 725l-107 105h107l61 -105h-61z" />
    <glyph glyph-name="Iacute" unicode="&#xcd;" horiz-adv-x="237" 
d="M81 0v662h75v-662h-75zM85 725l61 105h107l-107 -105h-61z" />
    <glyph glyph-name="Icircumflex" unicode="&#xce;" horiz-adv-x="237" 
d="M81 0v662h75v-662h-75zM-22 725l98 105h87l97 -105h-82l-59 54l-59 -54h-82z" />
    <glyph glyph-name="Idieresis" unicode="&#xcf;" horiz-adv-x="237" 
d="M81 0v662h75v-662h-75zM-4 730v83h89v-83h-89zM153 730v83h89v-83h-89z" />
    <glyph glyph-name="Eth" unicode="&#xd0;" horiz-adv-x="703" 
d="M81 0v298.002h-74v65h74v299h279c39.333 0 77.166 -7.5 113.499 -22.5s68.833 -36.833 97.5 -65.5s51.334 -63.334 68.001 -104.001s25 -87 25 -139s-8.33301 -98.333 -25 -139s-39.334 -75.334 -68.001 -104.001s-61.167 -50.5 -97.5 -65.5
s-74.166 -22.5 -113.499 -22.5h-279zM156 71.002l201 0.000976562c47.333 0 88.333 12 123 36s61.5 55.667 80.5 95s28.5 82.333 28.5 129c0 47.333 -9.5 90.666 -28.5 129.999s-45.833 70.833 -80.5 94.5s-75.667 35.5 -123 35.5h-201v-228h199v-65h-199v-227z" />
    <glyph glyph-name="Ntilde" unicode="&#xd1;" horiz-adv-x="733" 
d="M81 0v662h87l409 -557v557h75v-662h-87l-409 559v-559h-75zM437 723c-22 0 -40.1699 3.33301 -54.5029 10s-27.666 13.334 -39.999 20.001s-26.166 10 -41.499 10s-26.666 -4.33301 -33.999 -13s-12.666 -17.334 -15.999 -26.001h-31
c3.33301 24.667 12.166 47.167 26.499 67.5s37.833 30.5 70.5 30.5c21.333 0 39.166 -3.33301 53.499 -10s27.666 -13.5 39.999 -20.5s26.166 -10.5 41.499 -10.5c14.667 0 25.834 4.5 33.501 13.5s12.834 17.833 15.501 26.5h32
c-3.33301 -24.667 -12.166 -47.167 -26.499 -67.5s-37.5 -30.5 -69.5 -30.5z" />
    <glyph glyph-name="Ograve" unicode="&#xd2;" horiz-adv-x="750" 
d="M375 -8c-50 0 -95.667 8.66699 -137 26s-76.833 41.666 -106.5 72.999s-52.5 67.5 -68.5 108.5s-24 84.833 -24 131.5c0 47.333 8 91.333 24 132s38.833 76.667 68.5 108s65.167 55.666 106.5 72.999s87 26 137 26s95.667 -8.66699 137 -26s76.833 -41.666 106.5 -72.999
s52.5 -67.333 68.5 -108s24 -84.667 24 -132c0 -46.667 -8 -90.5 -24 -131.5s-38.833 -77.167 -68.5 -108.5s-65.167 -55.666 -106.5 -72.999s-87 -26 -137 -26zM375 65c54 0 100.5 11.833 139.5 35.5s69 55.667 90 96s31.5 85.166 31.5 134.499c0 50 -10.5 95 -31.5 135
s-51 71.833 -90 95.5s-85.5 35.5 -139.5 35.5c-53.333 0 -99.666 -11.833 -138.999 -35.5s-69.5 -55.5 -90.5 -95.5s-31.5 -85 -31.5 -135c0 -49.333 10.5 -94.166 31.5 -134.499s51.167 -72.333 90.5 -96s85.666 -35.5 138.999 -35.5zM348 725l-107 105h107l61 -105h-61z
" />
    <glyph glyph-name="Oacute" unicode="&#xd3;" horiz-adv-x="750" 
d="M375 -8c-50 0 -95.667 8.66699 -137 26s-76.833 41.666 -106.5 72.999s-52.5 67.5 -68.5 108.5s-24 84.833 -24 131.5c0 47.333 8 91.333 24 132s38.833 76.667 68.5 108s65.167 55.666 106.5 72.999s87 26 137 26s95.667 -8.66699 137 -26s76.833 -41.666 106.5 -72.999
s52.5 -67.333 68.5 -108s24 -84.667 24 -132c0 -46.667 -8 -90.5 -24 -131.5s-38.833 -77.167 -68.5 -108.5s-65.167 -55.666 -106.5 -72.999s-87 -26 -137 -26zM375 65c54 0 100.5 11.833 139.5 35.5s69 55.667 90 96s31.5 85.166 31.5 134.499c0 50 -10.5 95 -31.5 135
s-51 71.833 -90 95.5s-85.5 35.5 -139.5 35.5c-53.333 0 -99.666 -11.833 -138.999 -35.5s-69.5 -55.5 -90.5 -95.5s-31.5 -85 -31.5 -135c0 -49.333 10.5 -94.166 31.5 -134.499s51.167 -72.333 90.5 -96s85.666 -35.5 138.999 -35.5zM341 725l61 105h107l-107 -105h-61z
" />
    <glyph glyph-name="Ocircumflex" unicode="&#xd4;" horiz-adv-x="750" 
d="M375 -8c-50 0 -95.667 8.66699 -137 26s-76.833 41.666 -106.5 72.999s-52.5 67.5 -68.5 108.5s-24 84.833 -24 131.5c0 47.333 8 91.333 24 132s38.833 76.667 68.5 108s65.167 55.666 106.5 72.999s87 26 137 26s95.667 -8.66699 137 -26s76.833 -41.666 106.5 -72.999
s52.5 -67.333 68.5 -108s24 -84.667 24 -132c0 -46.667 -8 -90.5 -24 -131.5s-38.833 -77.167 -68.5 -108.5s-65.167 -55.666 -106.5 -72.999s-87 -26 -137 -26zM375 65c54 0 100.5 11.833 139.5 35.5s69 55.667 90 96s31.5 85.166 31.5 134.499c0 50 -10.5 95 -31.5 135
s-51 71.833 -90 95.5s-85.5 35.5 -139.5 35.5c-53.333 0 -99.666 -11.833 -138.999 -35.5s-69.5 -55.5 -90.5 -95.5s-31.5 -85 -31.5 -135c0 -49.333 10.5 -94.166 31.5 -134.499s51.167 -72.333 90.5 -96s85.666 -35.5 138.999 -35.5zM234 725l98 105h87l97 -105h-82
l-59 54l-59 -54h-82z" />
    <glyph glyph-name="Otilde" unicode="&#xd5;" horiz-adv-x="750" 
d="M375 -8c-50 0 -95.667 8.66699 -137 26s-76.833 41.666 -106.5 72.999s-52.5 67.5 -68.5 108.5s-24 84.833 -24 131.5c0 47.333 8 91.333 24 132s38.833 76.667 68.5 108s65.167 55.666 106.5 72.999s87 26 137 26s95.667 -8.66699 137 -26s76.833 -41.666 106.5 -72.999
s52.5 -67.333 68.5 -108s24 -84.667 24 -132c0 -46.667 -8 -90.5 -24 -131.5s-38.833 -77.167 -68.5 -108.5s-65.167 -55.666 -106.5 -72.999s-87 -26 -137 -26zM375 65c54 0 100.5 11.833 139.5 35.5s69 55.667 90 96s31.5 85.166 31.5 134.499c0 50 -10.5 95 -31.5 135
s-51 71.833 -90 95.5s-85.5 35.5 -139.5 35.5c-53.333 0 -99.666 -11.833 -138.999 -35.5s-69.5 -55.5 -90.5 -95.5s-31.5 -85 -31.5 -135c0 -49.333 10.5 -94.166 31.5 -134.499s51.167 -72.333 90.5 -96s85.666 -35.5 138.999 -35.5zM445 723
c-22 0 -40.1699 3.33301 -54.5029 10s-27.666 13.334 -39.999 20.001s-26.166 10 -41.499 10s-26.666 -4.33301 -33.999 -13s-12.666 -17.334 -15.999 -26.001h-31c3.33301 24.667 12.166 47.167 26.499 67.5s37.833 30.5 70.5 30.5c21.333 0 39.166 -3.33301 53.499 -10
s27.666 -13.5 39.999 -20.5s26.166 -10.5 41.499 -10.5c14.667 0 25.834 4.5 33.501 13.5s12.834 17.833 15.501 26.5h32c-3.33301 -24.667 -12.166 -47.167 -26.499 -67.5s-37.5 -30.5 -69.5 -30.5z" />
    <glyph glyph-name="Odieresis" unicode="&#xd6;" horiz-adv-x="750" 
d="M375 -8c-50 0 -95.667 8.66699 -137 26s-76.833 41.666 -106.5 72.999s-52.5 67.5 -68.5 108.5s-24 84.833 -24 131.5c0 47.333 8 91.333 24 132s38.833 76.667 68.5 108s65.167 55.666 106.5 72.999s87 26 137 26s95.667 -8.66699 137 -26s76.833 -41.666 106.5 -72.999
s52.5 -67.333 68.5 -108s24 -84.667 24 -132c0 -46.667 -8 -90.5 -24 -131.5s-38.833 -77.167 -68.5 -108.5s-65.167 -55.666 -106.5 -72.999s-87 -26 -137 -26zM375 65c54 0 100.5 11.833 139.5 35.5s69 55.667 90 96s31.5 85.166 31.5 134.499c0 50 -10.5 95 -31.5 135
s-51 71.833 -90 95.5s-85.5 35.5 -139.5 35.5c-53.333 0 -99.666 -11.833 -138.999 -35.5s-69.5 -55.5 -90.5 -95.5s-31.5 -85 -31.5 -135c0 -49.333 10.5 -94.166 31.5 -134.499s51.167 -72.333 90.5 -96s85.666 -35.5 138.999 -35.5zM252 730v83h89v-83h-89zM409 730v83
h89v-83h-89z" />
    <glyph glyph-name="multiply" unicode="&#xd7;" horiz-adv-x="550" 
d="M122 54l-50 50l154 153l-154 154l50 49l153 -153l154 153l49 -49l-153 -154l153 -153l-49 -50l-154 154z" />
    <glyph glyph-name="Oslash" unicode="&#xd8;" horiz-adv-x="750" 
d="M122 -40l53.999 93c-43.333 30.667 -77 70.167 -101 118.5s-36 101.5 -36 159.5c0 47.333 8 91.333 24 132s38.833 76.667 68.5 108s65.167 55.666 106.5 72.999s87 26 137 26c25.333 0 49.833 -2.33301 73.5 -7s45.834 -11.667 66.501 -21l33 58h74l-51 -89
c44 -30 78.333 -69.5 103 -118.5s37 -102.833 37 -161.5c0 -46.667 -8 -90.5 -24 -131.5s-38.833 -77.167 -68.5 -108.5s-65.167 -55.666 -106.5 -72.999s-87 -26 -137 -26c-26.667 0 -52 2.5 -76 7.5s-46.667 12.167 -68 21.5l-35 -61h-74zM113.999 331
c0 -44.667 8.49805 -85.5 25.498 -122.5s41.167 -67.5 72.5 -91.5l266 462c-31.333 12 -65.666 18 -102.999 18c-53.333 0 -99.666 -11.833 -138.999 -35.5s-69.5 -55.5 -90.5 -95.5s-31.5 -85 -31.5 -135zM374.997 65c54 0 100.5 11.834 139.5 35.501s69 55.667 90 96
s31.5 85.166 31.5 134.499c0 45.333 -8.83301 86.833 -26.5 124.5s-42.834 68.5 -75.501 92.5l-266 -463c32.667 -13.333 68.334 -20 107.001 -20z" />
    <glyph glyph-name="Ugrave" unicode="&#xd9;" horiz-adv-x="709" 
d="M354 -8c-54.667 0 -103.169 12.167 -145.502 36.5s-75.5 58.5 -99.5 102.5s-36 95.333 -36 154v377h75v-379c0 -51.333 9.83301 -93 29.5 -125s45.334 -55.5 77.001 -70.5s64.834 -22.5 99.501 -22.5c35.333 0 68.666 7.5 99.999 22.5s57 38.5 77 70.5s30 73.667 30 125
v379h75v-377c0 -58 -12 -109 -36 -153s-57.167 -78.333 -99.5 -103s-91.166 -37 -146.499 -37zM327.998 725l-107 105h107l61 -105h-61z" />
    <glyph glyph-name="Uacute" unicode="&#xda;" horiz-adv-x="709" 
d="M354 -8c-54.667 0 -103.169 12.167 -145.502 36.5s-75.5 58.5 -99.5 102.5s-36 95.333 -36 154v377h75v-379c0 -51.333 9.83301 -93 29.5 -125s45.334 -55.5 77.001 -70.5s64.834 -22.5 99.501 -22.5c35.333 0 68.666 7.5 99.999 22.5s57 38.5 77 70.5s30 73.667 30 125
v379h75v-377c0 -58 -12 -109 -36 -153s-57.167 -78.333 -99.5 -103s-91.166 -37 -146.499 -37zM320.998 725l61 105h107l-107 -105h-61z" />
    <glyph glyph-name="Ucircumflex" unicode="&#xdb;" horiz-adv-x="709" 
d="M354 -8c-54.667 0 -103.169 12.167 -145.502 36.5s-75.5 58.5 -99.5 102.5s-36 95.333 -36 154v377h75v-379c0 -51.333 9.83301 -93 29.5 -125s45.334 -55.5 77.001 -70.5s64.834 -22.5 99.501 -22.5c35.333 0 68.666 7.5 99.999 22.5s57 38.5 77 70.5s30 73.667 30 125
v379h75v-377c0 -58 -12 -109 -36 -153s-57.167 -78.333 -99.5 -103s-91.166 -37 -146.499 -37zM213.998 725l98 105h87l97 -105h-82l-59 54l-59 -54h-82z" />
    <glyph glyph-name="Udieresis" unicode="&#xdc;" horiz-adv-x="709" 
d="M354 -8c-54.667 0 -103.169 12.167 -145.502 36.5s-75.5 58.5 -99.5 102.5s-36 95.333 -36 154v377h75v-379c0 -51.333 9.83301 -93 29.5 -125s45.334 -55.5 77.001 -70.5s64.834 -22.5 99.501 -22.5c35.333 0 68.666 7.5 99.999 22.5s57 38.5 77 70.5s30 73.667 30 125
v379h75v-377c0 -58 -12 -109 -36 -153s-57.167 -78.333 -99.5 -103s-91.166 -37 -146.499 -37zM231.998 730v83h89v-83h-89zM388.998 730v83h89v-83h-89z" />
    <glyph glyph-name="Yacute" unicode="&#xdd;" horiz-adv-x="636" 
d="M281 0v262l-278 400h91l224 -322l224 322h91l-277 -400v-262h-75zM285 725l61 105h107l-107 -105h-61z" />
    <glyph glyph-name="Thorn" unicode="&#xde;" horiz-adv-x="628" 
d="M81 0v661.998h75v-97h223c70.667 0 126.334 -19.167 167.001 -57.5s61 -90.166 61 -155.499s-20.333 -117.166 -61 -155.499s-96.334 -57.5 -167.001 -57.5h-223v-139h-75zM156 208.998h218c52 0 91.333 12.667 118 38s40 60.333 40 105c0 44 -13.333 78.667 -40 104
s-66 38 -118 38h-218v-285z" />
    <glyph glyph-name="germandbls" unicode="&#xdf;" horiz-adv-x="557" 
d="M65 0l0.00292969 514.005c0 60.667 19 108.167 57 142.5s90.333 51.5 157 51.5c36.667 0 71 -6.33301 103 -19s57.833 -33 77.5 -61s29.5 -64.667 29.5 -110c0 -34 -5.5 -61.833 -16.5 -83.5s-24.833 -38.5 -41.5 -50.5s-33.334 -21 -50.001 -27
c19.333 -4.66699 40 -13.667 62 -27s40.833 -32.5 56.5 -57.5s23.5 -57.5 23.5 -97.5c0 -56 -20.5 -99.167 -61.5 -129.5s-97.167 -45.5 -168.5 -45.5h-88v66h89c45.333 0 82.166 9.66699 110.499 29s42.5 49.666 42.5 90.999s-16.833 74.666 -50.5 99.999
s-81.5 38 -143.5 38v55c45.333 0 83.5 11.5 114.5 34.5s46.5 54.833 46.5 95.5c0 41.333 -11.167 73.666 -33.5 96.999s-56.5 35 -102.5 35c-26.667 0 -50.334 -3.83301 -71.001 -11.5s-37 -20.834 -49 -39.501s-18 -45.334 -18 -80.001v-510h-75z" />
    <glyph glyph-name="agrave" unicode="&#xe0;" horiz-adv-x="595" 
d="M276 -8c-48.667 0 -91.167 11.501 -127.5 34.501s-64.5 54.167 -84.5 93.5s-30 82.666 -30 129.999c0 48 10 91.5 30 130.5s48.167 70 84.5 93s78.833 34.5 127.5 34.5c41.333 0 76.833 -8 106.5 -24s53.834 -37.667 72.501 -65v81h75v-500h-75v80
c-18.667 -26.667 -42.834 -48 -72.501 -64s-65.167 -24 -106.5 -24zM286 60.001c37.333 0 68.833 8.66699 94.5 26s45.167 40.5 58.5 69.5s20 60.5 20 94.5c0 34.667 -6.66699 66.334 -20 95.001s-32.833 51.667 -58.5 69s-57.167 26 -94.5 26
c-36.667 0 -68.334 -8.66699 -95.001 -26s-47 -40.333 -61 -69s-21 -60.334 -21 -95.001c0 -34 7 -65.5 21 -94.5s34.333 -52.167 61 -69.5s58.334 -26 95.001 -26zM321 570.001l-107 105h107l61 -105h-61z" />
    <glyph glyph-name="aacute" unicode="&#xe1;" horiz-adv-x="595" 
d="M276 -8c-48.667 0 -91.167 11.501 -127.5 34.501s-64.5 54.167 -84.5 93.5s-30 82.666 -30 129.999c0 48 10 91.5 30 130.5s48.167 70 84.5 93s78.833 34.5 127.5 34.5c41.333 0 76.833 -8 106.5 -24s53.834 -37.667 72.501 -65v81h75v-500h-75v80
c-18.667 -26.667 -42.834 -48 -72.501 -64s-65.167 -24 -106.5 -24zM286 60.001c37.333 0 68.833 8.66699 94.5 26s45.167 40.5 58.5 69.5s20 60.5 20 94.5c0 34.667 -6.66699 66.334 -20 95.001s-32.833 51.667 -58.5 69s-57.167 26 -94.5 26
c-36.667 0 -68.334 -8.66699 -95.001 -26s-47 -40.333 -61 -69s-21 -60.334 -21 -95.001c0 -34 7 -65.5 21 -94.5s34.333 -52.167 61 -69.5s58.334 -26 95.001 -26zM244 570.001l61 105h107l-107 -105h-61z" />
    <glyph glyph-name="acircumflex" unicode="&#xe2;" horiz-adv-x="595" 
d="M276 -8c-48.667 0 -91.167 11.501 -127.5 34.501s-64.5 54.167 -84.5 93.5s-30 82.666 -30 129.999c0 48 10 91.5 30 130.5s48.167 70 84.5 93s78.833 34.5 127.5 34.5c41.333 0 76.833 -8 106.5 -24s53.834 -37.667 72.501 -65v81h75v-500h-75v80
c-18.667 -26.667 -42.834 -48 -72.501 -64s-65.167 -24 -106.5 -24zM286 60.001c37.333 0 68.833 8.66699 94.5 26s45.167 40.5 58.5 69.5s20 60.5 20 94.5c0 34.667 -6.66699 66.334 -20 95.001s-32.833 51.667 -58.5 69s-57.167 26 -94.5 26
c-36.667 0 -68.334 -8.66699 -95.001 -26s-47 -40.333 -61 -69s-21 -60.334 -21 -95.001c0 -34 7 -65.5 21 -94.5s34.333 -52.167 61 -69.5s58.334 -26 95.001 -26zM157 570.001l98 105h87l97 -105h-82l-59 54l-59 -54h-82z" />
    <glyph glyph-name="atilde" unicode="&#xe3;" horiz-adv-x="595" 
d="M276 -8c-48.667 0 -91.167 11.501 -127.5 34.501s-64.5 54.167 -84.5 93.5s-30 82.666 -30 129.999c0 48 10 91.5 30 130.5s48.167 70 84.5 93s78.833 34.5 127.5 34.5c41.333 0 76.833 -8 106.5 -24s53.834 -37.667 72.501 -65v81h75v-500h-75v80
c-18.667 -26.667 -42.834 -48 -72.501 -64s-65.167 -24 -106.5 -24zM286 60.001c37.333 0 68.833 8.66699 94.5 26s45.167 40.5 58.5 69.5s20 60.5 20 94.5c0 34.667 -6.66699 66.334 -20 95.001s-32.833 51.667 -58.5 69s-57.167 26 -94.5 26
c-36.667 0 -68.334 -8.66699 -95.001 -26s-47 -40.333 -61 -69s-21 -60.334 -21 -95.001c0 -34 7 -65.5 21 -94.5s34.333 -52.167 61 -69.5s58.334 -26 95.001 -26zM359 569.001c-22 0 -40.1699 3.33301 -54.5029 10s-27.666 13.334 -39.999 20.001s-26.166 10 -41.499 10
s-26.666 -4.33301 -33.999 -13s-12.666 -17.334 -15.999 -26.001h-31c3.33301 24.667 12.166 47.167 26.499 67.5s37.833 30.5 70.5 30.5c21.333 0 39.166 -3.33301 53.499 -10s27.666 -13.5 39.999 -20.5s26.166 -10.5 41.499 -10.5c14.667 0 25.834 4.5 33.501 13.5
s12.834 17.833 15.501 26.5h32c-3.33301 -24.667 -12.166 -47.167 -26.499 -67.5s-37.5 -30.5 -69.5 -30.5z" />
    <glyph glyph-name="adieresis" unicode="&#xe4;" horiz-adv-x="595" 
d="M276 -8c-48.667 0 -91.167 11.501 -127.5 34.501s-64.5 54.167 -84.5 93.5s-30 82.666 -30 129.999c0 48 10 91.5 30 130.5s48.167 70 84.5 93s78.833 34.5 127.5 34.5c41.333 0 76.833 -8 106.5 -24s53.834 -37.667 72.501 -65v81h75v-500h-75v80
c-18.667 -26.667 -42.834 -48 -72.501 -64s-65.167 -24 -106.5 -24zM286 60.001c37.333 0 68.833 8.66699 94.5 26s45.167 40.5 58.5 69.5s20 60.5 20 94.5c0 34.667 -6.66699 66.334 -20 95.001s-32.833 51.667 -58.5 69s-57.167 26 -94.5 26
c-36.667 0 -68.334 -8.66699 -95.001 -26s-47 -40.333 -61 -69s-21 -60.334 -21 -95.001c0 -34 7 -65.5 21 -94.5s34.333 -52.167 61 -69.5s58.334 -26 95.001 -26zM176 579.001v83h89v-83h-89zM333 579.001v83h89v-83h-89z" />
    <glyph glyph-name="aring" unicode="&#xe5;" horiz-adv-x="595" 
d="M276 -8c-48.667 0 -91.167 11.501 -127.5 34.501s-64.5 54.167 -84.5 93.5s-30 82.666 -30 129.999c0 48 10 91.5 30 130.5s48.167 70 84.5 93s78.833 34.5 127.5 34.5c41.333 0 76.833 -8 106.5 -24s53.834 -37.667 72.501 -65v81h75v-500h-75v80
c-18.667 -26.667 -42.834 -48 -72.501 -64s-65.167 -24 -106.5 -24zM286 60.001c37.333 0 68.833 8.66699 94.5 26s45.167 40.5 58.5 69.5s20 60.5 20 94.5c0 34.667 -6.66699 66.334 -20 95.001s-32.833 51.667 -58.5 69s-57.167 26 -94.5 26
c-36.667 0 -68.334 -8.66699 -95.001 -26s-47 -40.333 -61 -69s-21 -60.334 -21 -95.001c0 -34 7 -65.5 21 -94.5s34.333 -52.167 61 -69.5s58.334 -26 95.001 -26zM297 556.001c-24.667 0 -45.667 8.66699 -63 26s-26 38.333 -26 63c0 25.333 8.66699 46.666 26 63.999
s38.333 26 63 26c25.333 0 46.833 -8.66699 64.5 -26s26.5 -38.666 26.5 -63.999c0 -24.667 -8.83301 -45.667 -26.5 -63s-39.167 -26 -64.5 -26zM297 601.001c12.667 0 23.334 4.33301 32.001 13s13 19 13 31c0 12.667 -4.33301 23.334 -13 32.001s-19.334 13 -32.001 13
c-11.333 0 -21.333 -4.33301 -30 -13s-13 -19.334 -13 -32.001c0 -12 4.33301 -22.333 13 -31s18.667 -13 30 -13z" />
    <glyph glyph-name="ae" unicode="&#xe6;" horiz-adv-x="977" 
d="M276 -8c-48.667 0 -91.168 11.5 -127.501 34.5s-64.5 54.167 -84.5 93.5s-30 82.666 -30 129.999c0 48 10 91.5 30 130.5s48.167 70 84.5 93s78.833 34.5 127.5 34.5c41.333 0 76.833 -8 106.5 -24s53.834 -37.667 72.501 -65v81h75v-72c18 24.667 41.333 44.167 70 58.5
s62.667 21.5 102 21.5c51.333 0 95.5 -11.5 132.5 -34.5s65.5 -54 85.5 -93s30 -82.5 30 -130.5v-30h-419c4 -29.333 13.333 -56.166 28 -80.499s34.667 -43.666 60 -57.999s55 -21.5 89 -21.5c37.333 0 68.333 9 93 27s43.334 41.333 56.001 70h80
c-16 -48.667 -44.5 -88.334 -85.5 -119.001s-90.833 -46 -149.5 -46c-39.333 0 -73.333 7 -102 21s-52 33.333 -70 58v-71h-75v80c-18.667 -26.667 -42.834 -48 -72.501 -64s-65.167 -24 -106.5 -24zM285.999 60c37.333 0 68.833 8.66699 94.5 26s45.167 40.5 58.5 69.5
s20 60.5 20 94.5c0 34.667 -6.66699 66.334 -20 95.001s-32.833 51.667 -58.5 69s-57.167 26 -94.5 26c-36.667 0 -68.334 -8.66699 -95.001 -26s-47 -40.333 -61 -69s-21 -60.334 -21 -95.001c0 -34 7 -65.5 21 -94.5s34.333 -52.167 61 -69.5s58.334 -26 95.001 -26z
M531.999 290h340c-6.66699 42.667 -24.667 78.334 -54 107.001s-68 43 -116 43s-86.5 -14.333 -115.5 -43s-47.167 -64.334 -54.5 -107.001z" />
    <glyph glyph-name="ccedilla" unicode="&#xe7;" horiz-adv-x="544" 
d="M290 60c35.333 0 65.498 9 90.498 27s43.167 41.333 54.5 70h81c-13.333 -46 -39.166 -84 -77.499 -114s-84.833 -46.667 -139.5 -50l-24 -43c8 1.33301 15.333 2 22 2c25.333 0 47 -6.83301 65 -20.5s27 -32.5 27 -56.5c0 -28 -11.333 -48.5 -34 -61.5
s-49.334 -19.5 -80.001 -19.5c-25.333 0 -48.166 4.16699 -68.499 12.5s-36.833 17.833 -49.5 28.5l19 33c10.667 -7.33301 23 -14.166 37 -20.499s30 -9.5 48 -9.5c15.333 0 28.333 2.66699 39 8s16 14.666 16 27.999c0 10 -5.33301 18 -16 24s-23 9 -37 9
c-12 0 -23.667 -1.66699 -35 -5l-21 17l47 74c-44.667 4 -83.5 17.833 -116.5 41.5s-58.5 54.334 -76.5 92.001s-27 78.834 -27 123.501c0 48 10.167 91.5 30.5 130.5s48.833 70 85.5 93s80 34.5 130 34.5c59.333 0 109.833 -15.333 151.5 -46
s69.834 -70.334 84.501 -119.001h-81c-11.333 28.667 -29.5 52 -54.5 70s-55.167 27 -90.5 27c-36.667 0 -68.667 -8.66699 -96 -26s-48.333 -40.333 -63 -69s-22 -60.334 -22 -95.001c0 -34 7.33301 -65.5 22 -94.5s35.667 -52.167 63 -69.5s59.333 -26 96 -26z" />
    <glyph glyph-name="egrave" unicode="&#xe8;" horiz-adv-x="557" 
d="M287 -8c-50.667 0 -94.999 11.498 -132.999 34.498s-67.5 54.167 -88.5 93.5s-31.5 82.666 -31.5 129.999c0 48 10 91.5 30 130.5s48.667 70 86 93s81.333 34.5 132 34.5c51.333 0 95.5 -11.5 132.5 -34.5s65.5 -54 85.5 -93s30 -82.5 30 -130.5v-30h-419
c4 -29.333 13.5 -56.166 28.5 -80.499s35.167 -43.666 60.5 -57.999s54.666 -21.5 87.999 -21.5c35.333 0 65 7.83301 89 23.5s42.667 35.834 56 60.501h82c-17.333 -44.667 -44.833 -81.167 -82.5 -109.5s-86.167 -42.5 -145.5 -42.5zM112.001 289.998h340
c-6.66699 42.667 -24.667 78.334 -54 107.001s-68 43 -116 43s-86.5 -14.333 -115.5 -43s-47.167 -64.334 -54.5 -107.001zM302.001 569.998l-107 105h107l61 -105h-61z" />
    <glyph glyph-name="eacute" unicode="&#xe9;" horiz-adv-x="557" 
d="M287 -8c-50.667 0 -94.999 11.498 -132.999 34.498s-67.5 54.167 -88.5 93.5s-31.5 82.666 -31.5 129.999c0 48 10 91.5 30 130.5s48.667 70 86 93s81.333 34.5 132 34.5c51.333 0 95.5 -11.5 132.5 -34.5s65.5 -54 85.5 -93s30 -82.5 30 -130.5v-30h-419
c4 -29.333 13.5 -56.166 28.5 -80.499s35.167 -43.666 60.5 -57.999s54.666 -21.5 87.999 -21.5c35.333 0 65 7.83301 89 23.5s42.667 35.834 56 60.501h82c-17.333 -44.667 -44.833 -81.167 -82.5 -109.5s-86.167 -42.5 -145.5 -42.5zM112.001 289.998h340
c-6.66699 42.667 -24.667 78.334 -54 107.001s-68 43 -116 43s-86.5 -14.333 -115.5 -43s-47.167 -64.334 -54.5 -107.001zM225.001 569.998l61 105h107l-107 -105h-61z" />
    <glyph glyph-name="ecircumflex" unicode="&#xea;" horiz-adv-x="557" 
d="M287 -8c-50.667 0 -94.999 11.498 -132.999 34.498s-67.5 54.167 -88.5 93.5s-31.5 82.666 -31.5 129.999c0 48 10 91.5 30 130.5s48.667 70 86 93s81.333 34.5 132 34.5c51.333 0 95.5 -11.5 132.5 -34.5s65.5 -54 85.5 -93s30 -82.5 30 -130.5v-30h-419
c4 -29.333 13.5 -56.166 28.5 -80.499s35.167 -43.666 60.5 -57.999s54.666 -21.5 87.999 -21.5c35.333 0 65 7.83301 89 23.5s42.667 35.834 56 60.501h82c-17.333 -44.667 -44.833 -81.167 -82.5 -109.5s-86.167 -42.5 -145.5 -42.5zM112.001 289.998h340
c-6.66699 42.667 -24.667 78.334 -54 107.001s-68 43 -116 43s-86.5 -14.333 -115.5 -43s-47.167 -64.334 -54.5 -107.001zM138.001 569.998l98 105h87l97 -105h-82l-59 54l-59 -54h-82z" />
    <glyph glyph-name="edieresis" unicode="&#xeb;" horiz-adv-x="557" 
d="M287 -8c-50.667 0 -94.999 11.498 -132.999 34.498s-67.5 54.167 -88.5 93.5s-31.5 82.666 -31.5 129.999c0 48 10 91.5 30 130.5s48.667 70 86 93s81.333 34.5 132 34.5c51.333 0 95.5 -11.5 132.5 -34.5s65.5 -54 85.5 -93s30 -82.5 30 -130.5v-30h-419
c4 -29.333 13.5 -56.166 28.5 -80.499s35.167 -43.666 60.5 -57.999s54.666 -21.5 87.999 -21.5c35.333 0 65 7.83301 89 23.5s42.667 35.834 56 60.501h82c-17.333 -44.667 -44.833 -81.167 -82.5 -109.5s-86.167 -42.5 -145.5 -42.5zM112.001 289.998h340
c-6.66699 42.667 -24.667 78.334 -54 107.001s-68 43 -116 43s-86.5 -14.333 -115.5 -43s-47.167 -64.334 -54.5 -107.001zM157.001 578.998v83h89v-83h-89zM314.001 578.998v83h89v-83h-89z" />
    <glyph glyph-name="igrave" unicode="&#xec;" horiz-adv-x="205" 
d="M65 0v500h75v-500h-75zM126 570l-107 105h107l61 -105h-61z" />
    <glyph glyph-name="iacute" unicode="&#xed;" horiz-adv-x="205" 
d="M65 0v500h75v-500h-75zM49 570l61 105h107l-107 -105h-61z" />
    <glyph glyph-name="icircumflex" unicode="&#xee;" horiz-adv-x="205" 
d="M65 0v500h75v-500h-75zM-38 570l98 105h87l97 -105h-82l-59 54l-59 -54h-82z" />
    <glyph glyph-name="idieresis" unicode="&#xef;" horiz-adv-x="205" 
d="M65 0v500h75v-500h-75zM-19 579v83h89v-83h-89zM138 579v83h89v-83h-89z" />
    <glyph glyph-name="eth" unicode="&#xf0;" horiz-adv-x="563" 
d="M286 -8c-54.667 0 -100.833 11.999 -138.5 35.999s-66 55.833 -85 95.5s-28.5 82.834 -28.5 129.501c0 48 9.33301 91.667 28 131s45.167 70.833 79.5 94.5s74.833 35.5 121.5 35.5c31.333 0 59.333 -5.16699 84 -15.5s45.334 -24.833 62.001 -43.5
c-15.333 30.667 -35.333 55.667 -60 75s-48.334 36.666 -71.001 51.999l-56 -37l-32 38l43 28l-31.5 17.5c-10.333 5.66699 -21.166 10.834 -32.499 15.501l27 71c35.333 -16.667 70 -36.334 104 -59.001l75 50l32 -38l-65 -43c36 -28 68.167 -58.667 96.5 -92
s50.666 -71.333 66.999 -114s24.5 -92.667 24.5 -150c0 -35.333 -5.5 -69.5 -16.5 -102.5s-27 -62.667 -48 -89s-46.5 -47.166 -76.5 -62.499s-64.333 -23 -103 -23zM282.001 58.999c37.333 0 68.834 9.16602 94.501 27.499s45.167 42.166 58.5 71.499s20 61 20 95
s-7.33301 65.833 -22 95.5s-35.5 53.5 -62.5 71.5s-59.167 27 -96.5 27c-35.333 0 -65.333 -8.83301 -90 -26.5s-43.334 -41.167 -56.001 -70.5s-19 -61.666 -19 -96.999c0 -34 6.66699 -65.667 20 -95s33 -53.166 59 -71.499s57.333 -27.5 94 -27.5z" />
    <glyph glyph-name="ntilde" unicode="&#xf1;" horiz-adv-x="566" 
d="M65 0l0.000976562 499.998h75v-78c18 24 40 44.333 66 61s59.333 25 100 25c34.667 0 67.167 -8.16699 97.5 -24.5s55 -40.666 74 -72.999s28.5 -72.166 28.5 -119.499v-291h-75v289c0 45.333 -13 81.833 -39 109.5s-59.667 41.5 -101 41.5
c-28 0 -53.333 -6.33301 -76 -19s-40.834 -30.5 -54.501 -53.5s-20.5 -49.5 -20.5 -79.5v-288h-75zM344.001 568.998c-22 0 -40.1699 3.33301 -54.5029 10s-27.666 13.334 -39.999 20.001s-26.166 10 -41.499 10s-26.666 -4.33301 -33.999 -13
s-12.666 -17.334 -15.999 -26.001h-31c3.33301 24.667 12.166 47.167 26.499 67.5s37.833 30.5 70.5 30.5c21.333 0 39.166 -3.33301 53.499 -10s27.666 -13.5 39.999 -20.5s26.166 -10.5 41.499 -10.5c14.667 0 25.834 4.5 33.501 13.5s12.834 17.833 15.501 26.5h32
c-3.33301 -24.667 -12.166 -47.167 -26.499 -67.5s-37.5 -30.5 -69.5 -30.5z" />
    <glyph glyph-name="ograve" unicode="&#xf2;" horiz-adv-x="564" 
d="M282 -8c-50.667 0 -94.667 11.5 -132 34.5s-66 54.167 -86 93.5s-30 82.666 -30 129.999c0 48 10 91.5 30 130.5s48.667 70 86 93s81.333 34.5 132 34.5c51.333 0 95.5 -11.5 132.5 -34.5s65.5 -54 85.5 -93s30 -82.5 30 -130.5c0 -47.333 -10 -90.666 -30 -129.999
s-48.5 -70.5 -85.5 -93.5s-81.167 -34.5 -132.5 -34.5zM282 60c37.333 0 68.833 8.66699 94.5 26s45.167 40.5 58.5 69.5s20 60.5 20 94.5c0 34.667 -6.66699 66.334 -20 95.001s-32.833 51.667 -58.5 69s-57.167 26 -94.5 26c-36.667 0 -68 -8.66699 -94 -26
s-45.667 -40.333 -59 -69s-20 -60.334 -20 -95.001c0 -34 6.66699 -65.5 20 -94.5s33 -52.167 59 -69.5s57.333 -26 94 -26zM305 570l-107 105h107l61 -105h-61z" />
    <glyph glyph-name="oacute" unicode="&#xf3;" horiz-adv-x="564" 
d="M282 -8c-50.667 0 -94.667 11.5 -132 34.5s-66 54.167 -86 93.5s-30 82.666 -30 129.999c0 48 10 91.5 30 130.5s48.667 70 86 93s81.333 34.5 132 34.5c51.333 0 95.5 -11.5 132.5 -34.5s65.5 -54 85.5 -93s30 -82.5 30 -130.5c0 -47.333 -10 -90.666 -30 -129.999
s-48.5 -70.5 -85.5 -93.5s-81.167 -34.5 -132.5 -34.5zM282 60c37.333 0 68.833 8.66699 94.5 26s45.167 40.5 58.5 69.5s20 60.5 20 94.5c0 34.667 -6.66699 66.334 -20 95.001s-32.833 51.667 -58.5 69s-57.167 26 -94.5 26c-36.667 0 -68 -8.66699 -94 -26
s-45.667 -40.333 -59 -69s-20 -60.334 -20 -95.001c0 -34 6.66699 -65.5 20 -94.5s33 -52.167 59 -69.5s57.333 -26 94 -26zM228 570l61 105h107l-107 -105h-61z" />
    <glyph glyph-name="ocircumflex" unicode="&#xf4;" horiz-adv-x="564" 
d="M282 -8c-50.667 0 -94.667 11.5 -132 34.5s-66 54.167 -86 93.5s-30 82.666 -30 129.999c0 48 10 91.5 30 130.5s48.667 70 86 93s81.333 34.5 132 34.5c51.333 0 95.5 -11.5 132.5 -34.5s65.5 -54 85.5 -93s30 -82.5 30 -130.5c0 -47.333 -10 -90.666 -30 -129.999
s-48.5 -70.5 -85.5 -93.5s-81.167 -34.5 -132.5 -34.5zM282 60c37.333 0 68.833 8.66699 94.5 26s45.167 40.5 58.5 69.5s20 60.5 20 94.5c0 34.667 -6.66699 66.334 -20 95.001s-32.833 51.667 -58.5 69s-57.167 26 -94.5 26c-36.667 0 -68 -8.66699 -94 -26
s-45.667 -40.333 -59 -69s-20 -60.334 -20 -95.001c0 -34 6.66699 -65.5 20 -94.5s33 -52.167 59 -69.5s57.333 -26 94 -26zM141 570l98 105h87l97 -105h-82l-59 54l-59 -54h-82z" />
    <glyph glyph-name="otilde" unicode="&#xf5;" horiz-adv-x="564" 
d="M282 -8c-50.667 0 -94.667 11.5 -132 34.5s-66 54.167 -86 93.5s-30 82.666 -30 129.999c0 48 10 91.5 30 130.5s48.667 70 86 93s81.333 34.5 132 34.5c51.333 0 95.5 -11.5 132.5 -34.5s65.5 -54 85.5 -93s30 -82.5 30 -130.5c0 -47.333 -10 -90.666 -30 -129.999
s-48.5 -70.5 -85.5 -93.5s-81.167 -34.5 -132.5 -34.5zM282 60c37.333 0 68.833 8.66699 94.5 26s45.167 40.5 58.5 69.5s20 60.5 20 94.5c0 34.667 -6.66699 66.334 -20 95.001s-32.833 51.667 -58.5 69s-57.167 26 -94.5 26c-36.667 0 -68 -8.66699 -94 -26
s-45.667 -40.333 -59 -69s-20 -60.334 -20 -95.001c0 -34 6.66699 -65.5 20 -94.5s33 -52.167 59 -69.5s57.333 -26 94 -26zM343 569c-22 0 -40.1699 3.33301 -54.5029 10s-27.666 13.334 -39.999 20.001s-26.166 10 -41.499 10s-26.666 -4.33301 -33.999 -13
s-12.666 -17.334 -15.999 -26.001h-31c3.33301 24.667 12.166 47.167 26.499 67.5s37.833 30.5 70.5 30.5c21.333 0 39.166 -3.33301 53.499 -10s27.666 -13.5 39.999 -20.5s26.166 -10.5 41.499 -10.5c14.667 0 25.834 4.5 33.501 13.5s12.834 17.833 15.501 26.5h32
c-3.33301 -24.667 -12.166 -47.167 -26.499 -67.5s-37.5 -30.5 -69.5 -30.5z" />
    <glyph glyph-name="odieresis" unicode="&#xf6;" horiz-adv-x="564" 
d="M282 -8c-50.667 0 -94.667 11.5 -132 34.5s-66 54.167 -86 93.5s-30 82.666 -30 129.999c0 48 10 91.5 30 130.5s48.667 70 86 93s81.333 34.5 132 34.5c51.333 0 95.5 -11.5 132.5 -34.5s65.5 -54 85.5 -93s30 -82.5 30 -130.5c0 -47.333 -10 -90.666 -30 -129.999
s-48.5 -70.5 -85.5 -93.5s-81.167 -34.5 -132.5 -34.5zM282 60c37.333 0 68.833 8.66699 94.5 26s45.167 40.5 58.5 69.5s20 60.5 20 94.5c0 34.667 -6.66699 66.334 -20 95.001s-32.833 51.667 -58.5 69s-57.167 26 -94.5 26c-36.667 0 -68 -8.66699 -94 -26
s-45.667 -40.333 -59 -69s-20 -60.334 -20 -95.001c0 -34 6.66699 -65.5 20 -94.5s33 -52.167 59 -69.5s57.333 -26 94 -26zM160 579v83h89v-83h-89zM317 579v83h89v-83h-89z" />
    <glyph glyph-name="divide" unicode="&#xf7;" horiz-adv-x="550" 
d="M231 359v93h88v-93h-88zM38 200v69h474v-69h-474zM231 17v93h88v-93h-88z" />
    <glyph glyph-name="oslash" unicode="&#xf8;" horiz-adv-x="564" 
d="M96 -16l32.999 56.9971c-30.667 23.333 -54.167 53.333 -70.5 90s-24.5 76.334 -24.5 119.001c0 48 10 91.5 30 130.5s48.667 70 86 93s81.333 34.5 132 34.5c37.333 0 72 -6.66699 104 -20l21 37h74l-41 -71c28.667 -23.333 50.834 -52.666 66.501 -87.999
s23.5 -74 23.5 -116c0 -47.333 -10 -90.666 -30 -129.999s-48.5 -70.5 -85.5 -93.5s-81.167 -34.5 -132.5 -34.5c-34.667 0 -67 6 -97 18l-15 -26h-74zM108.999 249.997c0 -28.667 4.83301 -55.666 14.5 -80.999s23.5 -47 41.5 -65l186 323
c-21.333 8.66699 -44.333 13 -69 13c-36.667 0 -68 -8.66699 -94 -26s-45.667 -40.333 -59 -69s-20 -60.334 -20 -95.001zM281.999 59.998c37.333 0 68.833 8.66699 94.5 26s45.167 40.333 58.5 69s20 60.334 20 95.001c0 27.333 -4.33301 53.166 -13 77.499
s-21.334 45.5 -38.001 63.5l-184 -321c18.667 -6.66699 39.334 -10 62.001 -10z" />
    <glyph glyph-name="ugrave" unicode="&#xf9;" horiz-adv-x="566" 
d="M260 -8c-34 0 -66.334 8.16895 -97.001 24.502s-55.5 40.666 -74.5 72.999s-28.5 72.166 -28.5 119.499v291h75v-289c0 -45.333 13.167 -81.833 39.5 -109.5s59.833 -41.5 100.5 -41.5c28 0 53.333 6.5 76 19.5s40.834 30.833 54.501 53.5s20.5 49 20.5 79v288h75v-500
h-75v78c-18 -24 -40 -44.333 -66 -61s-59.333 -25 -100 -25zM305.999 570.002l-107 105h107l61 -105h-61z" />
    <glyph glyph-name="uacute" unicode="&#xfa;" horiz-adv-x="566" 
d="M260 -8c-34 0 -66.334 8.16895 -97.001 24.502s-55.5 40.666 -74.5 72.999s-28.5 72.166 -28.5 119.499v291h75v-289c0 -45.333 13.167 -81.833 39.5 -109.5s59.833 -41.5 100.5 -41.5c28 0 53.333 6.5 76 19.5s40.834 30.833 54.501 53.5s20.5 49 20.5 79v288h75v-500
h-75v78c-18 -24 -40 -44.333 -66 -61s-59.333 -25 -100 -25zM228.999 570.002l61 105h107l-107 -105h-61z" />
    <glyph glyph-name="ucircumflex" unicode="&#xfb;" horiz-adv-x="566" 
d="M260 -8c-34 0 -66.334 8.16895 -97.001 24.502s-55.5 40.666 -74.5 72.999s-28.5 72.166 -28.5 119.499v291h75v-289c0 -45.333 13.167 -81.833 39.5 -109.5s59.833 -41.5 100.5 -41.5c28 0 53.333 6.5 76 19.5s40.834 30.833 54.501 53.5s20.5 49 20.5 79v288h75v-500
h-75v78c-18 -24 -40 -44.333 -66 -61s-59.333 -25 -100 -25zM141.999 570.002l98 105h87l97 -105h-82l-59 54l-59 -54h-82z" />
    <glyph glyph-name="udieresis" unicode="&#xfc;" horiz-adv-x="566" 
d="M260 -8c-34 0 -66.334 8.16895 -97.001 24.502s-55.5 40.666 -74.5 72.999s-28.5 72.166 -28.5 119.499v291h75v-289c0 -45.333 13.167 -81.833 39.5 -109.5s59.833 -41.5 100.5 -41.5c28 0 53.333 6.5 76 19.5s40.834 30.833 54.501 53.5s20.5 49 20.5 79v288h75v-500
h-75v78c-18 -24 -40 -44.333 -66 -61s-59.333 -25 -100 -25zM160.999 579.002v83h89v-83h-89zM317.999 579.002v83h89v-83h-89z" />
    <glyph glyph-name="yacute" unicode="&#xfd;" horiz-adv-x="497" 
d="M117 -198l91 205l-204 493h83l161 -410l164 410h82l-296 -698h-81zM195 570l61 105h107l-107 -105h-61z" />
    <glyph glyph-name="thorn" unicode="&#xfe;" horiz-adv-x="594" 
d="M65 -198v897.999h75v-281c18.667 27.333 42.834 49 72.501 65s65.167 24 106.5 24c48.667 0 91.167 -11.5 127.5 -34.5s64.5 -54 84.5 -93s30 -82.5 30 -130.5c0 -47.333 -10 -90.666 -30 -129.999s-48.167 -70.5 -84.5 -93.5s-78.833 -34.5 -127.5 -34.5
c-41.333 0 -76.833 8 -106.5 24s-53.834 37.333 -72.501 64v-278h-75zM309 59.999c37.333 0 69.166 8.66699 95.499 26s46.5 40.5 60.5 69.5s21 60.5 21 94.5c0 34.667 -7 66.334 -21 95.001s-34.167 51.667 -60.5 69s-58.166 26 -95.499 26c-36.667 0 -68 -8.66699 -94 -26
s-45.667 -40.333 -59 -69s-20 -60.334 -20 -95.001c0 -34 6.66699 -65.5 20 -94.5s33 -52.167 59 -69.5s57.333 -26 94 -26z" />
    <glyph glyph-name="ydieresis" unicode="&#xff;" horiz-adv-x="497" 
d="M117 -198l91 205l-204 493h83l161 -410l164 410h82l-296 -698h-81zM127 579v83h89v-83h-89zM284 579v83h89v-83h-89z" />
    <glyph glyph-name="Amacron" unicode="&#x100;" horiz-adv-x="662" 
d="M3 0l281 662h94l281 -662h-83l-81 192h-328l-81 -192h-83zM196 261h270l-135 323zM199 736v60h264v-60h-264z" />
    <glyph glyph-name="amacron" unicode="&#x101;" horiz-adv-x="595" 
d="M276 -8c-48.667 0 -91.167 11.501 -127.5 34.501s-64.5 54.167 -84.5 93.5s-30 82.666 -30 129.999c0 48 10 91.5 30 130.5s48.167 70 84.5 93s78.833 34.5 127.5 34.5c41.333 0 76.833 -8 106.5 -24s53.834 -37.667 72.501 -65v81h75v-500h-75v80
c-18.667 -26.667 -42.834 -48 -72.501 -64s-65.167 -24 -106.5 -24zM286 60.001c37.333 0 68.833 8.66699 94.5 26s45.167 40.5 58.5 69.5s20 60.5 20 94.5c0 34.667 -6.66699 66.334 -20 95.001s-32.833 51.667 -58.5 69s-57.167 26 -94.5 26
c-36.667 0 -68.334 -8.66699 -95.001 -26s-47 -40.333 -61 -69s-21 -60.334 -21 -95.001c0 -34 7 -65.5 21 -94.5s34.333 -52.167 61 -69.5s58.334 -26 95.001 -26zM166 584.001v60h264v-60h-264z" />
    <glyph glyph-name="Abreve" unicode="&#x102;" horiz-adv-x="662" 
d="M3 0l281 662h94l281 -662h-83l-81 192h-328l-81 -192h-83zM196 261h270l-135 323zM332 717c-32.667 0 -60.667 9.33398 -84 28.001s-35 41 -35 67c0 5.33301 0.666992 10.333 2 15l4 14h18c2 -18.667 12 -34.167 30 -46.5s39.667 -18.5 65 -18.5
c24.667 0 46 6.16699 64 18.5s28 27.833 30 46.5h18c4 -8.66699 6 -18.334 6 -29.001c0 -26 -11.5 -48.333 -34.5 -67s-50.833 -28 -83.5 -28z" />
    <glyph glyph-name="abreve" unicode="&#x103;" horiz-adv-x="595" 
d="M276 -8c-48.667 0 -91.167 11.501 -127.5 34.501s-64.5 54.167 -84.5 93.5s-30 82.666 -30 129.999c0 48 10 91.5 30 130.5s48.167 70 84.5 93s78.833 34.5 127.5 34.5c41.333 0 76.833 -8 106.5 -24s53.834 -37.667 72.501 -65v81h75v-500h-75v80
c-18.667 -26.667 -42.834 -48 -72.501 -64s-65.167 -24 -106.5 -24zM286 60.001c37.333 0 68.833 8.66699 94.5 26s45.167 40.5 58.5 69.5s20 60.5 20 94.5c0 34.667 -6.66699 66.334 -20 95.001s-32.833 51.667 -58.5 69s-57.167 26 -94.5 26
c-36.667 0 -68.334 -8.66699 -95.001 -26s-47 -40.333 -61 -69s-21 -60.334 -21 -95.001c0 -34 7 -65.5 21 -94.5s34.333 -52.167 61 -69.5s58.334 -26 95.001 -26zM299 567.001c-32.667 0 -60.667 9.33398 -84 28.001s-35 41 -35 67c0 5.33301 0.666992 10.333 2 15l4 14
h18c2 -18.667 12 -34.167 30 -46.5s39.667 -18.5 65 -18.5c24.667 0 46 6.16699 64 18.5s28 27.833 30 46.5h18c4 -8.66699 6 -18.334 6 -29.001c0 -26 -11.5 -48.333 -34.5 -67s-50.833 -28 -83.5 -28z" />
    <glyph glyph-name="Aogonek" unicode="&#x104;" horiz-adv-x="662" 
d="M3 0l281 662h94l281 -662h-83l-81 192h-328l-81 -192h-83zM196 261h270l-135 323zM487 -125c0 22.667 6.33301 41.834 19 57.501s28.167 28.667 46.5 39s35.166 19.166 50.499 26.499h56c-10 -6 -22.5 -14 -37.5 -24s-28.333 -21.667 -40 -35s-17.5 -28.333 -17.5 -45
c0 -16 6.33301 -28.333 19 -37s26.334 -13 41.001 -13c13.333 0 25.333 3.66699 36 11v-39c-10 -8 -21.667 -14 -35 -18s-27 -6 -41 -6c-24.667 0 -47 7 -67 21s-30 34.667 -30 62z" />
    <glyph glyph-name="aogonek" unicode="&#x105;" horiz-adv-x="595" 
d="M276 -8c-48.667 0 -91.167 11.501 -127.5 34.501s-64.5 54.167 -84.5 93.5s-30 82.666 -30 129.999c0 48 10 91.5 30 130.5s48.167 70 84.5 93s78.833 34.5 127.5 34.5c41.333 0 76.833 -8 106.5 -24s53.834 -37.667 72.501 -65v81h75v-500h-75v80
c-18.667 -26.667 -42.834 -48 -72.501 -64s-65.167 -24 -106.5 -24zM286 60.001c37.333 0 68.833 8.66699 94.5 26s45.167 40.5 58.5 69.5s20 60.5 20 94.5c0 34.667 -6.66699 66.334 -20 95.001s-32.833 51.667 -58.5 69s-57.167 26 -94.5 26
c-36.667 0 -68.334 -8.66699 -95.001 -26s-47 -40.333 -61 -69s-21 -60.334 -21 -95.001c0 -34 7 -65.5 21 -94.5s34.333 -52.167 61 -69.5s58.334 -26 95.001 -26zM358 -122.999c0 22.667 6.33301 41.834 19 57.501s28.167 28.667 46.5 39s35.166 19.166 50.499 26.499h56
c-10 -6 -22.5 -14 -37.5 -24s-28.333 -21.667 -40 -35s-17.5 -28.333 -17.5 -45c0 -16 6.33301 -28.333 19 -37s26.334 -13 41.001 -13c13.333 0 25.333 3.66699 36 11v-39c-10 -8 -21.667 -14 -35 -18s-27 -6 -41 -6c-24.667 0 -47 7 -67 21s-30 34.667 -30 62z" />
    <glyph glyph-name="Cacute" unicode="&#x106;" horiz-adv-x="690" 
d="M359 -8c-66 0 -123 15.1699 -171 45.5029s-84.833 71.166 -110.5 122.499s-38.5 108.333 -38.5 171s12.833 119.667 38.5 171s62.5 92.166 110.5 122.499s105 45.5 171 45.5c50 0 95 -8.83301 135 -26.5s74 -41.834 102 -72.501s49 -66.334 63 -107.001h-79
c-16.667 40.667 -43 73 -79 97s-81.333 36 -136 36c-53.333 0 -98.833 -11.833 -136.5 -35.5s-66.167 -55.5 -85.5 -95.5s-29 -85 -29 -135c0 -49.333 9.66699 -94.166 29 -134.499s47.833 -72.333 85.5 -96s83.167 -35.5 136.5 -35.5c54.667 0 100 12 136 36
s62.333 56.333 79 97h79c-14 -40 -35 -75.5 -63 -106.5s-62 -55.333 -102 -73s-85 -26.5 -135 -26.5zM311 725.003l61 105h107l-107 -105h-61z" />
    <glyph glyph-name="cacute" unicode="&#x107;" horiz-adv-x="544" 
d="M280 -8c-50 0 -93.333 11.5039 -130 34.5039s-65.167 54.167 -85.5 93.5s-30.5 82.666 -30.5 129.999c0 48 10.167 91.5 30.5 130.5s48.833 70 85.5 93s80 34.5 130 34.5c59.333 0 109.833 -15.333 151.5 -46s69.834 -70.334 84.501 -119.001h-81
c-11.333 28.667 -29.5 52 -54.5 70s-55.167 27 -90.5 27c-36.667 0 -68.667 -8.66699 -96 -26s-48.333 -40.333 -63 -69s-22 -60.334 -22 -95.001c0 -34 7.33301 -65.5 22 -94.5s35.667 -52.167 63 -69.5s59.333 -26 96 -26c35.333 0 65.5 9 90.5 27s43.167 41.333 54.5 70
h81c-14.667 -48.667 -42.834 -88.334 -84.501 -119.001s-92.167 -46 -151.5 -46zM218 570.004l61 105h107l-107 -105h-61z" />
    <glyph glyph-name="Ccircumflex" unicode="&#x108;" horiz-adv-x="690" 
d="M359 -8c-66 0 -123 15.1699 -171 45.5029s-84.833 71.166 -110.5 122.499s-38.5 108.333 -38.5 171s12.833 119.667 38.5 171s62.5 92.166 110.5 122.499s105 45.5 171 45.5c50 0 95 -8.83301 135 -26.5s74 -41.834 102 -72.501s49 -66.334 63 -107.001h-79
c-16.667 40.667 -43 73 -79 97s-81.333 36 -136 36c-53.333 0 -98.833 -11.833 -136.5 -35.5s-66.167 -55.5 -85.5 -95.5s-29 -85 -29 -135c0 -49.333 9.66699 -94.166 29 -134.499s47.833 -72.333 85.5 -96s83.167 -35.5 136.5 -35.5c54.667 0 100 12 136 36
s62.333 56.333 79 97h79c-14 -40 -35 -75.5 -63 -106.5s-62 -55.333 -102 -73s-85 -26.5 -135 -26.5zM204 725.003l98 105h87l97 -105h-82l-59 54l-59 -54h-82z" />
    <glyph glyph-name="ccircumflex" unicode="&#x109;" horiz-adv-x="544" 
d="M280 -8c-50 0 -93.333 11.5039 -130 34.5039s-65.167 54.167 -85.5 93.5s-30.5 82.666 -30.5 129.999c0 48 10.167 91.5 30.5 130.5s48.833 70 85.5 93s80 34.5 130 34.5c59.333 0 109.833 -15.333 151.5 -46s69.834 -70.334 84.501 -119.001h-81
c-11.333 28.667 -29.5 52 -54.5 70s-55.167 27 -90.5 27c-36.667 0 -68.667 -8.66699 -96 -26s-48.333 -40.333 -63 -69s-22 -60.334 -22 -95.001c0 -34 7.33301 -65.5 22 -94.5s35.667 -52.167 63 -69.5s59.333 -26 96 -26c35.333 0 65.5 9 90.5 27s43.167 41.333 54.5 70
h81c-14.667 -48.667 -42.834 -88.334 -84.501 -119.001s-92.167 -46 -151.5 -46zM131 570.004l98 105h87l97 -105h-82l-59 54l-59 -54h-82z" />
    <glyph glyph-name="Cdotaccent" unicode="&#x10a;" horiz-adv-x="690" 
d="M359 -8c-66 0 -123 15.1699 -171 45.5029s-84.833 71.166 -110.5 122.499s-38.5 108.333 -38.5 171s12.833 119.667 38.5 171s62.5 92.166 110.5 122.499s105 45.5 171 45.5c50 0 95 -8.83301 135 -26.5s74 -41.834 102 -72.501s49 -66.334 63 -107.001h-79
c-16.667 40.667 -43 73 -79 97s-81.333 36 -136 36c-53.333 0 -98.833 -11.833 -136.5 -35.5s-66.167 -55.5 -85.5 -95.5s-29 -85 -29 -135c0 -49.333 9.66699 -94.166 29 -134.499s47.833 -72.333 85.5 -96s83.167 -35.5 136.5 -35.5c54.667 0 100 12 136 36
s62.333 56.333 79 97h79c-14 -40 -35 -75.5 -63 -106.5s-62 -55.333 -102 -73s-85 -26.5 -135 -26.5zM301 732.003v83h89v-83h-89z" />
    <glyph glyph-name="cdotaccent" unicode="&#x10b;" horiz-adv-x="544" 
d="M280 -8c-50 0 -93.333 11.5039 -130 34.5039s-65.167 54.167 -85.5 93.5s-30.5 82.666 -30.5 129.999c0 48 10.167 91.5 30.5 130.5s48.833 70 85.5 93s80 34.5 130 34.5c59.333 0 109.833 -15.333 151.5 -46s69.834 -70.334 84.501 -119.001h-81
c-11.333 28.667 -29.5 52 -54.5 70s-55.167 27 -90.5 27c-36.667 0 -68.667 -8.66699 -96 -26s-48.333 -40.333 -63 -69s-22 -60.334 -22 -95.001c0 -34 7.33301 -65.5 22 -94.5s35.667 -52.167 63 -69.5s59.333 -26 96 -26c35.333 0 65.5 9 90.5 27s43.167 41.333 54.5 70
h81c-14.667 -48.667 -42.834 -88.334 -84.501 -119.001s-92.167 -46 -151.5 -46zM228 580.004v83h89v-83h-89z" />
    <glyph glyph-name="Ccaron" unicode="&#x10c;" horiz-adv-x="690" 
d="M359 -8c-66 0 -123 15.1699 -171 45.5029s-84.833 71.166 -110.5 122.499s-38.5 108.333 -38.5 171s12.833 119.667 38.5 171s62.5 92.166 110.5 122.499s105 45.5 171 45.5c50 0 95 -8.83301 135 -26.5s74 -41.834 102 -72.501s49 -66.334 63 -107.001h-79
c-16.667 40.667 -43 73 -79 97s-81.333 36 -136 36c-53.333 0 -98.833 -11.833 -136.5 -35.5s-66.167 -55.5 -85.5 -95.5s-29 -85 -29 -135c0 -49.333 9.66699 -94.166 29 -134.499s47.833 -72.333 85.5 -96s83.167 -35.5 136.5 -35.5c54.667 0 100 12 136 36
s62.333 56.333 79 97h79c-14 -40 -35 -75.5 -63 -106.5s-62 -55.333 -102 -73s-85 -26.5 -135 -26.5zM302 725.003l-98 105h82l59 -54l59 54h82l-97 -105h-87z" />
    <glyph glyph-name="ccaron" unicode="&#x10d;" horiz-adv-x="544" 
d="M280 -8c-50 0 -93.333 11.5039 -130 34.5039s-65.167 54.167 -85.5 93.5s-30.5 82.666 -30.5 129.999c0 48 10.167 91.5 30.5 130.5s48.833 70 85.5 93s80 34.5 130 34.5c59.333 0 109.833 -15.333 151.5 -46s69.834 -70.334 84.501 -119.001h-81
c-11.333 28.667 -29.5 52 -54.5 70s-55.167 27 -90.5 27c-36.667 0 -68.667 -8.66699 -96 -26s-48.333 -40.333 -63 -69s-22 -60.334 -22 -95.001c0 -34 7.33301 -65.5 22 -94.5s35.667 -52.167 63 -69.5s59.333 -26 96 -26c35.333 0 65.5 9 90.5 27s43.167 41.333 54.5 70
h81c-14.667 -48.667 -42.834 -88.334 -84.501 -119.001s-92.167 -46 -151.5 -46zM229 570.004l-98 105h82l59 -54l59 54h82l-97 -105h-87z" />
    <glyph glyph-name="Dcaron" unicode="&#x10e;" horiz-adv-x="703" 
d="M81 0v662.002h279c39.333 0 77.166 -7.5 113.499 -22.5s68.833 -36.833 97.5 -65.5s51.334 -63.334 68.001 -104.001s25 -87 25 -139s-8.33301 -98.333 -25 -139s-39.334 -75.334 -68.001 -104.001s-61.167 -50.5 -97.5 -65.5s-74.166 -22.5 -113.499 -22.5h-279z
M156 71.002l201 0.000976562c47.333 0 88.333 12 123 36s61.5 55.667 80.5 95s28.5 82.333 28.5 129c0 47.333 -9.5 90.666 -28.5 129.999s-45.833 70.833 -80.5 94.5s-75.667 35.5 -123 35.5h-201v-520zM309 725.003l-98 105h82l59 -54l59 54h82l-97 -105h-87z" />
    <glyph glyph-name="dcaron" unicode="&#x10f;" horiz-adv-x="595" 
d="M276 -8c-48.667 0 -91.167 11.501 -127.5 34.501s-64.5 54.167 -84.5 93.5s-30 82.666 -30 129.999c0 48 10 91.5 30 130.5s48.167 70 84.5 93s78.833 34.5 127.5 34.5c41.333 0 76.833 -8 106.5 -24s53.834 -37.667 72.501 -65v281h75v-700h-75v80
c-18.667 -26.667 -42.834 -48 -72.501 -64s-65.167 -24 -106.5 -24zM286 60.001c37.333 0 68.833 8.66699 94.5 26s45.167 40.5 58.5 69.5s20 60.5 20 94.5c0 34.667 -6.66699 66.334 -20 95.001s-32.833 51.667 -58.5 69s-57.167 26 -94.5 26
c-36.667 0 -68.334 -8.66699 -95.001 -26s-47 -40.333 -61 -69s-21 -60.334 -21 -95.001c0 -34 7 -65.5 21 -94.5s34.333 -52.167 61 -69.5s58.334 -26 95.001 -26zM685 700.001l-35 -167h-55l14 167h76z" />
    <glyph glyph-name="Dcroat" unicode="&#x110;" horiz-adv-x="703" 
d="M81 0v298.002h-74v65h74v299h279c39.333 0 77.166 -7.5 113.499 -22.5s68.833 -36.833 97.5 -65.5s51.334 -63.334 68.001 -104.001s25 -87 25 -139s-8.33301 -98.333 -25 -139s-39.334 -75.334 -68.001 -104.001s-61.167 -50.5 -97.5 -65.5
s-74.166 -22.5 -113.499 -22.5h-279zM156 71.002l201 0.000976562c47.333 0 88.333 12 123 36s61.5 55.667 80.5 95s28.5 82.333 28.5 129c0 47.333 -9.5 90.666 -28.5 129.999s-45.833 70.833 -80.5 94.5s-75.667 35.5 -123 35.5h-201v-228h199v-65h-199v-227z" />
    <glyph glyph-name="dcroat" unicode="&#x111;" horiz-adv-x="595" 
d="M276 -8c-48.667 0 -91.167 11.501 -127.5 34.501s-64.5 54.167 -84.5 93.5s-30 82.666 -30 129.999c0 48 10 91.5 30 130.5s48.167 70 84.5 93s78.833 34.5 127.5 34.5c41.333 0 76.833 -8 106.5 -24s53.834 -37.667 72.501 -65v131h-120v66h120v84h75v-84h50v-66h-50
v-550h-75v80c-18.667 -26.667 -42.834 -48 -72.501 -64s-65.167 -24 -106.5 -24zM286 60.001c37.333 0 68.833 8.66699 94.5 26s45.167 40.5 58.5 69.5s20 60.5 20 94.5c0 34.667 -6.66699 66.334 -20 95.001s-32.833 51.667 -58.5 69s-57.167 26 -94.5 26
c-36.667 0 -68.334 -8.66699 -95.001 -26s-47 -40.333 -61 -69s-21 -60.334 -21 -95.001c0 -34 7 -65.5 21 -94.5s34.333 -52.167 61 -69.5s58.334 -26 95.001 -26z" />
    <glyph glyph-name="Emacron" unicode="&#x112;" horiz-adv-x="608" 
d="M81 0v662h487v-72h-412v-222h368v-73h-368v-223h412v-72h-487zM202 736v60h264v-60h-264z" />
    <glyph glyph-name="emacron" unicode="&#x113;" horiz-adv-x="557" 
d="M287 -8c-50.667 0 -94.999 11.498 -132.999 34.498s-67.5 54.167 -88.5 93.5s-31.5 82.666 -31.5 129.999c0 48 10 91.5 30 130.5s48.667 70 86 93s81.333 34.5 132 34.5c51.333 0 95.5 -11.5 132.5 -34.5s65.5 -54 85.5 -93s30 -82.5 30 -130.5v-30h-419
c4 -29.333 13.5 -56.166 28.5 -80.499s35.167 -43.666 60.5 -57.999s54.666 -21.5 87.999 -21.5c35.333 0 65 7.83301 89 23.5s42.667 35.834 56 60.501h82c-17.333 -44.667 -44.833 -81.167 -82.5 -109.5s-86.167 -42.5 -145.5 -42.5zM112.001 289.998h340
c-6.66699 42.667 -24.667 78.334 -54 107.001s-68 43 -116 43s-86.5 -14.333 -115.5 -43s-47.167 -64.334 -54.5 -107.001zM147.001 583.998v60h264v-60h-264z" />
    <glyph glyph-name="Ebreve" unicode="&#x114;" horiz-adv-x="608" 
d="M81 0v662h487v-72h-412v-222h368v-73h-368v-223h412v-72h-487zM335 717c-32.667 0 -60.667 9.33398 -84 28.001s-35 41 -35 67c0 5.33301 0.666992 10.333 2 15l4 14h18c2 -18.667 12 -34.167 30 -46.5s39.667 -18.5 65 -18.5c24.667 0 46 6.16699 64 18.5
s28 27.833 30 46.5h18c4 -8.66699 6 -18.334 6 -29.001c0 -26 -11.5 -48.333 -34.5 -67s-50.833 -28 -83.5 -28z" />
    <glyph glyph-name="ebreve" unicode="&#x115;" horiz-adv-x="557" 
d="M287 -8c-50.667 0 -94.999 11.498 -132.999 34.498s-67.5 54.167 -88.5 93.5s-31.5 82.666 -31.5 129.999c0 48 10 91.5 30 130.5s48.667 70 86 93s81.333 34.5 132 34.5c51.333 0 95.5 -11.5 132.5 -34.5s65.5 -54 85.5 -93s30 -82.5 30 -130.5v-30h-419
c4 -29.333 13.5 -56.166 28.5 -80.499s35.167 -43.666 60.5 -57.999s54.666 -21.5 87.999 -21.5c35.333 0 65 7.83301 89 23.5s42.667 35.834 56 60.501h82c-17.333 -44.667 -44.833 -81.167 -82.5 -109.5s-86.167 -42.5 -145.5 -42.5zM112.001 289.998h340
c-6.66699 42.667 -24.667 78.334 -54 107.001s-68 43 -116 43s-86.5 -14.333 -115.5 -43s-47.167 -64.334 -54.5 -107.001zM280.001 566.998c-32.667 0 -60.667 9.33398 -84 28.001s-35 41 -35 67c0 5.33301 0.666992 10.333 2 15l4 14h18c2 -18.667 12 -34.167 30 -46.5
s39.667 -18.5 65 -18.5c24.667 0 46 6.16699 64 18.5s28 27.833 30 46.5h18c4 -8.66699 6 -18.334 6 -29.001c0 -26 -11.5 -48.333 -34.5 -67s-50.833 -28 -83.5 -28z" />
    <glyph glyph-name="Edotaccent" unicode="&#x116;" horiz-adv-x="608" 
d="M81 0v662h487v-72h-412v-222h368v-73h-368v-223h412v-72h-487zM290 732v83h89v-83h-89z" />
    <glyph glyph-name="edotaccent" unicode="&#x117;" horiz-adv-x="557" 
d="M287 -8c-50.667 0 -94.999 11.498 -132.999 34.498s-67.5 54.167 -88.5 93.5s-31.5 82.666 -31.5 129.999c0 48 10 91.5 30 130.5s48.667 70 86 93s81.333 34.5 132 34.5c51.333 0 95.5 -11.5 132.5 -34.5s65.5 -54 85.5 -93s30 -82.5 30 -130.5v-30h-419
c4 -29.333 13.5 -56.166 28.5 -80.499s35.167 -43.666 60.5 -57.999s54.666 -21.5 87.999 -21.5c35.333 0 65 7.83301 89 23.5s42.667 35.834 56 60.501h82c-17.333 -44.667 -44.833 -81.167 -82.5 -109.5s-86.167 -42.5 -145.5 -42.5zM112.001 289.998h340
c-6.66699 42.667 -24.667 78.334 -54 107.001s-68 43 -116 43s-86.5 -14.333 -115.5 -43s-47.167 -64.334 -54.5 -107.001zM235.001 579.998v83h89v-83h-89z" />
    <glyph glyph-name="Eogonek" unicode="&#x118;" horiz-adv-x="608" 
d="M81 0v662h487v-72h-412v-222h368v-73h-368v-223h412v-72h-487zM396 -123c0 22.667 6.33301 41.834 19 57.501s28.167 28.667 46.5 39s35.166 19.166 50.499 26.499h56c-10 -6 -22.5 -14 -37.5 -24s-28.333 -21.667 -40 -35s-17.5 -28.333 -17.5 -45
c0 -16 6.33301 -28.333 19 -37s26.334 -13 41.001 -13c13.333 0 25.333 3.66699 36 11v-39c-10 -8 -21.667 -14 -35 -18s-27 -6 -41 -6c-24.667 0 -47 7 -67 21s-30 34.667 -30 62z" />
    <glyph glyph-name="eogonek" unicode="&#x119;" horiz-adv-x="557" 
d="M217 -123c0 28.667 8.66699 52.1631 26 70.4961s36.333 33.166 57 44.499h-13c-50.667 0 -95 11.5 -133 34.5s-67.5 54.167 -88.5 93.5s-31.5 82.666 -31.5 129.999c0 48 10 91.5 30 130.5s48.667 70 86 93s81.333 34.5 132 34.5c51.333 0 95.5 -11.5 132.5 -34.5
s65.5 -54 85.5 -93s30 -82.5 30 -130.5v-30h-419c4 -29.333 13.5 -56.166 28.5 -80.499s35.167 -43.666 60.5 -57.999s54.666 -21.5 87.999 -21.5c35.333 0 65 7.83301 89 23.5s42.667 35.834 56 60.501h82c-11.333 -29.333 -26.833 -55.166 -46.5 -77.499
s-43.5 -39.833 -71.5 -52.5c-12 -7.33301 -26.167 -16.666 -42.5 -27.999s-30.5 -24.666 -42.5 -39.999s-18 -32 -18 -50c0 -16 6.33301 -28.333 19 -37s26.334 -13 41.001 -13c13.333 0 25.333 3.66699 36 11v-39c-10 -8 -21.667 -14 -35 -18s-27 -6 -41 -6
c-24.667 0 -47 7 -67 21s-30 34.667 -30 62zM112 289.996h340c-6.66699 42.667 -24.667 78.334 -54 107.001s-68 43 -116 43s-86.5 -14.333 -115.5 -43s-47.167 -64.334 -54.5 -107.001z" />
    <glyph glyph-name="Ecaron" unicode="&#x11a;" horiz-adv-x="608" 
d="M81 0v662h487v-72h-412v-222h368v-73h-368v-223h412v-72h-487zM291 725l-98 105h82l59 -54l59 54h82l-97 -105h-87z" />
    <glyph glyph-name="ecaron" unicode="&#x11b;" horiz-adv-x="557" 
d="M287 -8c-50.667 0 -94.999 11.498 -132.999 34.498s-67.5 54.167 -88.5 93.5s-31.5 82.666 -31.5 129.999c0 48 10 91.5 30 130.5s48.667 70 86 93s81.333 34.5 132 34.5c51.333 0 95.5 -11.5 132.5 -34.5s65.5 -54 85.5 -93s30 -82.5 30 -130.5v-30h-419
c4 -29.333 13.5 -56.166 28.5 -80.499s35.167 -43.666 60.5 -57.999s54.666 -21.5 87.999 -21.5c35.333 0 65 7.83301 89 23.5s42.667 35.834 56 60.501h82c-17.333 -44.667 -44.833 -81.167 -82.5 -109.5s-86.167 -42.5 -145.5 -42.5zM112.001 289.998h340
c-6.66699 42.667 -24.667 78.334 -54 107.001s-68 43 -116 43s-86.5 -14.333 -115.5 -43s-47.167 -64.334 -54.5 -107.001zM236.001 569.998l-98 105h82l59 -54l59 54h82l-97 -105h-87z" />
    <glyph glyph-name="Gcircumflex" unicode="&#x11c;" horiz-adv-x="723" 
d="M363 -8c-67.333 0 -125.164 15.168 -173.497 45.501s-85.5 71.166 -111.5 122.499s-39 108.333 -39 171s13.333 119.667 40 171s64.5 92.166 113.5 122.499s106.5 45.5 172.5 45.5c71.333 0 133.166 -17.5 185.499 -52.5s90.833 -80.167 115.5 -135.5h-82
c-20 35.333 -47.833 63.333 -83.5 84s-78.834 31 -129.501 31c-53.333 0 -99.333 -11.833 -138 -35.5s-68.167 -55.5 -88.5 -95.5s-30.5 -85 -30.5 -135c0 -49.333 10 -94.166 30 -134.499s49.167 -72.333 87.5 -96s84.166 -35.5 137.499 -35.5
c40 0 77.833 8.66699 113.5 26s64.667 42.333 87 75s33.5 72 33.5 118h-242v68h311v-352h-69v117c-14 -21.333 -32 -41.5 -54 -60.5s-48.5 -34.5 -79.5 -46.5s-66.5 -18 -106.5 -18zM221.002 725.001l98 105h87l97 -105h-82l-59 54l-59 -54h-82z" />
    <glyph glyph-name="gcircumflex" unicode="&#x11d;" horiz-adv-x="595" 
d="M294 -206c-62.667 0 -113.666 13.502 -152.999 40.502s-66 62.167 -80 105.5h83c10 -24.667 27.333 -43.834 52 -57.501s56 -20.5 94 -20.5c57.333 0 99.166 13.5 125.499 40.5s39.5 66.167 39.5 117.5v69c-18.667 -26.667 -42.834 -48.167 -72.501 -64.5
s-65.167 -24.5 -106.5 -24.5c-48.667 0 -91.167 11.167 -127.5 33.5s-64.5 52.833 -84.5 91.5s-30 81.667 -30 129c0 48 10 91.167 30 129.5s48.167 68.666 84.5 90.999s78.833 33.5 127.5 33.5c41.333 0 76.833 -7.83301 106.5 -23.5s53.834 -37.167 72.501 -64.5v80h75
v-485c0 -71.333 -20.5 -126 -61.5 -164s-99.167 -57 -174.5 -57zM286.001 68.002c36.667 0 67.834 8.33301 93.501 25s45.334 39.167 59.001 67.5s20.5 59.5 20.5 93.5c0 34.667 -6.83301 66 -20.5 94s-33.334 50.333 -59.001 67s-56.834 25 -93.501 25
s-68.334 -8.33301 -95.001 -25s-47 -39 -61 -67s-21 -59.333 -21 -94c0 -34 7 -65.167 21 -93.5s34.333 -50.833 61 -67.5s58.334 -25 95.001 -25zM157.001 570.002l98 105h87l97 -105h-82l-59 54l-59 -54h-82z" />
    <glyph glyph-name="Gbreve" unicode="&#x11e;" horiz-adv-x="723" 
d="M363 -8c-67.333 0 -125.164 15.168 -173.497 45.501s-85.5 71.166 -111.5 122.499s-39 108.333 -39 171s13.333 119.667 40 171s64.5 92.166 113.5 122.499s106.5 45.5 172.5 45.5c71.333 0 133.166 -17.5 185.499 -52.5s90.833 -80.167 115.5 -135.5h-82
c-20 35.333 -47.833 63.333 -83.5 84s-78.834 31 -129.501 31c-53.333 0 -99.333 -11.833 -138 -35.5s-68.167 -55.5 -88.5 -95.5s-30.5 -85 -30.5 -135c0 -49.333 10 -94.166 30 -134.499s49.167 -72.333 87.5 -96s84.166 -35.5 137.499 -35.5
c40 0 77.833 8.66699 113.5 26s64.667 42.333 87 75s33.5 72 33.5 118h-242v68h311v-352h-69v117c-14 -21.333 -32 -41.5 -54 -60.5s-48.5 -34.5 -79.5 -46.5s-66.5 -18 -106.5 -18zM363.002 717.001c-32.667 0 -60.667 9.33398 -84 28.001s-35 41 -35 67
c0 5.33301 0.666992 10.333 2 15l4 14h18c2 -18.667 12 -34.167 30 -46.5s39.667 -18.5 65 -18.5c24.667 0 46 6.16699 64 18.5s28 27.833 30 46.5h18c4 -8.66699 6 -18.334 6 -29.001c0 -26 -11.5 -48.333 -34.5 -67s-50.833 -28 -83.5 -28z" />
    <glyph glyph-name="gbreve" unicode="&#x11f;" horiz-adv-x="595" 
d="M294 -206c-62.667 0 -113.666 13.502 -152.999 40.502s-66 62.167 -80 105.5h83c10 -24.667 27.333 -43.834 52 -57.501s56 -20.5 94 -20.5c57.333 0 99.166 13.5 125.499 40.5s39.5 66.167 39.5 117.5v69c-18.667 -26.667 -42.834 -48.167 -72.501 -64.5
s-65.167 -24.5 -106.5 -24.5c-48.667 0 -91.167 11.167 -127.5 33.5s-64.5 52.833 -84.5 91.5s-30 81.667 -30 129c0 48 10 91.167 30 129.5s48.167 68.666 84.5 90.999s78.833 33.5 127.5 33.5c41.333 0 76.833 -7.83301 106.5 -23.5s53.834 -37.167 72.501 -64.5v80h75
v-485c0 -71.333 -20.5 -126 -61.5 -164s-99.167 -57 -174.5 -57zM286.001 68.002c36.667 0 67.834 8.33301 93.501 25s45.334 39.167 59.001 67.5s20.5 59.5 20.5 93.5c0 34.667 -6.83301 66 -20.5 94s-33.334 50.333 -59.001 67s-56.834 25 -93.501 25
s-68.334 -8.33301 -95.001 -25s-47 -39 -61 -67s-21 -59.333 -21 -94c0 -34 7 -65.167 21 -93.5s34.333 -50.833 61 -67.5s58.334 -25 95.001 -25zM299.001 567.002c-32.667 0 -60.667 9.33398 -84 28.001s-35 41 -35 67c0 5.33301 0.666992 10.333 2 15l4 14h18
c2 -18.667 12 -34.167 30 -46.5s39.667 -18.5 65 -18.5c24.667 0 46 6.16699 64 18.5s28 27.833 30 46.5h18c4 -8.66699 6 -18.334 6 -29.001c0 -26 -11.5 -48.333 -34.5 -67s-50.833 -28 -83.5 -28z" />
    <glyph glyph-name="Gdotaccent" unicode="&#x120;" horiz-adv-x="723" 
d="M363 -8c-67.333 0 -125.164 15.168 -173.497 45.501s-85.5 71.166 -111.5 122.499s-39 108.333 -39 171s13.333 119.667 40 171s64.5 92.166 113.5 122.499s106.5 45.5 172.5 45.5c71.333 0 133.166 -17.5 185.499 -52.5s90.833 -80.167 115.5 -135.5h-82
c-20 35.333 -47.833 63.333 -83.5 84s-78.834 31 -129.501 31c-53.333 0 -99.333 -11.833 -138 -35.5s-68.167 -55.5 -88.5 -95.5s-30.5 -85 -30.5 -135c0 -49.333 10 -94.166 30 -134.499s49.167 -72.333 87.5 -96s84.166 -35.5 137.499 -35.5
c40 0 77.833 8.66699 113.5 26s64.667 42.333 87 75s33.5 72 33.5 118h-242v68h311v-352h-69v117c-14 -21.333 -32 -41.5 -54 -60.5s-48.5 -34.5 -79.5 -46.5s-66.5 -18 -106.5 -18zM318.002 732.001v83h89v-83h-89z" />
    <glyph glyph-name="gdotaccent" unicode="&#x121;" horiz-adv-x="595" 
d="M294 -206c-62.667 0 -113.666 13.502 -152.999 40.502s-66 62.167 -80 105.5h83c10 -24.667 27.333 -43.834 52 -57.501s56 -20.5 94 -20.5c57.333 0 99.166 13.5 125.499 40.5s39.5 66.167 39.5 117.5v69c-18.667 -26.667 -42.834 -48.167 -72.501 -64.5
s-65.167 -24.5 -106.5 -24.5c-48.667 0 -91.167 11.167 -127.5 33.5s-64.5 52.833 -84.5 91.5s-30 81.667 -30 129c0 48 10 91.167 30 129.5s48.167 68.666 84.5 90.999s78.833 33.5 127.5 33.5c41.333 0 76.833 -7.83301 106.5 -23.5s53.834 -37.167 72.501 -64.5v80h75
v-485c0 -71.333 -20.5 -126 -61.5 -164s-99.167 -57 -174.5 -57zM286.001 68.002c36.667 0 67.834 8.33301 93.501 25s45.334 39.167 59.001 67.5s20.5 59.5 20.5 93.5c0 34.667 -6.83301 66 -20.5 94s-33.334 50.333 -59.001 67s-56.834 25 -93.501 25
s-68.334 -8.33301 -95.001 -25s-47 -39 -61 -67s-21 -59.333 -21 -94c0 -34 7 -65.167 21 -93.5s34.333 -50.833 61 -67.5s58.334 -25 95.001 -25zM254.001 580.002v83h89v-83h-89z" />
    <glyph glyph-name="uni0122" unicode="&#x122;" horiz-adv-x="723" 
d="M363 -8c-67.333 0 -125.164 15.168 -173.497 45.501s-85.5 71.166 -111.5 122.499s-39 108.333 -39 171s13.333 119.667 40 171s64.5 92.166 113.5 122.499s106.5 45.5 172.5 45.5c71.333 0 133.166 -17.5 185.499 -52.5s90.833 -80.167 115.5 -135.5h-82
c-20 35.333 -47.833 63.333 -83.5 84s-78.834 31 -129.501 31c-53.333 0 -99.333 -11.833 -138 -35.5s-68.167 -55.5 -88.5 -95.5s-30.5 -85 -30.5 -135c0 -49.333 10 -94.166 30 -134.499s49.167 -72.333 87.5 -96s84.166 -35.5 137.499 -35.5
c40 0 77.833 8.66699 113.5 26s64.667 42.333 87 75s33.5 72 33.5 118h-242v68h311v-352h-69v117c-14 -21.333 -32 -41.5 -54 -60.5s-48.5 -34.5 -79.5 -46.5s-66.5 -18 -106.5 -18zM304.002 -197.999l44 150h73l-66 -150h-51z" />
    <glyph glyph-name="uni0123" unicode="&#x123;" horiz-adv-x="595" 
d="M294 -206c-62.667 0 -113.666 13.502 -152.999 40.502s-66 62.167 -80 105.5h83c10 -24.667 27.333 -43.834 52 -57.501s56 -20.5 94 -20.5c57.333 0 99.166 13.5 125.499 40.5s39.5 66.167 39.5 117.5v69c-18.667 -26.667 -42.834 -48.167 -72.501 -64.5
s-65.167 -24.5 -106.5 -24.5c-48.667 0 -91.167 11.167 -127.5 33.5s-64.5 52.833 -84.5 91.5s-30 81.667 -30 129c0 48 10 91.167 30 129.5s48.167 68.666 84.5 90.999s78.833 33.5 127.5 33.5c41.333 0 76.833 -7.83301 106.5 -23.5s53.834 -37.167 72.501 -64.5v80h75
v-485c0 -71.333 -20.5 -126 -61.5 -164s-99.167 -57 -174.5 -57zM286.001 68.002c36.667 0 67.834 8.33301 93.501 25s45.334 39.167 59.001 67.5s20.5 59.5 20.5 93.5c0 34.667 -6.83301 66 -20.5 94s-33.334 50.333 -59.001 67s-56.834 25 -93.501 25
s-68.334 -8.33301 -95.001 -25s-47 -39 -61 -67s-21 -59.333 -21 -94c0 -34 7 -65.167 21 -93.5s34.333 -50.833 61 -67.5s58.334 -25 95.001 -25zM357.001 729.002l-44 -150h-73l66 150h51z" />
    <glyph glyph-name="Hcircumflex" unicode="&#x124;" horiz-adv-x="697" 
d="M81 0v662h75v-294h385v294h75v-662h-75v295h-385v-295h-75zM208 725l98 105h87l97 -105h-82l-59 54l-59 -54h-82z" />
    <glyph glyph-name="hcircumflex" unicode="&#x125;" horiz-adv-x="566" 
d="M65 0l0.000976562 699.998h75v-278c18 24 40 44.333 66 61s59.333 25 100 25c34.667 0 67.167 -8.16699 97.5 -24.5s55 -40.666 74 -72.999s28.5 -72.166 28.5 -119.499v-291h-75v289c0 45.333 -13 81.833 -39 109.5s-59.667 41.5 -101 41.5
c-28 0 -53.333 -6.33301 -76 -19s-40.834 -30.5 -54.501 -53.5s-20.5 -49.5 -20.5 -79.5v-288h-75zM-38.999 762.998l98 105h87l97 -105h-82l-59 54l-59 -54h-82z" />
    <glyph glyph-name="Hbar" unicode="&#x126;" horiz-adv-x="697" 
d="M81 0v468h-46v70h46v124h75v-124h385v124h75v-124h46v-70h-46v-468h-75v295h-385v-295h-75zM156 368h385v100h-385v-100z" />
    <glyph glyph-name="hbar" unicode="&#x127;" horiz-adv-x="566" 
d="M65 0l0.000976562 545.998h-50v70h50v84h75v-84h120v-70h-120v-124c18 24 40 44.333 66 61s59.333 25 100 25c34.667 0 67.167 -8.16699 97.5 -24.5s55 -40.666 74 -72.999s28.5 -72.166 28.5 -119.499v-291h-75v289c0 45.333 -13 81.833 -39 109.5
s-59.667 41.5 -101 41.5c-28 0 -53.333 -6.33301 -76 -19s-40.834 -30.5 -54.501 -53.5s-20.5 -49.5 -20.5 -79.5v-288h-75z" />
    <glyph glyph-name="Itilde" unicode="&#x128;" horiz-adv-x="237" 
d="M81 0v662h75v-662h-75zM189 723c-22 0 -40.1699 3.33301 -54.5029 10s-27.666 13.334 -39.999 20.001s-26.166 10 -41.499 10s-26.666 -4.33301 -33.999 -13s-12.666 -17.334 -15.999 -26.001h-31c3.33301 24.667 12.166 47.167 26.499 67.5s37.833 30.5 70.5 30.5
c21.333 0 39.166 -3.33301 53.499 -10s27.666 -13.5 39.999 -20.5s26.166 -10.5 41.499 -10.5c14.667 0 25.834 4.5 33.501 13.5s12.834 17.833 15.501 26.5h32c-3.33301 -24.667 -12.166 -47.167 -26.499 -67.5s-37.5 -30.5 -69.5 -30.5z" />
    <glyph glyph-name="itilde" unicode="&#x129;" horiz-adv-x="205" 
d="M65 0v500h75v-500h-75zM163 569c-22 0 -40.1699 3.33301 -54.5029 10s-27.666 13.334 -39.999 20.001s-26.166 10 -41.499 10s-26.666 -4.33301 -33.999 -13s-12.666 -17.334 -15.999 -26.001h-31c3.33301 24.667 12.166 47.167 26.499 67.5s37.833 30.5 70.5 30.5
c21.333 0 39.166 -3.33301 53.499 -10s27.666 -13.5 39.999 -20.5s26.166 -10.5 41.499 -10.5c14.667 0 25.834 4.5 33.501 13.5s12.834 17.833 15.501 26.5h32c-3.33301 -24.667 -12.166 -47.167 -26.499 -67.5s-37.5 -30.5 -69.5 -30.5z" />
    <glyph glyph-name="Imacron" unicode="&#x12a;" horiz-adv-x="237" 
d="M81 0v662h75v-662h-75zM-13 736v60h264v-60h-264z" />
    <glyph glyph-name="imacron" unicode="&#x12b;" horiz-adv-x="205" 
d="M65 0v500h75v-500h-75zM-29 584v60h264v-60h-264z" />
    <glyph glyph-name="Ibreve" unicode="&#x12c;" horiz-adv-x="237" 
d="M81 0v662h75v-662h-75zM120 717c-32.667 0 -60.667 9.33398 -84 28.001s-35 41 -35 67c0 5.33301 0.666992 10.333 2 15l4 14h18c2 -18.667 12 -34.167 30 -46.5s39.667 -18.5 65 -18.5c24.667 0 46 6.16699 64 18.5s28 27.833 30 46.5h18
c4 -8.66699 6 -18.334 6 -29.001c0 -26 -11.5 -48.333 -34.5 -67s-50.833 -28 -83.5 -28z" />
    <glyph glyph-name="ibreve" unicode="&#x12d;" horiz-adv-x="205" 
d="M65 0v500h75v-500h-75zM103 567c-32.667 0 -60.667 9.33398 -84 28.001s-35 41 -35 67c0 5.33301 0.666992 10.333 2 15l4 14h18c2 -18.667 12 -34.167 30 -46.5s39.667 -18.5 65 -18.5c24.667 0 46 6.16699 64 18.5s28 27.833 30 46.5h18
c4 -8.66699 6 -18.334 6 -29.001c0 -26 -11.5 -48.333 -34.5 -67s-50.833 -28 -83.5 -28z" />
    <glyph glyph-name="Iogonek" unicode="&#x12e;" horiz-adv-x="237" 
d="M81 0v662h75v-662h-75zM-16 -123c0 22.667 6.33301 41.834 19 57.501s28.167 28.667 46.5 39s35.166 19.166 50.499 26.499h56c-10 -6 -22.5 -14 -37.5 -24s-28.333 -21.667 -40 -35s-17.5 -28.333 -17.5 -45c0 -16 6.33301 -28.333 19 -37s26.334 -13 41.001 -13
c13.333 0 25.333 3.66699 36 11v-39c-10 -8 -21.667 -14 -35 -18s-27 -6 -41 -6c-24.667 0 -47 7 -67 21s-30 34.667 -30 62z" />
    <glyph glyph-name="iogonek" unicode="&#x12f;" horiz-adv-x="205" 
d="M65 0v500h75v-500h-75zM59 580v83h89v-83h-89zM-33 -123c0 22.667 6.33301 41.834 19 57.501s28.167 28.667 46.5 39s35.166 19.166 50.499 26.499h56c-10 -6 -22.5 -14 -37.5 -24s-28.333 -21.667 -40 -35s-17.5 -28.333 -17.5 -45c0 -16 6.33301 -28.333 19 -37
s26.334 -13 41.001 -13c13.333 0 25.333 3.66699 36 11v-39c-10 -8 -21.667 -14 -35 -18s-27 -6 -41 -6c-24.667 0 -47 7 -67 21s-30 34.667 -30 62z" />
    <glyph glyph-name="Idotaccent" unicode="&#x130;" horiz-adv-x="237" 
d="M81 0v662h75v-662h-75zM75 732v83h89v-83h-89z" />
    <glyph glyph-name="dotlessi" unicode="&#x131;" horiz-adv-x="205" 
d="M65 0v500h75v-500h-75z" />
    <glyph glyph-name="Jcircumflex" unicode="&#x134;" horiz-adv-x="527" 
d="M236 -8c-47.333 0 -86.8311 9.16797 -118.498 27.501s-55.834 41.666 -72.501 69.999s-26.667 57.5 -30 87.5h78c2.66699 -17.333 9.66699 -34.666 21 -51.999s27.333 -31.666 48 -42.999s46.667 -17 78 -17c30 0 54.167 4.83301 72.5 14.5s32 22.5 41 38.5
s15.167 33.167 18.5 51.5s5 35.833 5 52.5v440h75v-443c0 -38.667 -6.83301 -75.334 -20.5 -110.001s-36.334 -62.834 -68.001 -84.501s-74.167 -32.5 -127.5 -32.5zM272.002 725.001l98 105h87l97 -105h-82l-59 54l-59 -54h-82z" />
    <glyph glyph-name="jcircumflex" unicode="&#x135;" horiz-adv-x="205" 
d="M65 -198v698h75v-698h-75zM-38 570l98 105h87l97 -105h-82l-59 54l-59 -54h-82z" />
    <glyph glyph-name="uni0136" unicode="&#x136;" horiz-adv-x="641" 
d="M81 0v662h75v-345l368 345h106l-282 -266l298 -396h-94l-259 345l-137 -128v-217h-75zM263 -198l44 150h73l-66 -150h-51z" />
    <glyph glyph-name="uni0137" unicode="&#x137;" horiz-adv-x="502" 
d="M65 0v700h75v-448l241 248h105l-201 -197l216 -303h-92l-175 251l-94 -93v-158h-75zM170 -198l44 150h73l-66 -150h-51z" />
    <glyph glyph-name="kgreenlandic" unicode="&#x138;" horiz-adv-x="502" 
d="M65 0v500h75v-248l241 248h105l-201 -197l216 -303h-92l-175 251l-94 -93v-158h-75z" />
    <glyph glyph-name="Lacute" unicode="&#x139;" horiz-adv-x="533" 
d="M81 0v662h75v-590h361v-72h-436zM85 725l61 105h107l-107 -105h-61z" />
    <glyph glyph-name="lacute" unicode="&#x13a;" horiz-adv-x="205" 
d="M65 0v700h75v-700h-75zM69 763l61 105h107l-107 -105h-61z" />
    <glyph glyph-name="uni013B" unicode="&#x13b;" horiz-adv-x="533" 
d="M81 0v662h75v-590h361v-72h-436zM229 -198l44 150h73l-66 -150h-51z" />
    <glyph glyph-name="uni013C" unicode="&#x13c;" horiz-adv-x="205" 
d="M65 0v700h75v-700h-75zM22 -198l44 150h73l-66 -150h-51z" />
    <glyph glyph-name="Lcaron" unicode="&#x13d;" horiz-adv-x="533" 
d="M81 0v662h75v-590h361v-72h-436zM516 664l-35 -167h-55l14 167h76z" />
    <glyph glyph-name="lcaron" unicode="&#x13e;" horiz-adv-x="205" 
d="M65 0v700h75v-700h-75zM295 699l-35 -167h-55l14 167h76z" />
    <glyph glyph-name="Ldot" unicode="&#x13f;" horiz-adv-x="533" 
d="M81 0v662h75v-590h361v-72h-436zM336 292v102h97v-102h-97z" />
    <glyph glyph-name="ldot" unicode="&#x140;" horiz-adv-x="205" 
d="M65 0v700h75v-700h-75zM159 292v102h97v-102h-97z" />
    <glyph glyph-name="Lslash" unicode="&#x141;" horiz-adv-x="533" 
d="M81 0v294l-74 -39v73l74 39v295h75v-256l185 96v-73l-185 -96v-261h361v-72h-436z" />
    <glyph glyph-name="lslash" unicode="&#x142;" horiz-adv-x="205" 
d="M65 0v354l-65 -34v73l65 34v273h75v-234l65 34v-73l-65 -34v-393h-75z" />
    <glyph glyph-name="Nacute" unicode="&#x143;" horiz-adv-x="733" 
d="M81 0v662h87l409 -557v557h75v-662h-87l-409 559v-559h-75zM333 725l61 105h107l-107 -105h-61z" />
    <glyph glyph-name="nacute" unicode="&#x144;" horiz-adv-x="566" 
d="M65 0l0.000976562 499.998h75v-78c18 24 40 44.333 66 61s59.333 25 100 25c34.667 0 67.167 -8.16699 97.5 -24.5s55 -40.666 74 -72.999s28.5 -72.166 28.5 -119.499v-291h-75v289c0 45.333 -13 81.833 -39 109.5s-59.667 41.5 -101 41.5
c-28 0 -53.333 -6.33301 -76 -19s-40.834 -30.5 -54.501 -53.5s-20.5 -49.5 -20.5 -79.5v-288h-75zM229.001 569.998l61 105h107l-107 -105h-61z" />
    <glyph glyph-name="uni0145" unicode="&#x145;" horiz-adv-x="733" 
d="M81 0v662h87l409 -557v557h75v-662h-87l-409 559v-559h-75zM309 -198l44 150h73l-66 -150h-51z" />
    <glyph glyph-name="uni0146" unicode="&#x146;" horiz-adv-x="566" 
d="M65 0l0.000976562 499.998h75v-78c18 24 40 44.333 66 61s59.333 25 100 25c34.667 0 67.167 -8.16699 97.5 -24.5s55 -40.666 74 -72.999s28.5 -72.166 28.5 -119.499v-291h-75v289c0 45.333 -13 81.833 -39 109.5s-59.667 41.5 -101 41.5
c-28 0 -53.333 -6.33301 -76 -19s-40.834 -30.5 -54.501 -53.5s-20.5 -49.5 -20.5 -79.5v-288h-75zM202.001 -198.002l44 150h73l-66 -150h-51z" />
    <glyph glyph-name="Ncaron" unicode="&#x147;" horiz-adv-x="733" 
d="M81 0v662h87l409 -557v557h75v-662h-87l-409 559v-559h-75zM324 725l-98 105h82l59 -54l59 54h82l-97 -105h-87z" />
    <glyph glyph-name="ncaron" unicode="&#x148;" horiz-adv-x="566" 
d="M65 0l0.000976562 499.998h75v-78c18 24 40 44.333 66 61s59.333 25 100 25c34.667 0 67.167 -8.16699 97.5 -24.5s55 -40.666 74 -72.999s28.5 -72.166 28.5 -119.499v-291h-75v289c0 45.333 -13 81.833 -39 109.5s-59.667 41.5 -101 41.5
c-28 0 -53.333 -6.33301 -76 -19s-40.834 -30.5 -54.501 -53.5s-20.5 -49.5 -20.5 -79.5v-288h-75zM240.001 569.998l-98 105h82l59 -54l59 54h82l-97 -105h-87z" />
    <glyph glyph-name="Eng" unicode="&#x14a;" horiz-adv-x="658" 
d="M81 0l0.00195312 661.002h75v-78c24 30 53.167 52.167 87.5 66.5s68.833 21.5 103.5 21.5c38 0 74.167 -7.33301 108.5 -22s62.666 -37.167 84.999 -67.5s34.5 -69.5 36.5 -117.5v0v-485v0c-0.666992 -31.333 -6.66699 -61.166 -18 -89.499s-30 -51.333 -56 -69
s-60.667 -26.5 -104 -26.5c-37.333 0 -69 8.16699 -95 24.5s-45.833 37.166 -59.5 62.499s-21.834 51.333 -24.501 78h78c2 -14 7 -28.167 15 -42.5s19.167 -26.166 33.5 -35.499s31.833 -14 52.5 -14c30.667 0 53.167 6.5 67.5 19.5s23.833 28.833 28.5 47.5
s7 36.334 7 53.001v463c0 37.333 -8.5 66.666 -25.5 87.999s-38.833 36.666 -65.5 45.999s-54.667 14 -84 14c-28.667 0 -56 -5.33301 -82 -16s-47.333 -26.834 -64 -48.501s-25 -48.834 -25 -81.501v-452h-75z" />
    <glyph glyph-name="eng" unicode="&#x14b;" horiz-adv-x="568" 
d="M65 0l0.000976562 499.999h75v-78c18 24 40 44.333 66 61s59.333 25 100 25c34.667 0 67.167 -8.16699 97.5 -24.5s55 -40.666 74 -72.999s28.5 -72.166 28.5 -119.499v-341c0 -26 -5 -50.833 -15 -74.5s-26.333 -43.167 -49 -58.5s-53.334 -23 -92.001 -23
c-32.667 0 -60.167 7.5 -82.5 22.5s-39.5 34.167 -51.5 57.5s-19 47 -21 71h75c2 -12 6.33301 -24.5 13 -37.5s15.834 -24 27.501 -33s25.5 -13.5 41.5 -13.5c22 0 38.667 5.16699 50 15.5s19 22.666 23 36.999s6 27.5 6 39.5v336c0 45.333 -13 81.833 -39 109.5
s-59.667 41.5 -101 41.5c-28 0 -53.333 -6.33301 -76 -19s-40.834 -30.5 -54.501 -53.5s-20.5 -49.5 -20.5 -79.5v-288h-75z" />
    <glyph glyph-name="Omacron" unicode="&#x14c;" horiz-adv-x="750" 
d="M375 -8c-50 0 -95.667 8.66699 -137 26s-76.833 41.666 -106.5 72.999s-52.5 67.5 -68.5 108.5s-24 84.833 -24 131.5c0 47.333 8 91.333 24 132s38.833 76.667 68.5 108s65.167 55.666 106.5 72.999s87 26 137 26s95.667 -8.66699 137 -26s76.833 -41.666 106.5 -72.999
s52.5 -67.333 68.5 -108s24 -84.667 24 -132c0 -46.667 -8 -90.5 -24 -131.5s-38.833 -77.167 -68.5 -108.5s-65.167 -55.666 -106.5 -72.999s-87 -26 -137 -26zM375 65c54 0 100.5 11.833 139.5 35.5s69 55.667 90 96s31.5 85.166 31.5 134.499c0 50 -10.5 95 -31.5 135
s-51 71.833 -90 95.5s-85.5 35.5 -139.5 35.5c-53.333 0 -99.666 -11.833 -138.999 -35.5s-69.5 -55.5 -90.5 -95.5s-31.5 -85 -31.5 -135c0 -49.333 10.5 -94.166 31.5 -134.499s51.167 -72.333 90.5 -96s85.666 -35.5 138.999 -35.5zM243 736v60h264v-60h-264z" />
    <glyph glyph-name="omacron" unicode="&#x14d;" horiz-adv-x="564" 
d="M282 -8c-50.667 0 -94.667 11.5 -132 34.5s-66 54.167 -86 93.5s-30 82.666 -30 129.999c0 48 10 91.5 30 130.5s48.667 70 86 93s81.333 34.5 132 34.5c51.333 0 95.5 -11.5 132.5 -34.5s65.5 -54 85.5 -93s30 -82.5 30 -130.5c0 -47.333 -10 -90.666 -30 -129.999
s-48.5 -70.5 -85.5 -93.5s-81.167 -34.5 -132.5 -34.5zM282 60c37.333 0 68.833 8.66699 94.5 26s45.167 40.5 58.5 69.5s20 60.5 20 94.5c0 34.667 -6.66699 66.334 -20 95.001s-32.833 51.667 -58.5 69s-57.167 26 -94.5 26c-36.667 0 -68 -8.66699 -94 -26
s-45.667 -40.333 -59 -69s-20 -60.334 -20 -95.001c0 -34 6.66699 -65.5 20 -94.5s33 -52.167 59 -69.5s57.333 -26 94 -26zM150 584v60h264v-60h-264z" />
    <glyph glyph-name="Obreve" unicode="&#x14e;" horiz-adv-x="750" 
d="M375 -8c-50 0 -95.667 8.66699 -137 26s-76.833 41.666 -106.5 72.999s-52.5 67.5 -68.5 108.5s-24 84.833 -24 131.5c0 47.333 8 91.333 24 132s38.833 76.667 68.5 108s65.167 55.666 106.5 72.999s87 26 137 26s95.667 -8.66699 137 -26s76.833 -41.666 106.5 -72.999
s52.5 -67.333 68.5 -108s24 -84.667 24 -132c0 -46.667 -8 -90.5 -24 -131.5s-38.833 -77.167 -68.5 -108.5s-65.167 -55.666 -106.5 -72.999s-87 -26 -137 -26zM375 65c54 0 100.5 11.833 139.5 35.5s69 55.667 90 96s31.5 85.166 31.5 134.499c0 50 -10.5 95 -31.5 135
s-51 71.833 -90 95.5s-85.5 35.5 -139.5 35.5c-53.333 0 -99.666 -11.833 -138.999 -35.5s-69.5 -55.5 -90.5 -95.5s-31.5 -85 -31.5 -135c0 -49.333 10.5 -94.166 31.5 -134.499s51.167 -72.333 90.5 -96s85.666 -35.5 138.999 -35.5zM376 717
c-32.667 0 -60.667 9.33398 -84 28.001s-35 41 -35 67c0 5.33301 0.666992 10.333 2 15l4 14h18c2 -18.667 12 -34.167 30 -46.5s39.667 -18.5 65 -18.5c24.667 0 46 6.16699 64 18.5s28 27.833 30 46.5h18c4 -8.66699 6 -18.334 6 -29.001c0 -26 -11.5 -48.333 -34.5 -67
s-50.833 -28 -83.5 -28z" />
    <glyph glyph-name="obreve" unicode="&#x14f;" horiz-adv-x="564" 
d="M282 -8c-50.667 0 -94.667 11.5 -132 34.5s-66 54.167 -86 93.5s-30 82.666 -30 129.999c0 48 10 91.5 30 130.5s48.667 70 86 93s81.333 34.5 132 34.5c51.333 0 95.5 -11.5 132.5 -34.5s65.5 -54 85.5 -93s30 -82.5 30 -130.5c0 -47.333 -10 -90.666 -30 -129.999
s-48.5 -70.5 -85.5 -93.5s-81.167 -34.5 -132.5 -34.5zM282 60c37.333 0 68.833 8.66699 94.5 26s45.167 40.5 58.5 69.5s20 60.5 20 94.5c0 34.667 -6.66699 66.334 -20 95.001s-32.833 51.667 -58.5 69s-57.167 26 -94.5 26c-36.667 0 -68 -8.66699 -94 -26
s-45.667 -40.333 -59 -69s-20 -60.334 -20 -95.001c0 -34 6.66699 -65.5 20 -94.5s33 -52.167 59 -69.5s57.333 -26 94 -26zM283 567c-32.667 0 -60.667 9.33398 -84 28.001s-35 41 -35 67c0 5.33301 0.666992 10.333 2 15l4 14h18c2 -18.667 12 -34.167 30 -46.5
s39.667 -18.5 65 -18.5c24.667 0 46 6.16699 64 18.5s28 27.833 30 46.5h18c4 -8.66699 6 -18.334 6 -29.001c0 -26 -11.5 -48.333 -34.5 -67s-50.833 -28 -83.5 -28z" />
    <glyph glyph-name="Ohungarumlaut" unicode="&#x150;" horiz-adv-x="750" 
d="M375 -8c-50 0 -95.667 8.66699 -137 26s-76.833 41.666 -106.5 72.999s-52.5 67.5 -68.5 108.5s-24 84.833 -24 131.5c0 47.333 8 91.333 24 132s38.833 76.667 68.5 108s65.167 55.666 106.5 72.999s87 26 137 26s95.667 -8.66699 137 -26s76.833 -41.666 106.5 -72.999
s52.5 -67.333 68.5 -108s24 -84.667 24 -132c0 -46.667 -8 -90.5 -24 -131.5s-38.833 -77.167 -68.5 -108.5s-65.167 -55.666 -106.5 -72.999s-87 -26 -137 -26zM375 65c54 0 100.5 11.833 139.5 35.5s69 55.667 90 96s31.5 85.166 31.5 134.499c0 50 -10.5 95 -31.5 135
s-51 71.833 -90 95.5s-85.5 35.5 -139.5 35.5c-53.333 0 -99.666 -11.833 -138.999 -35.5s-69.5 -55.5 -90.5 -95.5s-31.5 -85 -31.5 -135c0 -49.333 10.5 -94.166 31.5 -134.499s51.167 -72.333 90.5 -96s85.666 -35.5 138.999 -35.5zM243 715l61 105h107l-107 -105h-61z
M399 715l61 105h107l-107 -105h-61z" />
    <glyph glyph-name="ohungarumlaut" unicode="&#x151;" horiz-adv-x="564" 
d="M282 -8c-50.667 0 -94.667 11.5 -132 34.5s-66 54.167 -86 93.5s-30 82.666 -30 129.999c0 48 10 91.5 30 130.5s48.667 70 86 93s81.333 34.5 132 34.5c51.333 0 95.5 -11.5 132.5 -34.5s65.5 -54 85.5 -93s30 -82.5 30 -130.5c0 -47.333 -10 -90.666 -30 -129.999
s-48.5 -70.5 -85.5 -93.5s-81.167 -34.5 -132.5 -34.5zM282 60c37.333 0 68.833 8.66699 94.5 26s45.167 40.5 58.5 69.5s20 60.5 20 94.5c0 34.667 -6.66699 66.334 -20 95.001s-32.833 51.667 -58.5 69s-57.167 26 -94.5 26c-36.667 0 -68 -8.66699 -94 -26
s-45.667 -40.333 -59 -69s-20 -60.334 -20 -95.001c0 -34 6.66699 -65.5 20 -94.5s33 -52.167 59 -69.5s57.333 -26 94 -26zM146 570l61 105h107l-107 -105h-61zM302 570l61 105h107l-107 -105h-61z" />
    <glyph glyph-name="OE" unicode="&#x152;" horiz-adv-x="1144" 
d="M365 -8c-66.667 0 -124.5 15.1689 -173.5 45.502s-86.667 71.166 -113 122.499s-39.5 108.333 -39.5 171s13.167 119.667 39.5 171s64 92.166 113 122.499s106.833 45.5 173.5 45.5c55.333 0 103.666 -10.5 144.999 -31.5s75.333 -49.5 102 -85.5v109h492v-72h-417v-223
h373v-73h-373v-222h417v-72h-492v108c-26.667 -35.333 -60.667 -63.5 -102 -84.5s-89.666 -31.5 -144.999 -31.5zM365 65.002c54 0 99.667 11.833 137 35.5s65.666 55.667 84.999 96s29 85.166 29 134.499c0 50 -9.66699 95 -29 135s-47.666 71.833 -84.999 95.5
s-83 35.5 -137 35.5c-53.333 0 -98.833 -11.833 -136.5 -35.5s-66.167 -55.5 -85.5 -95.5s-29 -85 -29 -135c0 -49.333 9.66699 -94.166 29 -134.499s47.833 -72.333 85.5 -96s83.167 -35.5 136.5 -35.5z" />
    <glyph glyph-name="oe" unicode="&#x153;" horiz-adv-x="972" 
d="M282 -8c-50.667 0 -94.668 11.5 -132.001 34.5s-66 54.167 -86 93.5s-30 82.666 -30 129.999c0 48 10 91.5 30 130.5s48.667 70 86 93s81.333 34.5 132 34.5c49.333 0 91.5 -11.167 126.5 -33.5s61.833 -51.833 80.5 -88.5c19.333 36.667 46.333 66.167 81 88.5
s77 33.5 127 33.5c51.333 0 95.5 -11.5 132.5 -34.5s65.5 -54 85.5 -93s30 -82.5 30 -130.5v-30h-419c4 -29.333 13.333 -56.166 28 -80.499s34.667 -43.666 60 -57.999s55 -21.5 89 -21.5c37.333 0 68.333 9 93 27s43.334 41.333 56.001 70h80
c-16 -48.667 -44.5 -88.334 -85.5 -119.001s-90.833 -46 -149.5 -46c-50 0 -92.333 11 -127 33s-61.667 51.333 -81 88c-18.667 -36.667 -45.5 -66 -80.5 -88s-77.167 -33 -126.5 -33zM281.999 60c37.333 0 68.833 8.66699 94.5 26s45.167 40.5 58.5 69.5s20 60.5 20 94.5
c0 34.667 -6.66699 66.334 -20 95.001s-32.833 51.667 -58.5 69s-57.167 26 -94.5 26c-36.667 0 -68 -8.66699 -94 -26s-45.667 -40.333 -59 -69s-20 -60.334 -20 -95.001c0 -34 6.66699 -65.5 20 -94.5s33 -52.167 59 -69.5s57.333 -26 94 -26zM526.999 290h340
c-6.66699 42.667 -24.667 78.334 -54 107.001s-68 43 -116 43s-86.5 -14.333 -115.5 -43s-47.167 -64.334 -54.5 -107.001z" />
    <glyph glyph-name="Racute" unicode="&#x154;" horiz-adv-x="669" 
d="M81 0l0.000976562 661.999h317c68 0 122.167 -18.667 162.5 -56s60.5 -87.666 60.5 -150.999c0 -42.667 -8.16699 -76.667 -24.5 -102s-36.833 -44.5 -61.5 -57.5s-49.334 -22.5 -74.001 -28.5l174 -267h-89l-160 254h-230v-254h-75zM156.001 324.999h229
c24 0 48.333 3.66699 73 11s45.5 20.5 62.5 39.5s25.5 45.5 25.5 79.5c0 42 -14.333 75.167 -43 99.5s-66.667 36.5 -114 36.5h-233v-266zM301.001 724.999l61 105h107l-107 -105h-61z" />
    <glyph glyph-name="racute" unicode="&#x155;" horiz-adv-x="345" 
d="M65 0l-0.00195312 499.999h75v-123c2.66699 8.66699 7.83398 20.167 15.501 34.5s18.834 28.833 33.501 43.5s33.167 27.167 55.5 37.5s48.833 15.5 79.5 15.5h5v-75h-9c-37.333 0 -69.5 -10.167 -96.5 -30.5s-47.667 -46.666 -62 -78.999s-21.5 -66.833 -21.5 -103.5
v-220h-75zM118.998 569.999l61 105h107l-107 -105h-61z" />
    <glyph glyph-name="uni0156" unicode="&#x156;" horiz-adv-x="669" 
d="M81 0l0.000976562 661.999h317c68 0 122.167 -18.667 162.5 -56s60.5 -87.666 60.5 -150.999c0 -42.667 -8.16699 -76.667 -24.5 -102s-36.833 -44.5 -61.5 -57.5s-49.334 -22.5 -74.001 -28.5l174 -267h-89l-160 254h-230v-254h-75zM156.001 324.999h229
c24 0 48.333 3.66699 73 11s45.5 20.5 62.5 39.5s25.5 45.5 25.5 79.5c0 42 -14.333 75.167 -43 99.5s-66.667 36.5 -114 36.5h-233v-266zM277.001 -198.001l44 150h73l-66 -150h-51z" />
    <glyph glyph-name="uni0157" unicode="&#x157;" horiz-adv-x="345" 
d="M65 0l-0.00195312 499.999h75v-123c2.66699 8.66699 7.83398 20.167 15.501 34.5s18.834 28.833 33.501 43.5s33.167 27.167 55.5 37.5s48.833 15.5 79.5 15.5h5v-75h-9c-37.333 0 -69.5 -10.167 -96.5 -30.5s-47.667 -46.666 -62 -78.999s-21.5 -66.833 -21.5 -103.5
v-220h-75zM21.998 -198.001l44 150h73l-66 -150h-51z" />
    <glyph glyph-name="Rcaron" unicode="&#x158;" horiz-adv-x="669" 
d="M81 0l0.000976562 661.999h317c68 0 122.167 -18.667 162.5 -56s60.5 -87.666 60.5 -150.999c0 -42.667 -8.16699 -76.667 -24.5 -102s-36.833 -44.5 -61.5 -57.5s-49.334 -22.5 -74.001 -28.5l174 -267h-89l-160 254h-230v-254h-75zM156.001 324.999h229
c24 0 48.333 3.66699 73 11s45.5 20.5 62.5 39.5s25.5 45.5 25.5 79.5c0 42 -14.333 75.167 -43 99.5s-66.667 36.5 -114 36.5h-233v-266zM292.001 724.999l-98 105h82l59 -54l59 54h82l-97 -105h-87z" />
    <glyph glyph-name="rcaron" unicode="&#x159;" horiz-adv-x="345" 
d="M65 0l-0.00195312 499.999h75v-123c2.66699 8.66699 7.83398 20.167 15.501 34.5s18.834 28.833 33.501 43.5s33.167 27.167 55.5 37.5s48.833 15.5 79.5 15.5h5v-75h-9c-37.333 0 -69.5 -10.167 -96.5 -30.5s-47.667 -46.666 -62 -78.999s-21.5 -66.833 -21.5 -103.5
v-220h-75zM129.998 569.999l-98 105h82l59 -54l59 54h82l-97 -105h-87z" />
    <glyph glyph-name="Sacute" unicode="&#x15a;" horiz-adv-x="615" 
d="M318 -8c-65.333 0 -118.338 8.83496 -159.005 26.502s-71.167 42.167 -91.5 73.5s-32.166 66.666 -35.499 105.999h78c2 -32 12.667 -57.833 32 -77.5s44.833 -34.167 76.5 -43.5s66.5 -14 104.5 -14c56 0 100.333 9.83301 133 29.5s49 48.834 49 87.501
c0 23.333 -8.16699 42.166 -24.5 56.499s-38 26.166 -65 35.499s-56.5 17.833 -88.5 25.5s-64.167 15.834 -96.5 24.501s-62 19.667 -89 33s-48.667 30.5 -65 51.5s-24.5 47.833 -24.5 80.5c0 54 20.833 98 62.5 132s103.834 51 186.501 51c58.667 0 107 -8.83301 145 -26.5
s66.5 -40.834 85.5 -69.501s29.5 -59.667 31.5 -93h-77c-4 33.333 -20.667 61.5 -50 84.5s-74.333 34.5 -135 34.5c-37.333 0 -67.666 -3.66699 -90.999 -11s-41.166 -16.833 -53.499 -28.5s-20.666 -23.834 -24.999 -36.501s-6.5 -24.667 -6.5 -36
c0 -22 8.16699 -39.833 24.5 -53.5s38 -25 65 -34s56.833 -17.167 89.5 -24.5s65.167 -15.5 97.5 -24.5s62 -20.333 89 -34s48.667 -31.167 65 -52.5s24.5 -48.666 24.5 -81.999c0 -61.333 -23.333 -108.5 -70 -141.5s-110.667 -49.5 -192 -49.5zM273.995 725.002l61 105
h107l-107 -105h-61z" />
    <glyph glyph-name="sacute" unicode="&#x15b;" horiz-adv-x="482" 
d="M247 -8c-46 0 -84.833 7.66797 -116.5 23.001s-55.834 35.5 -72.501 60.5s-26 52.167 -28 81.5h78c2 -16.667 7.83301 -32.834 17.5 -48.501s24.5 -28.334 44.5 -38.001s46 -14.5 78 -14.5c10 0 22.333 1 37 3s28.834 5.66699 42.501 11s25.167 13.333 34.5 24
s14 24.334 14 41.001c0 20.667 -8 36.667 -24 48s-36.667 20.166 -62 26.499s-52.166 12.5 -80.499 18.5s-55.166 13.833 -80.499 23.5s-46 23.334 -62 41.001s-24 41.834 -24 72.501c0 45.333 16.5 80.5 49.5 105.5s81.833 37.5 146.5 37.5
c44 0 79.833 -6.83301 107.5 -20.5s48.667 -31.167 63 -52.5s22.833 -44.333 25.5 -69h-76c-2.66699 21.333 -13.167 39.666 -31.5 54.999s-48.5 23 -90.5 23c-79.333 0 -119 -24 -119 -72c0 -20 8 -35.333 24 -46s36.667 -19.167 62 -25.5s52.166 -12.333 80.499 -18
s55.166 -13.5 80.499 -23.5s46 -24.167 62 -42.5s24 -43.166 24 -74.499c0 -48.667 -18.5 -85.834 -55.5 -111.501s-86.5 -38.5 -148.5 -38.5zM187 570.001l61 105h107l-107 -105h-61z" />
    <glyph glyph-name="Scircumflex" unicode="&#x15c;" horiz-adv-x="615" 
d="M318 -8c-65.333 0 -118.338 8.83496 -159.005 26.502s-71.167 42.167 -91.5 73.5s-32.166 66.666 -35.499 105.999h78c2 -32 12.667 -57.833 32 -77.5s44.833 -34.167 76.5 -43.5s66.5 -14 104.5 -14c56 0 100.333 9.83301 133 29.5s49 48.834 49 87.501
c0 23.333 -8.16699 42.166 -24.5 56.499s-38 26.166 -65 35.499s-56.5 17.833 -88.5 25.5s-64.167 15.834 -96.5 24.501s-62 19.667 -89 33s-48.667 30.5 -65 51.5s-24.5 47.833 -24.5 80.5c0 54 20.833 98 62.5 132s103.834 51 186.501 51c58.667 0 107 -8.83301 145 -26.5
s66.5 -40.834 85.5 -69.501s29.5 -59.667 31.5 -93h-77c-4 33.333 -20.667 61.5 -50 84.5s-74.333 34.5 -135 34.5c-37.333 0 -67.666 -3.66699 -90.999 -11s-41.166 -16.833 -53.499 -28.5s-20.666 -23.834 -24.999 -36.501s-6.5 -24.667 -6.5 -36
c0 -22 8.16699 -39.833 24.5 -53.5s38 -25 65 -34s56.833 -17.167 89.5 -24.5s65.167 -15.5 97.5 -24.5s62 -20.333 89 -34s48.667 -31.167 65 -52.5s24.5 -48.666 24.5 -81.999c0 -61.333 -23.333 -108.5 -70 -141.5s-110.667 -49.5 -192 -49.5zM166.995 725.002l98 105h87
l97 -105h-82l-59 54l-59 -54h-82z" />
    <glyph glyph-name="scircumflex" unicode="&#x15d;" horiz-adv-x="482" 
d="M247 -8c-46 0 -84.833 7.66797 -116.5 23.001s-55.834 35.5 -72.501 60.5s-26 52.167 -28 81.5h78c2 -16.667 7.83301 -32.834 17.5 -48.501s24.5 -28.334 44.5 -38.001s46 -14.5 78 -14.5c10 0 22.333 1 37 3s28.834 5.66699 42.501 11s25.167 13.333 34.5 24
s14 24.334 14 41.001c0 20.667 -8 36.667 -24 48s-36.667 20.166 -62 26.499s-52.166 12.5 -80.499 18.5s-55.166 13.833 -80.499 23.5s-46 23.334 -62 41.001s-24 41.834 -24 72.501c0 45.333 16.5 80.5 49.5 105.5s81.833 37.5 146.5 37.5
c44 0 79.833 -6.83301 107.5 -20.5s48.667 -31.167 63 -52.5s22.833 -44.333 25.5 -69h-76c-2.66699 21.333 -13.167 39.666 -31.5 54.999s-48.5 23 -90.5 23c-79.333 0 -119 -24 -119 -72c0 -20 8 -35.333 24 -46s36.667 -19.167 62 -25.5s52.166 -12.333 80.499 -18
s55.166 -13.5 80.499 -23.5s46 -24.167 62 -42.5s24 -43.166 24 -74.499c0 -48.667 -18.5 -85.834 -55.5 -111.501s-86.5 -38.5 -148.5 -38.5zM100 570.001l98 105h87l97 -105h-82l-59 54l-59 -54h-82z" />
    <glyph glyph-name="Scedilla" unicode="&#x15e;" horiz-adv-x="615" 
d="M318 -8c-65.333 0 -118.338 8.83496 -159.005 26.502s-71.167 42.167 -91.5 73.5s-32.166 66.666 -35.499 105.999h78c2 -32 12.667 -57.833 32 -77.5s44.833 -34.167 76.5 -43.5s66.5 -14 104.5 -14c56 0 100.333 9.83301 133 29.5s49 48.834 49 87.501
c0 23.333 -8.16699 42.166 -24.5 56.499s-38 26.166 -65 35.499s-56.5 17.833 -88.5 25.5s-64.167 15.834 -96.5 24.501s-62 19.667 -89 33s-48.667 30.5 -65 51.5s-24.5 47.833 -24.5 80.5c0 54 20.833 98 62.5 132s103.834 51 186.501 51c58.667 0 107 -8.83301 145 -26.5
s66.5 -40.834 85.5 -69.501s29.5 -59.667 31.5 -93h-77c-4 33.333 -20.667 61.5 -50 84.5s-74.333 34.5 -135 34.5c-37.333 0 -67.666 -3.66699 -90.999 -11s-41.166 -16.833 -53.499 -28.5s-20.666 -23.834 -24.999 -36.501s-6.5 -24.667 -6.5 -36
c0 -22 8.16699 -39.833 24.5 -53.5s38 -25 65 -34s56.833 -17.167 89.5 -24.5s65.167 -15.5 97.5 -24.5s62 -20.333 89 -34s48.667 -31.167 65 -52.5s24.5 -48.666 24.5 -81.999c0 -61.333 -23.333 -108.5 -70 -141.5s-110.667 -49.5 -192 -49.5zM323.995 -205.998
c-25.333 0 -48.166 4.16699 -68.499 12.5s-36.833 17.833 -49.5 28.5l19 33c10.667 -7.33301 23 -14.166 37 -20.499s30 -9.5 48 -9.5c15.333 0 28.333 2.66699 39 8s16 14.666 16 27.999c0 10 -5.33301 18 -16 24s-23 9 -37 9c-12 0 -23.667 -1.66699 -35 -5l-21 17l69 108
h43l-44 -77c8 1.33301 15.333 2 22 2c25.333 0 47 -6.83301 65 -20.5s27 -32.5 27 -56.5c0 -28 -11.333 -48.5 -34 -61.5s-49.334 -19.5 -80.001 -19.5z" />
    <glyph glyph-name="scedilla" unicode="&#x15f;" horiz-adv-x="482" 
d="M247 -8c-46 0 -84.833 7.66797 -116.5 23.001s-55.834 35.5 -72.501 60.5s-26 52.167 -28 81.5h78c2 -16.667 7.83301 -32.834 17.5 -48.501s24.5 -28.334 44.5 -38.001s46 -14.5 78 -14.5c10 0 22.333 1 37 3s28.834 5.66699 42.501 11s25.167 13.333 34.5 24
s14 24.334 14 41.001c0 20.667 -8 36.667 -24 48s-36.667 20.166 -62 26.499s-52.166 12.5 -80.499 18.5s-55.166 13.833 -80.499 23.5s-46 23.334 -62 41.001s-24 41.834 -24 72.501c0 45.333 16.5 80.5 49.5 105.5s81.833 37.5 146.5 37.5
c44 0 79.833 -6.83301 107.5 -20.5s48.667 -31.167 63 -52.5s22.833 -44.333 25.5 -69h-76c-2.66699 21.333 -13.167 39.666 -31.5 54.999s-48.5 23 -90.5 23c-79.333 0 -119 -24 -119 -72c0 -20 8 -35.333 24 -46s36.667 -19.167 62 -25.5s52.166 -12.333 80.499 -18
s55.166 -13.5 80.499 -23.5s46 -24.167 62 -42.5s24 -43.166 24 -74.499c0 -48.667 -18.5 -85.834 -55.5 -111.501s-86.5 -38.5 -148.5 -38.5zM244 -205.999c-25.333 0 -48.166 4.16699 -68.499 12.5s-36.833 17.833 -49.5 28.5l19 33
c10.667 -7.33301 23 -14.166 37 -20.499s30 -9.5 48 -9.5c15.333 0 28.333 2.66699 39 8s16 14.666 16 27.999c0 10 -5.33301 18 -16 24s-23 9 -37 9c-12 0 -23.667 -1.66699 -35 -5l-21 17l69 108h43l-44 -77c8 1.33301 15.333 2 22 2c25.333 0 47 -6.83301 65 -20.5
s27 -32.5 27 -56.5c0 -28 -11.333 -48.5 -34 -61.5s-49.334 -19.5 -80.001 -19.5z" />
    <glyph glyph-name="Scaron" unicode="&#x160;" horiz-adv-x="615" 
d="M318 -8c-65.333 0 -118.338 8.83496 -159.005 26.502s-71.167 42.167 -91.5 73.5s-32.166 66.666 -35.499 105.999h78c2 -32 12.667 -57.833 32 -77.5s44.833 -34.167 76.5 -43.5s66.5 -14 104.5 -14c56 0 100.333 9.83301 133 29.5s49 48.834 49 87.501
c0 23.333 -8.16699 42.166 -24.5 56.499s-38 26.166 -65 35.499s-56.5 17.833 -88.5 25.5s-64.167 15.834 -96.5 24.501s-62 19.667 -89 33s-48.667 30.5 -65 51.5s-24.5 47.833 -24.5 80.5c0 54 20.833 98 62.5 132s103.834 51 186.501 51c58.667 0 107 -8.83301 145 -26.5
s66.5 -40.834 85.5 -69.501s29.5 -59.667 31.5 -93h-77c-4 33.333 -20.667 61.5 -50 84.5s-74.333 34.5 -135 34.5c-37.333 0 -67.666 -3.66699 -90.999 -11s-41.166 -16.833 -53.499 -28.5s-20.666 -23.834 -24.999 -36.501s-6.5 -24.667 -6.5 -36
c0 -22 8.16699 -39.833 24.5 -53.5s38 -25 65 -34s56.833 -17.167 89.5 -24.5s65.167 -15.5 97.5 -24.5s62 -20.333 89 -34s48.667 -31.167 65 -52.5s24.5 -48.666 24.5 -81.999c0 -61.333 -23.333 -108.5 -70 -141.5s-110.667 -49.5 -192 -49.5zM264.995 725.002l-98 105
h82l59 -54l59 54h82l-97 -105h-87z" />
    <glyph glyph-name="scaron" unicode="&#x161;" horiz-adv-x="482" 
d="M247 -8c-46 0 -84.833 7.66797 -116.5 23.001s-55.834 35.5 -72.501 60.5s-26 52.167 -28 81.5h78c2 -16.667 7.83301 -32.834 17.5 -48.501s24.5 -28.334 44.5 -38.001s46 -14.5 78 -14.5c10 0 22.333 1 37 3s28.834 5.66699 42.501 11s25.167 13.333 34.5 24
s14 24.334 14 41.001c0 20.667 -8 36.667 -24 48s-36.667 20.166 -62 26.499s-52.166 12.5 -80.499 18.5s-55.166 13.833 -80.499 23.5s-46 23.334 -62 41.001s-24 41.834 -24 72.501c0 45.333 16.5 80.5 49.5 105.5s81.833 37.5 146.5 37.5
c44 0 79.833 -6.83301 107.5 -20.5s48.667 -31.167 63 -52.5s22.833 -44.333 25.5 -69h-76c-2.66699 21.333 -13.167 39.666 -31.5 54.999s-48.5 23 -90.5 23c-79.333 0 -119 -24 -119 -72c0 -20 8 -35.333 24 -46s36.667 -19.167 62 -25.5s52.166 -12.333 80.499 -18
s55.166 -13.5 80.499 -23.5s46 -24.167 62 -42.5s24 -43.166 24 -74.499c0 -48.667 -18.5 -85.834 -55.5 -111.501s-86.5 -38.5 -148.5 -38.5zM198 570.001l-98 105h82l59 -54l59 54h82l-97 -105h-87z" />
    <glyph glyph-name="uni0162" unicode="&#x162;" horiz-adv-x="565" 
d="M245 0v591h-231v71h537v-71h-231v-591h-75zM273 -206c-25.333 0 -48.166 4.16699 -68.499 12.5s-36.833 17.833 -49.5 28.5l19 33c10.667 -7.33301 23 -14.166 37 -20.499s30 -9.5 48 -9.5c15.333 0 28.333 2.66699 39 8s16 14.666 16 27.999c0 10 -5.33301 18 -16 24
s-23 9 -37 9c-12 0 -23.667 -1.66699 -35 -5l-21 17l69 108h43l-44 -77c8 1.33301 15.333 2 22 2c25.333 0 47 -6.83301 65 -20.5s27 -32.5 27 -56.5c0 -28 -11.333 -48.5 -34 -61.5s-49.334 -19.5 -80.001 -19.5z" />
    <glyph glyph-name="uni0163" unicode="&#x163;" horiz-adv-x="326" 
d="M119 0v434h-102v66h102v179h75v-179h115v-66h-115v-434h-75zM159 -206c-25.333 0 -48.166 4.16699 -68.499 12.5s-36.833 17.833 -49.5 28.5l19 33c10.667 -7.33301 23 -14.166 37 -20.499s30 -9.5 48 -9.5c15.333 0 28.333 2.66699 39 8s16 14.666 16 27.999
c0 10 -5.33301 18 -16 24s-23 9 -37 9c-12 0 -23.667 -1.66699 -35 -5l-21 17l69 108h43l-44 -77c8 1.33301 15.333 2 22 2c25.333 0 47 -6.83301 65 -20.5s27 -32.5 27 -56.5c0 -28 -11.333 -48.5 -34 -61.5s-49.334 -19.5 -80.001 -19.5z" />
    <glyph glyph-name="Tcaron" unicode="&#x164;" horiz-adv-x="565" 
d="M245 0v591h-231v71h537v-71h-231v-591h-75zM240 725l-98 105h82l59 -54l59 54h82l-97 -105h-87z" />
    <glyph glyph-name="tcaron" unicode="&#x165;" horiz-adv-x="326" 
d="M119 0v434h-102v66h102v179h75v-179h115v-66h-115v-434h-75zM416 700l-35 -167h-55l14 167h76z" />
    <glyph glyph-name="Tbar" unicode="&#x166;" horiz-adv-x="565" 
d="M551 591h-231v-225h146v-70h-146v-296h-75v296h-146v70h146v225h-231v71h537v-71z" />
    <glyph glyph-name="tbar" unicode="&#x167;" horiz-adv-x="326" 
d="M119 0v243h-86v65h86v126h-102v66h102v179h75v-179h115v-66h-115v-126h86v-65h-86v-243h-75z" />
    <glyph glyph-name="Utilde" unicode="&#x168;" horiz-adv-x="709" 
d="M354 -8c-54.667 0 -103.169 12.167 -145.502 36.5s-75.5 58.5 -99.5 102.5s-36 95.333 -36 154v377h75v-379c0 -51.333 9.83301 -93 29.5 -125s45.334 -55.5 77.001 -70.5s64.834 -22.5 99.501 -22.5c35.333 0 68.666 7.5 99.999 22.5s57 38.5 77 70.5s30 73.667 30 125
v379h75v-377c0 -58 -12 -109 -36 -153s-57.167 -78.333 -99.5 -103s-91.166 -37 -146.499 -37zM424.998 723c-22 0 -40.1699 3.33301 -54.5029 10s-27.666 13.334 -39.999 20.001s-26.166 10 -41.499 10s-26.666 -4.33301 -33.999 -13s-12.666 -17.334 -15.999 -26.001h-31
c3.33301 24.667 12.166 47.167 26.499 67.5s37.833 30.5 70.5 30.5c21.333 0 39.166 -3.33301 53.499 -10s27.666 -13.5 39.999 -20.5s26.166 -10.5 41.499 -10.5c14.667 0 25.834 4.5 33.501 13.5s12.834 17.833 15.501 26.5h32
c-3.33301 -24.667 -12.166 -47.167 -26.499 -67.5s-37.5 -30.5 -69.5 -30.5z" />
    <glyph glyph-name="utilde" unicode="&#x169;" horiz-adv-x="566" 
d="M260 -8c-34 0 -66.334 8.16895 -97.001 24.502s-55.5 40.666 -74.5 72.999s-28.5 72.166 -28.5 119.499v291h75v-289c0 -45.333 13.167 -81.833 39.5 -109.5s59.833 -41.5 100.5 -41.5c28 0 53.333 6.5 76 19.5s40.834 30.833 54.501 53.5s20.5 49 20.5 79v288h75v-500
h-75v78c-18 -24 -40 -44.333 -66 -61s-59.333 -25 -100 -25zM343.999 569.002c-22 0 -40.1699 3.33301 -54.5029 10s-27.666 13.334 -39.999 20.001s-26.166 10 -41.499 10s-26.666 -4.33301 -33.999 -13s-12.666 -17.334 -15.999 -26.001h-31
c3.33301 24.667 12.166 47.167 26.499 67.5s37.833 30.5 70.5 30.5c21.333 0 39.166 -3.33301 53.499 -10s27.666 -13.5 39.999 -20.5s26.166 -10.5 41.499 -10.5c14.667 0 25.834 4.5 33.501 13.5s12.834 17.833 15.501 26.5h32
c-3.33301 -24.667 -12.166 -47.167 -26.499 -67.5s-37.5 -30.5 -69.5 -30.5z" />
    <glyph glyph-name="Umacron" unicode="&#x16a;" horiz-adv-x="709" 
d="M354 -8c-54.667 0 -103.169 12.167 -145.502 36.5s-75.5 58.5 -99.5 102.5s-36 95.333 -36 154v377h75v-379c0 -51.333 9.83301 -93 29.5 -125s45.334 -55.5 77.001 -70.5s64.834 -22.5 99.501 -22.5c35.333 0 68.666 7.5 99.999 22.5s57 38.5 77 70.5s30 73.667 30 125
v379h75v-377c0 -58 -12 -109 -36 -153s-57.167 -78.333 -99.5 -103s-91.166 -37 -146.499 -37zM222.998 736v60h264v-60h-264z" />
    <glyph glyph-name="umacron" unicode="&#x16b;" horiz-adv-x="566" 
d="M260 -8c-34 0 -66.334 8.16895 -97.001 24.502s-55.5 40.666 -74.5 72.999s-28.5 72.166 -28.5 119.499v291h75v-289c0 -45.333 13.167 -81.833 39.5 -109.5s59.833 -41.5 100.5 -41.5c28 0 53.333 6.5 76 19.5s40.834 30.833 54.501 53.5s20.5 49 20.5 79v288h75v-500
h-75v78c-18 -24 -40 -44.333 -66 -61s-59.333 -25 -100 -25zM150.999 584.002v60h264v-60h-264z" />
    <glyph glyph-name="Ubreve" unicode="&#x16c;" horiz-adv-x="709" 
d="M354 -8c-54.667 0 -103.169 12.167 -145.502 36.5s-75.5 58.5 -99.5 102.5s-36 95.333 -36 154v377h75v-379c0 -51.333 9.83301 -93 29.5 -125s45.334 -55.5 77.001 -70.5s64.834 -22.5 99.501 -22.5c35.333 0 68.666 7.5 99.999 22.5s57 38.5 77 70.5s30 73.667 30 125
v379h75v-377c0 -58 -12 -109 -36 -153s-57.167 -78.333 -99.5 -103s-91.166 -37 -146.499 -37zM355.998 717c-32.667 0 -60.667 9.33398 -84 28.001s-35 41 -35 67c0 5.33301 0.666992 10.333 2 15l4 14h18c2 -18.667 12 -34.167 30 -46.5s39.667 -18.5 65 -18.5
c24.667 0 46 6.16699 64 18.5s28 27.833 30 46.5h18c4 -8.66699 6 -18.334 6 -29.001c0 -26 -11.5 -48.333 -34.5 -67s-50.833 -28 -83.5 -28z" />
    <glyph glyph-name="ubreve" unicode="&#x16d;" horiz-adv-x="566" 
d="M260 -8c-34 0 -66.334 8.16895 -97.001 24.502s-55.5 40.666 -74.5 72.999s-28.5 72.166 -28.5 119.499v291h75v-289c0 -45.333 13.167 -81.833 39.5 -109.5s59.833 -41.5 100.5 -41.5c28 0 53.333 6.5 76 19.5s40.834 30.833 54.501 53.5s20.5 49 20.5 79v288h75v-500
h-75v78c-18 -24 -40 -44.333 -66 -61s-59.333 -25 -100 -25zM283.999 567.002c-32.667 0 -60.667 9.33398 -84 28.001s-35 41 -35 67c0 5.33301 0.666992 10.333 2 15l4 14h18c2 -18.667 12 -34.167 30 -46.5s39.667 -18.5 65 -18.5c24.667 0 46 6.16699 64 18.5
s28 27.833 30 46.5h18c4 -8.66699 6 -18.334 6 -29.001c0 -26 -11.5 -48.333 -34.5 -67s-50.833 -28 -83.5 -28z" />
    <glyph glyph-name="Uring" unicode="&#x16e;" horiz-adv-x="709" 
d="M354 -8c-54.667 0 -103.169 12.167 -145.502 36.5s-75.5 58.5 -99.5 102.5s-36 95.333 -36 154v377h75v-379c0 -51.333 9.83301 -93 29.5 -125s45.334 -55.5 77.001 -70.5s64.834 -22.5 99.501 -22.5c35.333 0 68.666 7.5 99.999 22.5s57 38.5 77 70.5s30 73.667 30 125
v379h75v-377c0 -58 -12 -109 -36 -153s-57.167 -78.333 -99.5 -103s-91.166 -37 -146.499 -37zM353.998 635c-24.667 0 -45.667 8.66699 -63 26s-26 38.333 -26 63c0 25.333 8.66699 46.666 26 63.999s38.333 26 63 26c25.333 0 46.833 -8.66699 64.5 -26
s26.5 -38.666 26.5 -63.999c0 -24.667 -8.83301 -45.667 -26.5 -63s-39.167 -26 -64.5 -26zM353.998 680c12.667 0 23.334 4.33301 32.001 13s13 19 13 31c0 12.667 -4.33301 23.334 -13 32.001s-19.334 13 -32.001 13c-11.333 0 -21.333 -4.33301 -30 -13
s-13 -19.334 -13 -32.001c0 -12 4.33301 -22.333 13 -31s18.667 -13 30 -13z" />
    <glyph glyph-name="uring" unicode="&#x16f;" horiz-adv-x="566" 
d="M260 -8c-34 0 -66.334 8.16895 -97.001 24.502s-55.5 40.666 -74.5 72.999s-28.5 72.166 -28.5 119.499v291h75v-289c0 -45.333 13.167 -81.833 39.5 -109.5s59.833 -41.5 100.5 -41.5c28 0 53.333 6.5 76 19.5s40.834 30.833 54.501 53.5s20.5 49 20.5 79v288h75v-500
h-75v78c-18 -24 -40 -44.333 -66 -61s-59.333 -25 -100 -25zM281.999 556.002c-24.667 0 -45.667 8.66699 -63 26s-26 38.333 -26 63c0 25.333 8.66699 46.666 26 63.999s38.333 26 63 26c25.333 0 46.833 -8.66699 64.5 -26s26.5 -38.666 26.5 -63.999
c0 -24.667 -8.83301 -45.667 -26.5 -63s-39.167 -26 -64.5 -26zM281.999 601.002c12.667 0 23.334 4.33301 32.001 13s13 19 13 31c0 12.667 -4.33301 23.334 -13 32.001s-19.334 13 -32.001 13c-11.333 0 -21.333 -4.33301 -30 -13s-13 -19.334 -13 -32.001
c0 -12 4.33301 -22.333 13 -31s18.667 -13 30 -13z" />
    <glyph glyph-name="Uhungarumlaut" unicode="&#x170;" horiz-adv-x="709" 
d="M354 -8c-54.667 0 -103.169 12.167 -145.502 36.5s-75.5 58.5 -99.5 102.5s-36 95.333 -36 154v377h75v-379c0 -51.333 9.83301 -93 29.5 -125s45.334 -55.5 77.001 -70.5s64.834 -22.5 99.501 -22.5c35.333 0 68.666 7.5 99.999 22.5s57 38.5 77 70.5s30 73.667 30 125
v379h75v-377c0 -58 -12 -109 -36 -153s-57.167 -78.333 -99.5 -103s-91.166 -37 -146.499 -37zM222.998 715l61 105h107l-107 -105h-61zM378.998 715l61 105h107l-107 -105h-61z" />
    <glyph glyph-name="uhungarumlaut" unicode="&#x171;" horiz-adv-x="566" 
d="M260 -8c-34 0 -66.334 8.16895 -97.001 24.502s-55.5 40.666 -74.5 72.999s-28.5 72.166 -28.5 119.499v291h75v-289c0 -45.333 13.167 -81.833 39.5 -109.5s59.833 -41.5 100.5 -41.5c28 0 53.333 6.5 76 19.5s40.834 30.833 54.501 53.5s20.5 49 20.5 79v288h75v-500
h-75v78c-18 -24 -40 -44.333 -66 -61s-59.333 -25 -100 -25zM146.999 570.002l61 105h107l-107 -105h-61zM302.999 570.002l61 105h107l-107 -105h-61z" />
    <glyph glyph-name="Uogonek" unicode="&#x172;" horiz-adv-x="709" 
d="M561 662l74.999 -0.000976562v-377c0 -52 -9.66699 -98.5 -29 -139.5s-46.333 -74.333 -81 -100s-75.334 -42.167 -122.001 -49.5c-10.667 -6.66699 -21.834 -14.5 -33.501 -23.5s-21.5 -19.167 -29.5 -30.5s-12 -24 -12 -38c0 -16 6.33301 -28.333 19 -37
s26.334 -13 41.001 -13c13.333 0 25.333 3.66699 36 11v-39c-10 -8 -21.667 -14 -35 -18s-27 -6 -41 -6c-24.667 0 -47 7 -67 21s-30 34.667 -30 62s8.83301 49.333 26.5 66s36.834 30.334 57.501 41.001c-51.333 3.33301 -96.833 17.333 -136.5 42s-70.667 58.5 -93 101.5
s-33.5 92.833 -33.5 149.5v377h75v-379c0 -51.333 9.83301 -93 29.5 -125s45.334 -55.5 77.001 -70.5s64.834 -22.5 99.501 -22.5c35.333 0 68.666 7.5 99.999 22.5s57 38.5 77 70.5s30 73.667 30 125v379z" />
    <glyph glyph-name="uogonek" unicode="&#x173;" horiz-adv-x="566" 
d="M466 -154c14 0 25.665 3.66895 34.998 11.002v-39c-9.33301 -8 -20.666 -14 -33.999 -18s-27 -6 -41 -6c-24.667 0 -47 7 -67 21s-30 34.667 -30 62c0 22.667 6.33301 41.834 19 57.501s28.167 28.667 46.5 39s35.166 19.166 50.499 26.499h-19v78
c-18 -24 -40 -44.333 -66 -61s-59.333 -25 -100 -25c-34 0 -66.333 8.16699 -97 24.5s-55.5 40.666 -74.5 72.999s-28.5 72.166 -28.5 119.499v291h75v-289c0 -45.333 13.167 -81.833 39.5 -109.5s59.833 -41.5 100.5 -41.5c28 0 53.333 6.5 76 19.5
s40.834 30.833 54.501 53.5s20.5 49 20.5 79v288h75v-500c-10 -6 -22.5 -14 -37.5 -24s-28.333 -21.667 -40 -35s-17.5 -28.333 -17.5 -45c0 -16 6.33301 -28.333 19 -37s26.334 -13 41.001 -13z" />
    <glyph glyph-name="Wcircumflex" unicode="&#x174;" horiz-adv-x="958" 
d="M215 0l-206 662h79l170 -556l178 556h86l178 -556l170 556h79l-206 -662h-85l-179 556l-179 -556h-85zM338 725l98 105h87l97 -105h-82l-59 54l-59 -54h-82z" />
    <glyph glyph-name="wcircumflex" unicode="&#x175;" horiz-adv-x="746" 
d="M162 0l-157 500h80l120 -407l127 407h82l127 -407l120 407h80l-157 -500h-86l-125 399l-125 -399h-86zM232 570l98 105h87l97 -105h-82l-59 54l-59 -54h-82z" />
    <glyph glyph-name="Ycircumflex" unicode="&#x176;" horiz-adv-x="636" 
d="M281 0v262l-278 400h91l224 -322l224 322h91l-277 -400v-262h-75zM178 725l98 105h87l97 -105h-82l-59 54l-59 -54h-82z" />
    <glyph glyph-name="ycircumflex" unicode="&#x177;" horiz-adv-x="497" 
d="M117 -198l91 205l-204 493h83l161 -410l164 410h82l-296 -698h-81zM108 570l98 105h87l97 -105h-82l-59 54l-59 -54h-82z" />
    <glyph glyph-name="Ydieresis" unicode="&#x178;" horiz-adv-x="636" 
d="M281 0v262l-278 400h91l224 -322l224 322h91l-277 -400v-262h-75zM196 730v83h89v-83h-89zM353 730v83h89v-83h-89z" />
    <glyph glyph-name="Zacute" unicode="&#x179;" horiz-adv-x="584" 
d="M29 0v71l432 521h-426v70h518v-72l-432 -520h432v-70h-524zM258 725l61 105h107l-107 -105h-61z" />
    <glyph glyph-name="zacute" unicode="&#x17a;" horiz-adv-x="458" 
d="M31 0v71l299 360h-295v69h390v-70l-300 -360h300v-70h-394zM175 570l61 105h107l-107 -105h-61z" />
    <glyph glyph-name="Zdotaccent" unicode="&#x17b;" horiz-adv-x="584" 
d="M29 0v71l432 521h-426v70h518v-72l-432 -520h432v-70h-524zM248 732v83h89v-83h-89z" />
    <glyph glyph-name="zdotaccent" unicode="&#x17c;" horiz-adv-x="458" 
d="M31 0v71l299 360h-295v69h390v-70l-300 -360h300v-70h-394zM185 580v83h89v-83h-89z" />
    <glyph glyph-name="Zcaron" unicode="&#x17d;" horiz-adv-x="584" 
d="M29 0v71l432 521h-426v70h518v-72l-432 -520h432v-70h-524zM249 725l-98 105h82l59 -54l59 54h82l-97 -105h-87z" />
    <glyph glyph-name="zcaron" unicode="&#x17e;" horiz-adv-x="458" 
d="M31 0v71l299 360h-295v69h390v-70l-300 -360h300v-70h-394zM186 570l-98 105h82l59 -54l59 54h82l-97 -105h-87z" />
    <glyph glyph-name="longs" unicode="&#x17f;" horiz-adv-x="239" 
d="M99 0v434.001h-86v66h86v44c0 54.667 16.5 95.667 49.5 123s78.167 41 135.5 41h6v-71h-10c-34.667 0 -61 -7.83301 -79 -23.5s-27 -40.834 -27 -75.501v-538h-75z" />
    <glyph glyph-name="uni0180" unicode="&#x180;" horiz-adv-x="594" 
d="M319 -8c-41.333 0 -76.833 7.99902 -106.5 23.999s-53.834 37.333 -72.501 64v-80h-75v558h-58v65h58v77h75v-77h215v-65h-215v-139c18.667 27.333 42.834 49 72.501 65s65.167 24 106.5 24c48.667 0 91.167 -11.5 127.5 -34.5s64.5 -54 84.5 -93s30 -82.5 30 -130.5
c0 -47.333 -10 -90.666 -30 -129.999s-48.167 -70.5 -84.5 -93.5s-78.833 -34.5 -127.5 -34.5zM309 59.999c37.333 0 69.166 8.66699 95.499 26s46.5 40.5 60.5 69.5s21 60.5 21 94.5c0 34.667 -7 66.334 -21 95.001s-34.167 51.667 -60.5 69s-58.166 26 -95.499 26
c-36.667 0 -68 -8.66699 -94 -26s-45.667 -40.333 -59 -69s-20 -60.334 -20 -95.001c0 -34 6.66699 -65.5 20 -94.5s33 -52.167 59 -69.5s57.333 -26 94 -26z" />
    <glyph glyph-name="uni0181" unicode="&#x181;" horiz-adv-x="785" 
d="M204 0l0.000976562 591.001c-46.667 0 -80 -10.167 -100 -30.5s-30 -47.5 -30 -81.5c0 -7.33301 0.333008 -14.833 1 -22.5s1.66699 -15.5 3 -23.5h-68c-2 9.33301 -3.33301 18.666 -4 27.999s-1 18.333 -1 27c0 51.333 15 92.666 45 123.999s74 48 132 50h319
c52 0 93.167 -9 123.5 -27s52.166 -40.5 65.499 -67.5s20 -53.833 20 -80.5c0 -42.667 -9 -75.5 -27 -98.5s-38.667 -39.833 -62 -50.5c18.667 -6 37.5 -15.5 56.5 -28.5s34.833 -30.5 47.5 -52.5s19 -49.667 19 -83c0 -49.333 -18.833 -90.666 -56.5 -123.999
s-94.167 -50 -169.5 -50h-314zM279.001 366.001l222 -0.00195312c23.333 0 45.166 4 65.499 12s36.833 20.5 49.5 37.5s19 38.833 19 65.5c0 18.667 -4.16699 36.334 -12.5 53.001s-21.666 30.334 -39.999 41.001s-42.833 16 -73.5 16h-230v-225zM279.001 70.999h247
c45.333 0 80.5 9.5 105.5 28.5s37.5 45.833 37.5 80.5c0 31.333 -12 58.833 -36 82.5s-62.333 35.5 -115 35.5h-239v-227z" />
    <glyph glyph-name="uni0186" unicode="&#x186;" horiz-adv-x="690" 
d="M331 -8c66 0 123 15.1699 171 45.5029s84.833 71.166 110.5 122.499s38.5 108.333 38.5 171s-12.833 119.667 -38.5 171s-62.5 92.166 -110.5 122.499s-105 45.5 -171 45.5c-50 0 -95 -8.83301 -135 -26.5s-74 -41.834 -102 -72.501s-49 -66.334 -63 -107.001h79
c16.667 40.667 43 73 79 97s81.333 36 136 36c53.333 0 98.833 -11.833 136.5 -35.5s66.167 -55.5 85.5 -95.5s29 -85 29 -135c0 -49.333 -9.66699 -94.166 -29 -134.499s-47.833 -72.333 -85.5 -96s-83.167 -35.5 -136.5 -35.5c-54.667 0 -100 12 -136 36
s-62.333 56.333 -79 97h-79c14 -40 35 -75.5 63 -106.5s62 -55.333 102 -73s85 -26.5 135 -26.5z" />
    <glyph glyph-name="uni0187" unicode="&#x187;" horiz-adv-x="690" 
d="M359 -8c-66 0 -123.001 15.167 -171.001 45.5s-84.833 71.166 -110.5 122.499s-38.5 108.333 -38.5 171s12.833 119.667 38.5 171s62.334 92.166 110.001 122.499s104.834 45.5 171.501 45.5c46.667 0 89 -7.66699 127 -23s70.667 -36.666 98 -63.999v62
c0 22 3.33301 44 10 66s20.5 40.5 41.5 55.5s52.167 22.5 93.5 22.5c5.33301 0 10.333 -0.166992 15 -0.5s9.66699 -0.833008 15 -1.5v-68c-8.66699 2 -16.667 3 -24 3c-24 0 -41.333 -4.16699 -52 -12.5s-17.334 -18.333 -20.001 -30s-4 -23.167 -4 -34.5v-181h-76
c-16.667 40.667 -43.5 73 -80.5 97s-82.833 36 -137.5 36c-53.333 0 -98.833 -11.833 -136.5 -35.5s-66.167 -55.5 -85.5 -95.5s-29 -85 -29 -135c0 -49.333 9.66699 -94.166 29 -134.499s47.833 -72.333 85.5 -96s83.167 -35.5 136.5 -35.5c54.667 0 100 12 136 36
s62.333 56.333 79 97h79c-14 -40 -35 -75.5 -63 -106.5s-62 -55.333 -102 -73s-85 -26.5 -135 -26.5z" />
    <glyph glyph-name="uni0188" unicode="&#x188;" horiz-adv-x="581" 
d="M581 658c5.33301 0 10.3359 -0.164062 15.0029 -0.49707s9.66699 -0.833008 15 -1.5v-68c-8.66699 2 -16.667 3 -24 3c-24 0 -41.333 -4.16699 -52 -12.5s-17.334 -18.333 -20.001 -30s-4 -23.167 -4 -34.5v-171h-76c-11.333 28.667 -29.5 52 -54.5 70
s-55.167 27 -90.5 27c-36.667 0 -68.667 -8.66699 -96 -26s-48.333 -40.333 -63 -69s-22 -60.334 -22 -95.001c0 -34 7.33301 -65.5 22 -94.5s35.667 -52.167 63 -69.5s59.333 -26 96 -26c35.333 0 65.5 9 90.5 27s43.167 41.333 54.5 70h81
c-14.667 -48.667 -42.834 -88.334 -84.501 -119.001s-92.167 -46 -151.5 -46c-50 0 -93.333 11.5 -130 34.5s-65.167 54.167 -85.5 93.5s-30.5 82.666 -30.5 129.999c0 48 10.167 91.5 30.5 130.5s48.833 70 85.5 93s80 34.5 130 34.5c31.333 0 60.166 -4.5 86.499 -13.5
s49.5 -21.833 69.5 -38.5v58c0 22 3.33301 44 10 66s20.5 40.5 41.5 55.5s52.167 22.5 93.5 22.5z" />
    <glyph glyph-name="uni0189" unicode="&#x189;" horiz-adv-x="703" 
d="M81 0v298.002h-74v65h74v299h279c39.333 0 77.166 -7.5 113.499 -22.5s68.833 -36.833 97.5 -65.5s51.334 -63.334 68.001 -104.001s25 -87 25 -139s-8.33301 -98.333 -25 -139s-39.334 -75.334 -68.001 -104.001s-61.167 -50.5 -97.5 -65.5
s-74.166 -22.5 -113.499 -22.5h-279zM156 71.002l201 0.000976562c47.333 0 88.333 12 123 36s61.5 55.667 80.5 95s28.5 82.333 28.5 129c0 47.333 -9.5 90.666 -28.5 129.999s-45.833 70.833 -80.5 94.5s-75.667 35.5 -123 35.5h-201v-228h199v-65h-199v-227z" />
    <glyph glyph-name="uni018A" unicode="&#x18a;" horiz-adv-x="827" 
d="M204 0v591.004c-46.667 0 -80 -10.167 -100 -30.5s-30 -47.5 -30 -81.5c0 -7.33301 0.333008 -14.833 1 -22.5s1.66699 -15.5 3 -23.5h-68c-2 9.33301 -3.33301 18.666 -4 27.999s-1 18.333 -1 27c0 51.333 15 92.666 45 123.999s74 48 132 50h301
c39.333 0 77.166 -7.5 113.499 -22.5s68.833 -36.833 97.5 -65.5s51.334 -63.334 68.001 -104.001s25 -87 25 -139s-8.33301 -98.333 -25 -139s-39.334 -75.334 -68.001 -104.001s-61.167 -50.5 -97.5 -65.5s-74.166 -22.5 -113.499 -22.5h-279zM279 71.0039
l201 0.000976562c47.333 0 88.333 12 123 36s61.5 55.667 80.5 95s28.5 82.333 28.5 129c0 47.333 -9.5 90.666 -28.5 129.999s-45.833 70.833 -80.5 94.5s-75.667 35.5 -123 35.5h-201v-520z" />
    <glyph glyph-name="uni018E" unicode="&#x18e;" horiz-adv-x="608" 
d="M527 0v662h-487v-72h412v-222h-368v-73h368v-223h-412v-72h487z" />
    <glyph glyph-name="uni018F" unicode="&#x18f;" horiz-adv-x="718" 
d="M41 374l562 -0.000976562c-5.33301 42.667 -18.5 80.834 -39.5 114.501s-48.833 60.167 -83.5 79.5s-75 29 -121 29c-50 0 -93.333 -11.5 -130 -34.5s-65 -53.5 -85 -91.5h-79c23.333 59.333 60.666 107.333 111.999 144s112 55 182 55c48 0 91.5 -8.66699 130.5 -26
s72.667 -41.666 101 -72.999s50.166 -67.333 65.499 -108s23 -84.667 23 -132c0 -46.667 -7.66699 -90.5 -23 -131.5s-37.166 -77.167 -65.499 -108.5s-62 -55.666 -101 -72.999s-82.5 -26 -130.5 -26s-91.5 8.66699 -130.5 26s-72.667 41.666 -101 72.999
s-50.166 67.5 -65.499 108.5s-23 84.833 -23 131.5c0 7.33301 0.166992 14.666 0.5 21.999s0.833008 14.333 1.5 21zM359 64.999c48 0 89.667 10.5 125 31.5s63.5 49.5 84.5 85.5s33.167 76.667 36.5 122h-492c3.33301 -45.333 15.5 -86 36.5 -122s49.167 -64.5 84.5 -85.5
s77 -31.5 125 -31.5z" />
    <glyph glyph-name="uni0190" unicode="&#x190;" horiz-adv-x="570" 
d="M286 -8c-45.333 0 -86.4961 8.32812 -123.496 24.9951s-66.5 39.834 -88.5 69.501s-33 64.167 -33 103.5c0 35.333 10.667 67.666 32 96.999s51.333 51.333 90 66c-14.667 4.66699 -29.834 14 -45.501 28s-28.667 30.833 -39 50.5s-15.5 40.5 -15.5 62.5
c0 51.333 20.5 93.5 61.5 126.5s96.833 49.5 167.5 49.5c43.333 0 80.166 -8.33301 110.499 -25s54.166 -37.667 71.499 -63s27.333 -51.666 30 -78.999h-73c-4.66699 25.333 -19.167 47.333 -43.5 66s-56.833 28 -97.5 28c-50 0 -87.833 -9.83301 -113.5 -29.5
s-38.5 -45.167 -38.5 -76.5c0 -21.333 7 -40.166 21 -56.499s32.333 -29 55 -38s47.334 -13.5 74.001 -13.5h87v-69h-96c-32 0 -60.167 -5.83301 -84.5 -17.5s-43.5 -27 -57.5 -46s-21 -39.833 -21 -62.5c0 -34 15 -63 45 -87s71.667 -36 125 -36
c26.667 0 51.5 4.83301 74.5 14.5s42.167 22.834 57.5 39.501s24.666 35.334 27.999 56.001h76c-3.33301 -34.667 -15.833 -65.667 -37.5 -93s-49.834 -49.166 -84.501 -65.499s-72.667 -24.5 -114 -24.5z" />
    <glyph glyph-name="uni0191" unicode="&#x191;" horiz-adv-x="583" 
d="M81 0v662h478v-72h-403v-230h359v-73h-359v-306c0 -62 -16.833 -108.667 -50.5 -140s-75.834 -47 -126.501 -47c-8.66699 0 -17.667 0.333008 -27 1s-18.666 2 -27.999 4v68c8 -1.33301 15.833 -2.33301 23.5 -3s15.167 -1 22.5 -1c34 0 61 9.66699 81 29
s30 55.333 30 108z" />
    <glyph glyph-name="florin" unicode="&#x192;" horiz-adv-x="307" 
d="M29 -206c-4.66699 0 -9.5 0.166992 -14.5 0.5s-10.167 0.833008 -15.5 1.5v68c9.33301 -2 17.333 -3 24 -3c24 0 41.333 4.16699 52 12.5s17.334 18.5 20.001 30.5s4 23.333 4 34v496h-86v66h86v44c0 54.667 16.5 95.667 49.5 123s78.167 41 135.5 41h6v-71h-10
c-34.667 0 -61 -7.83301 -79 -23.5s-27 -40.834 -27 -75.501v-38h116v-66h-116v-496c0 -21.333 -3.33301 -43.166 -10 -65.499s-20.334 -41 -41.001 -56s-52 -22.5 -94 -22.5z" />
    <glyph glyph-name="uni0193" unicode="&#x193;" horiz-adv-x="723" 
d="M361 352l311 -0.000976562v-352h-69v117c-14 -21.333 -32 -41.5 -54 -60.5s-48.5 -34.5 -79.5 -46.5s-66.5 -18 -106.5 -18c-67.333 0 -125.166 15.167 -173.499 45.5s-85.5 71.166 -111.5 122.499s-39 108.333 -39 171c0 46.667 7.5 90.5 22.5 131.5s36.333 77 64 108
s61.334 55.333 101.001 73s83.834 26.5 132.501 26.5h6c45.333 0 86.5 -7.66699 123.5 -23s68.833 -36.333 95.5 -63v61c0 22 3.33301 44 10 66s20.5 40.5 41.5 55.5s52.167 22.5 93.5 22.5c5.33301 0 10.333 -0.166992 15 -0.5s9.66699 -0.833008 15 -1.5v-68
c-8.66699 2 -16.667 3 -24 3c-24 0 -41.333 -4.16699 -52 -12.5s-17.334 -18.333 -20.001 -30s-4 -23.167 -4 -34.5v-181h-76c-16.667 40 -43.334 72.167 -80.001 96.5s-81.667 36.5 -135 36.5c-52.667 0 -98 -11.833 -136 -35.5s-67.167 -55.667 -87.5 -96
s-30.5 -85.166 -30.5 -134.499s10 -94.166 30 -134.499s49.167 -72.333 87.5 -96s84.166 -35.5 137.499 -35.5c40 0 77.833 8.66699 113.5 26s64.667 42.333 87 75s33.5 72 33.5 118h-242v68z" />
    <glyph glyph-name="uni0194" unicode="&#x194;" horiz-adv-x="626" 
d="M235 -40c0 -27.333 6.83105 -48.834 20.498 -64.501s32.834 -23.5 57.501 -23.5s43.834 7.83301 57.501 23.5s20.5 37.167 20.5 64.5c0 10 -2 21.167 -6 33.5s-11.667 29.5 -23 51.5s-28.333 52.667 -51 92c-22 -39.333 -38.5 -70.166 -49.5 -92.499
s-18.167 -39.5 -21.5 -51.5s-5 -23 -5 -33zM2.99805 661.999h86.001l127.5 -217.5l96.5 -164.5l96.5 164.5l127.5 217.5h86l-160.5 -267l-109.5 -184c29.333 -51.333 52.166 -92.833 68.499 -124.5s27.833 -57.167 34.5 -76.5s10 -36.666 10 -51.999
c0 -26.667 -5.66699 -52.334 -17 -77.001s-28.333 -44.834 -51 -60.501s-51 -23.5 -85 -23.5s-62.333 7.83301 -85 23.5s-39.667 35.834 -51 60.501s-17 50.334 -17 77.001c0 15.333 3.16699 32.666 9.5 51.999s17.5 44.5 33.5 75.5s38.333 71.5 67 121.5l-108.5 185z" />
    <glyph glyph-name="uni0196" unicode="&#x196;" horiz-adv-x="304" 
d="M248 61c7.33301 0 14.833 0.333008 22.5 1s15.5 1.66699 23.5 3v-68c-9.33301 -2 -18.666 -3.33301 -27.999 -4s-18.333 -1 -27 -1c-50.667 0 -92.334 15 -125.001 45s-49 74 -49 132v493h75v-471c0 -46.667 9.5 -80 28.5 -100s45.5 -30 79.5 -30z" />
    <glyph glyph-name="uni0197" unicode="&#x197;" horiz-adv-x="237" 
d="M81 0v299h-74v65h74v298h75v-298h74v-65h-74v-299h-75z" />
    <glyph glyph-name="uni0198" unicode="&#x198;" horiz-adv-x="641" 
d="M425 506l-87.999 -95.001l309 -411h-94l-267 355l-129 -138v-217h-75v662h75v-345l218 240c33.333 36.667 62.166 64.667 86.499 84s51.833 29 82.5 29c37.333 0 66.333 -11.167 87 -33.5s31 -54.166 31 -95.499l-64 -14c-2 17.333 -6 33.333 -12 48s-20 22 -42 22
c-18 0 -36.667 -9.33301 -56 -28z" />
    <glyph glyph-name="uni0199" unicode="&#x199;" horiz-adv-x="502" 
d="M285 303l216.001 -303h-92l-175 251l-94 -93v-158h-75v564c0 22 3.33301 44 10 66s20.5 40.5 41.5 55.5s52.167 22.5 93.5 22.5c5.33301 0 10.333 -0.166992 15 -0.5s9.66699 -0.833008 15 -1.5v-68c-8.66699 2 -16.667 3 -24 3c-24 0 -41.333 -4.16699 -52 -12.5
s-17.334 -18.333 -20.001 -30s-4 -23.167 -4 -34.5v-312l241 248h105z" />
    <glyph glyph-name="uni019A" unicode="&#x19a;" horiz-adv-x="261" 
d="M93 0v328h-86v65h86v307h75v-307h86v-65h-86v-328h-75z" />
    <glyph glyph-name="uni019B" unicode="&#x19b;" horiz-adv-x="600" 
d="M544 60c9.33301 0 19.999 1.66602 31.999 4.99902v-69c-15.333 -3.33301 -28.666 -5 -39.999 -5c-68 0 -118.667 41.333 -152 124l-118 295l-161 -410h-83l202 487l-15 35c-1.33301 4 -3 8 -5 12s-4 8.33301 -6 13l-117 -47l-24 61l108 43
c-8 10 -16.833 18.167 -26.5 24.5s-20.167 9.5 -31.5 9.5c-15.333 0 -30.5 -3.33301 -45.5 -10s-24.833 -11.667 -29.5 -15v69c13.333 8 27 14.333 41 19s28.333 7 43 7c25.333 0 47.833 -7.16699 67.5 -21.5s36.834 -32.166 51.501 -53.499l102 41l25 -61l-94 -38
c1.33301 -2.66699 2.66602 -5.66699 3.99902 -9l4 -10l42 -100l139 -328c11.333 -22 23.833 -38.833 37.5 -50.5s30.167 -17.5 49.5 -17.5z" />
    <glyph glyph-name="uni019C" unicode="&#x19c;" horiz-adv-x="905" 
d="M824 662l0.00292969 -670.002h-75v76c-11.333 -20 -29.333 -39 -54 -57s-57.334 -27 -98.001 -27c-32.667 0 -63.334 8.83301 -92.001 26.5s-51 42.5 -67 74.5c-6.66699 -11.333 -17.167 -25 -31.5 -41s-33 -30 -56 -42s-51.167 -18 -84.5 -18
c-32 0 -62.167 8.33301 -90.5 25s-51.166 40.5 -68.499 71.5s-26 67.5 -26 109.5v472h75v-470c0 -42 12 -75.833 36 -101.5s53.333 -38.5 88 -38.5c37.333 0 69.166 12.333 95.499 37s39.5 59.334 39.5 104.001v469h75v-470c0 -42 12 -75.833 36 -101.5
s53.333 -38.5 88 -38.5c37.333 0 69.166 12.333 95.499 37s39.5 59.334 39.5 104.001v469h75z" />
    <glyph glyph-name="uni019D" unicode="&#x19d;" horiz-adv-x="639" 
d="M81 0v661.003h75v-78c24 30 53.167 52.167 87.5 66.5s68.833 21.5 103.5 21.5c39.333 0 76.5 -7.66699 111.5 -23s63.5 -39.166 85.5 -71.499s33 -73.833 33 -124.5v-473h-75v471c0 37.333 -8.5 66.666 -25.5 87.999s-38.833 36.666 -65.5 45.999s-54.667 14 -84 14
c-28.667 0 -56 -5.33301 -82 -16s-47.333 -26.834 -64 -48.501s-25 -48.834 -25 -81.501v-471c0 -62 -16.833 -108.667 -50.5 -140s-75.834 -47 -126.501 -47c-8.66699 0 -17.667 0.333008 -27 1s-18.666 2 -27.999 4v68c8 -1.33301 15.833 -2.33301 23.5 -3
s15.167 -1 22.5 -1c34 0 61 9.66699 81 29s30 55.333 30 108z" />
    <glyph glyph-name="uni019E" unicode="&#x19e;" horiz-adv-x="568" 
d="M65 0l0.000976562 499.999h75v-78c18 24 40 44.333 66 61s59.333 25 100 25c34.667 0 67.167 -8.16699 97.5 -24.5s55 -40.666 74 -72.999s28.5 -72.166 28.5 -119.499v-341c0 -26 -5 -50.833 -15 -74.5s-26.333 -43.167 -49 -58.5s-53.334 -23 -92.001 -23
c-32.667 0 -60.167 7.5 -82.5 22.5s-39.5 34.167 -51.5 57.5s-19 47 -21 71h75c2 -12 6.33301 -24.5 13 -37.5s15.834 -24 27.501 -33s25.5 -13.5 41.5 -13.5c22 0 38.667 5.16699 50 15.5s19 22.666 23 36.999s6 27.5 6 39.5v336c0 45.333 -13 81.833 -39 109.5
s-59.667 41.5 -101 41.5c-28 0 -53.333 -6.33301 -76 -19s-40.834 -30.5 -54.501 -53.5s-20.5 -49.5 -20.5 -79.5v-288h-75z" />
    <glyph glyph-name="uni019F" unicode="&#x19f;" horiz-adv-x="750" 
d="M375 -8c-50 0 -95.667 8.66699 -137 26s-76.833 41.666 -106.5 72.999s-52.5 67.5 -68.5 108.5s-24 84.833 -24 131.5c0 47.333 8 91.333 24 132s38.833 76.667 68.5 108s65.167 55.666 106.5 72.999s87 26 137 26s95.667 -8.66699 137 -26s76.833 -41.666 106.5 -72.999
s52.5 -67.333 68.5 -108s24 -84.667 24 -132c0 -46.667 -8 -90.5 -24 -131.5s-38.833 -77.167 -68.5 -108.5s-65.167 -55.666 -106.5 -72.999s-87 -26 -137 -26zM375 597c-50 0 -93.5 -10.167 -130.5 -30.5s-66.667 -48.166 -89 -83.499s-35.5 -75.333 -39.5 -120h518
c-4 44.667 -17.167 84.667 -39.5 120s-52 63.166 -89 83.499s-80.5 30.5 -130.5 30.5zM375 65c49.333 0 92.668 10.167 130.001 30.5s67 48.166 89 83.499s35.333 75 40 119h-518c4.66699 -44 18 -83.667 40 -119s51.667 -63.166 89 -83.499s80.666 -30.5 129.999 -30.5z
" />
    <glyph glyph-name="Ohorn" unicode="&#x1a0;" horiz-adv-x="750" 
d="M375 -8c-50 0 -95.666 8.66895 -136.999 26.002s-76.833 41.666 -106.5 72.999s-52.5 67.5 -68.5 108.5s-24 84.833 -24 131.5c0 47.333 8 91.333 24 132s38.833 76.667 68.5 108s65.167 55.666 106.5 72.999s87 26 137 26c26.667 0 52.667 -2.66699 78 -8h26
c25.333 0 45.666 8.83301 60.999 26.5s23 45.167 23 82.5h70c0 -38 -6 -70 -18 -96s-28.667 -45.667 -50 -59c45.333 -30.667 81 -70.834 107 -120.501s39 -104.5 39 -164.5c0 -46.667 -8 -90.5 -24 -131.5s-38.833 -77.167 -68.5 -108.5s-65.167 -55.666 -106.5 -72.999
s-87 -26 -137 -26zM375.001 65.002c54 0 100.5 11.833 139.5 35.5s69 55.667 90 96s31.5 85.166 31.5 134.499c0 50 -10.5 95 -31.5 135s-51 71.833 -90 95.5s-85.5 35.5 -139.5 35.5c-53.333 0 -99.666 -11.833 -138.999 -35.5s-69.5 -55.5 -90.5 -95.5
s-31.5 -85 -31.5 -135c0 -49.333 10.5 -94.166 31.5 -134.499s51.167 -72.333 90.5 -96s85.666 -35.5 138.999 -35.5z" />
    <glyph glyph-name="ohorn" unicode="&#x1a1;" horiz-adv-x="564" 
d="M427 465c33.333 -22.667 58.834 -52.8301 76.501 -90.4971s26.5 -79.167 26.5 -124.5c0 -47.333 -10 -90.666 -30 -129.999s-48.5 -70.5 -85.5 -93.5s-81.167 -34.5 -132.5 -34.5c-50.667 0 -94.667 11.5 -132 34.5s-66 54.167 -86 93.5s-30 82.666 -30 129.999
c0 48 10 91.5 30 130.5s48.667 70 86 93s81.333 34.5 132 34.5h50c25.333 0 45.666 8.66699 60.999 26s23 44.666 23 81.999h70c0 -34.667 -5.16699 -64.834 -15.5 -90.501s-24.833 -45.834 -43.5 -60.501zM282.001 60.0039c37.333 0 68.833 8.66699 94.5 26
s45.167 40.5 58.5 69.5s20 60.5 20 94.5c0 34.667 -6.66699 66.334 -20 95.001s-32.833 51.667 -58.5 69s-57.167 26 -94.5 26c-36.667 0 -68 -8.66699 -94 -26s-45.667 -40.333 -59 -69s-20 -60.334 -20 -95.001c0 -34 6.66699 -65.5 20 -94.5s33 -52.167 59 -69.5
s57.333 -26 94 -26z" />
    <glyph glyph-name="uni01A4" unicode="&#x1a4;" horiz-adv-x="751" 
d="M204 0v591c-46.667 0 -80 -10.167 -100 -30.5s-30 -47.5 -30 -81.5c0 -7.33301 0.333008 -14.833 1 -22.5s1.66699 -15.5 3 -23.5h-68c-2 9.33301 -3.33301 18.666 -4 27.999s-1 18.333 -1 27c0 51.333 15 93.166 45 125.499s74 48.5 132 48.5h320
c70.667 0 126.334 -19.167 167.001 -57.5s61 -90.166 61 -155.499s-20.333 -117.166 -61 -155.499s-96.334 -57.5 -167.001 -57.5h-223v-236h-75zM279 306h218c52 0 91.333 12.667 118 38s40 60.333 40 105c0 44 -13.333 78.667 -40 104s-66 38 -118 38h-218v-285z" />
    <glyph glyph-name="uni01A5" unicode="&#x1a5;" horiz-adv-x="595" 
d="M65 -198l0.000976562 761.999c0 22 3.33301 44 10 66s20.5 40.5 41.5 55.5s52.167 22.5 93.5 22.5c5.33301 0 10.333 -0.166992 15 -0.5s9.66699 -0.833008 15 -1.5v-68c-8.66699 2 -16.667 3 -24 3c-24 0 -41.333 -4.16699 -52 -12.5s-17.334 -18.333 -20.001 -30
s-4 -23.167 -4 -34.5v-144c18.667 27.333 42.834 48.833 72.501 64.5s65.167 23.5 106.5 23.5c48.667 0 91.167 -11.5 127.5 -34.5s64.5 -54 84.5 -93s30 -82.5 30 -130.5c0 -47.333 -10 -90.666 -30 -129.999s-48.167 -70.5 -84.5 -93.5s-78.833 -34.5 -127.5 -34.5
c-41.333 0 -76.833 8.16699 -106.5 24.5s-53.834 37.833 -72.501 64.5v-279h-75zM309.001 59.999c37.333 0 69.166 8.66699 95.499 26s46.5 40.5 60.5 69.5s21 60.5 21 94.5c0 34.667 -7 66.334 -21 95.001s-34.167 51.667 -60.5 69s-58.166 26 -95.499 26
c-36.667 0 -68 -8.66699 -94 -26s-45.667 -40.333 -59 -69s-20 -60.334 -20 -95.001c0 -34 6.66699 -65.5 20 -94.5s33 -52.167 59 -69.5s57.333 -26 94 -26z" />
    <glyph glyph-name="uni01A9" unicode="&#x1a9;" horiz-adv-x="608" 
d="M535 662v-72h-344l249 -269l-254 -249h342v-72h-447v72l255 250l-248 268v72h447z" />
    <glyph glyph-name="uni01AC" unicode="&#x1ac;" horiz-adv-x="629" 
d="M615 662v-71.998h-231v-590h-75v590h-105c-46.667 0 -80 -10 -100 -30s-30 -47 -30 -81c0 -7.33301 0.333008 -14.833 1 -22.5s1.66699 -15.5 3 -23.5h-68c-2 9.33301 -3.33301 18.666 -4 27.999s-1 18.333 -1 27c0 51.333 15 92.666 45 123.999s74 48 132 50h433z" />
    <glyph glyph-name="uni01AD" unicode="&#x1ad;" horiz-adv-x="326" 
d="M194 136c0 -10.667 1.33301 -21.999 4 -33.999s9.33398 -22.167 20.001 -30.5s28 -12.5 52 -12.5c7.33301 0 15.333 1 24 3v-68c-5.33301 -0.666992 -10.333 -1.16699 -15 -1.5s-9.66699 -0.5 -15 -0.5c-41.333 0 -72.5 7.5 -93.5 22.5s-34.833 33.667 -41.5 56
s-10 44.166 -10 65.499v298h-102v66h102v64c0 22 3.33301 44 10 66s20.5 40.5 41.5 55.5s52.167 22.5 93.5 22.5c5.33301 0 10.333 -0.166992 15 -0.5s9.66699 -0.833008 15 -1.5v-68c-8.66699 2 -16.667 3 -24 3c-24 0 -41.333 -4.16699 -52 -12.5
s-17.334 -18.333 -20.001 -30s-4 -23.167 -4 -34.5v-64h115v-66h-115v-298z" />
    <glyph glyph-name="uni01AE" unicode="&#x1ae;" horiz-adv-x="565" 
d="M320 0c0 -52.667 10 -88.667 30 -108s47 -29 81 -29c7.33301 0 14.833 0.333008 22.5 1s15.5 1.66699 23.5 3v-68c-9.33301 -2 -18.666 -3.33301 -27.999 -4s-18.333 -1 -27 -1c-50.667 0 -92.834 15.667 -126.501 47s-50.5 78 -50.5 140v610h-231v71h537v-71h-231v-591z
" />
    <glyph glyph-name="Uhorn" unicode="&#x1af;" horiz-adv-x="709" 
d="M788 771c0 -58.667 -14.001 -103 -42.001 -133s-64.667 -45.333 -110 -46v-307c0 -58 -12 -109 -36 -153s-57.167 -78.333 -99.5 -103s-91.166 -37 -146.499 -37c-54.667 0 -103.167 12.167 -145.5 36.5s-75.5 58.5 -99.5 102.5s-36 95.333 -36 154v377h75v-379
c0 -51.333 9.83301 -93 29.5 -125s45.334 -55.5 77.001 -70.5s64.834 -22.5 99.501 -22.5c35.333 0 68.666 7.5 99.999 22.5s57 38.5 77 70.5s30 73.667 30 125v379h73c25.333 0 45.666 8.83301 60.999 26.5s23 45.167 23 82.5h70z" />
    <glyph glyph-name="uhorn" unicode="&#x1b0;" horiz-adv-x="566" 
d="M600 609c0 -46 -9 -83.3311 -27 -111.998s-42 -48 -72 -58v-439h-75v78c-18 -24 -40 -44.333 -66 -61s-59.333 -25 -100 -25c-34 0 -66.333 8.16699 -97 24.5s-55.5 40.666 -74.5 72.999s-28.5 72.166 -28.5 119.499v291h75v-289c0 -45.333 13.167 -81.833 39.5 -109.5
s59.833 -41.5 100.5 -41.5c28 0 53.333 6.5 76 19.5s40.834 30.833 54.501 53.5s20.5 49 20.5 79v288h20c25.333 0 45.666 8.83301 60.999 26.5s23 45.167 23 82.5h70z" />
    <glyph glyph-name="uni01B1" unicode="&#x1b1;" horiz-adv-x="746" 
d="M500 590c44 -13.333 80 -34.333 108 -63s48.833 -62.167 62.5 -100.5s20.5 -79.166 20.5 -122.499c0 -38.667 -6.16699 -76.5 -18.5 -113.5s-31.5 -70.5 -57.5 -100.5s-59 -53.833 -99 -71.5s-87.667 -26.5 -143 -26.5s-103 8.83301 -143 26.5s-73 41.5 -99 71.5
s-45.167 63.5 -57.5 100.5s-18.5 74.833 -18.5 113.5c0 43.333 6.83301 84.166 20.5 122.499s34.5 71.833 62.5 100.5s64 49.667 108 63h-161v72h231v-100c-60 -12.667 -106 -41.334 -138 -86.001s-48 -100.667 -48 -168c0 -53.333 11.833 -98.166 35.5 -134.499
s54.167 -63.666 91.5 -81.999s76 -27.5 116 -27.5c40.667 0 79.5 9.16699 116.5 27.5s67.333 45.666 91 81.999s35.5 81.166 35.5 134.499c0 67.333 -16 123.333 -48 168s-78 73.334 -138 86.001v100h231v-72h-161z" />
    <glyph glyph-name="uni01B2" unicode="&#x1b2;" horiz-adv-x="702" 
d="M398 669c9.33301 1.33301 19.1709 2.5 29.5039 3.5s21.166 1.5 32.499 1.5c55.333 0 97.333 -19.167 126 -57.5s43 -97.833 43 -178.5c0 -60.667 -8.66699 -117.834 -26 -171.501s-41.5 -101.167 -72.5 -142.5s-67.333 -73.666 -109 -96.999s-87.167 -35 -136.5 -35
c-70.667 0 -123.667 17.167 -159 51.5s-53 86.833 -53 157.5v461h75v-444c0 -56.667 11.167 -96.334 33.5 -119.001s58.166 -34 107.499 -34c46 0 85.667 11.667 119 35s61 53.5 83 90.5s38.333 76.833 49 119.5s16 83.334 16 122.001c0 63.333 -8.66699 108 -26 134
s-47 39 -89 39c-6.66699 0 -13.834 -0.333008 -21.501 -1s-14.834 -1.66699 -21.501 -3v68z" />
    <glyph glyph-name="uni01B3" unicode="&#x1b3;" horiz-adv-x="722" 
d="M631 670c30.667 0 56.8359 -9.66602 78.5029 -28.999s32.5 -52.666 32.5 -99.999l-60 -14c-2.66699 20 -7 36.667 -13 50s-19.667 20 -41 20c-12.667 0 -25.834 -5 -39.501 -15s-26.834 -22.833 -39.501 -38.5s-24.334 -31.834 -35.001 -48.501l-158 -233v-262h-75v262
l-278 400h91l224 -322l139 198c20.667 30.667 39.5 55.667 56.5 75s34.667 33.666 53 42.999s39.833 14 64.5 14z" />
    <glyph glyph-name="uni01B4" unicode="&#x1b4;" horiz-adv-x="652" 
d="M584 670c25.333 0 47.834 -8.16699 67.501 -24.5s33.167 -44.166 40.5 -83.499l-56 -25c-5.33301 17.333 -11.5 31.5 -18.5 42.5s-18.5 16.5 -34.5 16.5c-22 0 -39.667 -9.83301 -53 -29.5s-25.333 -41.834 -36 -66.501l-296 -698h-81l91 205l-204 493h83l161 -410
l163 408c14 33.333 28.333 62.833 43 88.5s32.167 46 52.5 61s46.166 22.5 77.499 22.5z" />
    <glyph glyph-name="uni01B5" unicode="&#x1b5;" horiz-adv-x="584" 
d="M29 0v71l189 228h-137v65h191l189 228h-426v70h518v-72l-188 -226h139v-65h-193l-190 -229h432v-70h-524z" />
    <glyph glyph-name="uni01B6" unicode="&#x1b6;" horiz-adv-x="458" 
d="M31 0v71l122 147h-95v65h149l123 148h-295v69h390v-70l-122 -147h97v-65h-152l-123 -148h300v-70h-394z" />
    <glyph glyph-name="uni01B7" unicode="&#x1b7;" horiz-adv-x="586" 
d="M208 259l-0.00195312 68.999l175 262h-332v72h424v-72l-176 -260c46.667 -6 88 -21.167 124 -45.5s64.167 -55.666 84.5 -93.999s30.5 -80.833 30.5 -127.5c0 -51.333 -11.667 -97.333 -35 -138s-55 -72.667 -95 -96s-85.667 -35 -137 -35
c-59.333 0 -111.333 16.667 -156 50s-76 77 -94 131h80c14.667 -32.667 37 -58.834 67 -78.501s64.333 -29.5 103 -29.5c37.333 0 70.5 8.33301 99.5 25s51.667 39.834 68 69.501s24.5 63.5 24.5 101.5c0 38.667 -8.66699 72.667 -26 102s-41.166 52.5 -71.499 69.5
s-65.166 25.167 -104.499 24.5h-53z" />
    <glyph glyph-name="uni01B8" unicode="&#x1b8;" horiz-adv-x="586" 
d="M378 259l0.00195312 68.999l-175 262h332v72h-424v-72l176 -260c-46.667 -6 -88 -21.167 -124 -45.5s-64.167 -55.666 -84.5 -93.999s-30.5 -80.833 -30.5 -127.5c0 -51.333 11.667 -97.333 35 -138s55 -72.667 95 -96s85.667 -35 137 -35
c59.333 0 111.333 16.667 156 50s76 77 94 131h-80c-14.667 -32.667 -37 -58.834 -67 -78.501s-64.333 -29.5 -103 -29.5c-37.333 0 -70.5 8.33301 -99.5 25s-51.667 39.834 -68 69.501s-24.5 63.5 -24.5 101.5c0 38.667 8.66699 72.667 26 102s41.166 52.5 71.499 69.5
s65.166 25.167 104.499 24.5h53z" />
    <glyph glyph-name="uni01B9" unicode="&#x1b9;" horiz-adv-x="499" 
d="M336 167l-1 60.9971l-144 206h244v66h-340v-61l148 -207c-38.667 -4 -72.667 -15.333 -102 -34s-52.166 -43.167 -68.499 -73.5s-24.5 -65.166 -24.5 -104.499c0 -42.667 9 -81.167 27 -115.5s43.167 -61.333 75.5 -81s70.166 -29.5 113.499 -29.5
c31.333 0 61.5 6.66699 90.5 20s54.167 32 75.5 56s36.333 52.333 45 85h-79c-10 -27.333 -27.5 -48.833 -52.5 -64.5s-51.5 -23.5 -79.5 -23.5c-44 0 -78.5 14.333 -103.5 43s-37.5 65.334 -37.5 110.001s14.833 80.334 44.5 107.001s67.5 40 113.5 40h55z" />
    <glyph glyph-name="uni01C0" unicode="&#x1c0;" horiz-adv-x="247" 
d="M86 -198v898h75v-898h-75z" />
    <glyph glyph-name="uni01C1" unicode="&#x1c1;" horiz-adv-x="398" 
d="M86 -198v898h75v-898h-75zM237 -198v898h75v-898h-75z" />
    <glyph glyph-name="uni01C2" unicode="&#x1c2;" horiz-adv-x="247" 
d="M247 328h-86v-82h86v-65h-86v-379h-75v379h-86v65h86v82h-86v65h86v307h75v-307h86v-65z" />
    <glyph glyph-name="uni01C3" unicode="&#x1c3;" horiz-adv-x="221" 
d="M83 183l-19 479h93l-19 -479h-55zM62 0v102h97v-102h-97z" />
    <glyph glyph-name="uni01C4" unicode="&#x1c4;" horiz-adv-x="1276" 
d="M721 0v71l432 521h-426v70h518v-72l-432 -520h432v-70h-524zM941 725l-98 105h82l59 -54l59 54h82l-97 -105h-87zM81 0v662.002h279c39.333 0 77.166 -7.5 113.499 -22.5s68.833 -36.833 97.5 -65.5s51.334 -63.334 68.001 -104.001s25 -87 25 -139
s-8.33301 -98.333 -25 -139s-39.334 -75.334 -68.001 -104.001s-61.167 -50.5 -97.5 -65.5s-74.166 -22.5 -113.499 -22.5h-279zM156 71.002l201 0.000976562c47.333 0 88.333 12 123 36s61.5 55.667 80.5 95s28.5 82.333 28.5 129c0 47.333 -9.5 90.666 -28.5 129.999
s-45.833 70.833 -80.5 94.5s-75.667 35.5 -123 35.5h-201v-520z" />
    <glyph glyph-name="uni01C5" unicode="&#x1c5;" horiz-adv-x="1154" 
d="M81 0v662.002h279c39.333 0 77.166 -7.5 113.499 -22.5s68.833 -36.833 97.5 -65.5s51.334 -63.334 68.001 -104.001s25 -87 25 -139s-8.33301 -98.333 -25 -139s-39.334 -75.334 -68.001 -104.001s-61.167 -50.5 -97.5 -65.5s-74.166 -22.5 -113.499 -22.5h-279z
M156 71.002l201 0.000976562c47.333 0 88.333 12 123 36s61.5 55.667 80.5 95s28.5 82.333 28.5 129c0 47.333 -9.5 90.666 -28.5 129.999s-45.833 70.833 -80.5 94.5s-75.667 35.5 -123 35.5h-201v-520zM727 0.00292969v71l299 360h-295v69h390v-70l-300 -360h300v-70h-394
zM882 570.003l-98 105h82l59 -54l59 54h82l-97 -105h-87z" />
    <glyph glyph-name="uni01C6" unicode="&#x1c6;" horiz-adv-x="1053" 
d="M276 -8c-48.667 0 -91.167 11.501 -127.5 34.501s-64.5 54.167 -84.5 93.5s-30 82.666 -30 129.999c0 48 10 91.5 30 130.5s48.167 70 84.5 93s78.833 34.5 127.5 34.5c41.333 0 76.833 -8 106.5 -24s53.834 -37.667 72.501 -65v281h75v-700h-75v80
c-18.667 -26.667 -42.834 -48 -72.501 -64s-65.167 -24 -106.5 -24zM286 60.001c37.333 0 68.833 8.66699 94.5 26s45.167 40.5 58.5 69.5s20 60.5 20 94.5c0 34.667 -6.66699 66.334 -20 95.001s-32.833 51.667 -58.5 69s-57.167 26 -94.5 26
c-36.667 0 -68.334 -8.66699 -95.001 -26s-47 -40.333 -61 -69s-21 -60.334 -21 -95.001c0 -34 7 -65.5 21 -94.5s34.333 -52.167 61 -69.5s58.334 -26 95.001 -26zM626 0.000976562v71l299 360h-295v69h390v-70l-300 -360h300v-70h-394zM781 570.001l-98 105h82l59 -54
l59 54h82l-97 -105h-87z" />
    <glyph glyph-name="uni01C7" unicode="&#x1c7;" horiz-adv-x="1060" 
d="M81 0v662h75v-590h361v-72h-436zM769 -8c-47.333 0 -86.8311 9.16797 -118.498 27.501s-55.834 41.666 -72.501 69.999s-26.667 57.5 -30 87.5h78c2.66699 -17.333 9.66699 -34.666 21 -51.999s27.333 -31.666 48 -42.999s46.667 -17 78 -17
c30 0 54.167 4.83301 72.5 14.5s32 22.5 41 38.5s15.167 33.167 18.5 51.5s5 35.833 5 52.5v440h75v-443c0 -38.667 -6.83301 -75.334 -20.5 -110.001s-36.334 -62.834 -68.001 -84.501s-74.167 -32.5 -127.5 -32.5z" />
    <glyph glyph-name="uni01C8" unicode="&#x1c8;" horiz-adv-x="738" 
d="M81 0v662h75v-590h361v-72h-436zM595 584v98h81v-98h-81zM598 -198v698h75v-698h-75z" />
    <glyph glyph-name="uni01C9" unicode="&#x1c9;" horiz-adv-x="410" 
d="M65 0v700h75v-700h-75zM267 584v98h81v-98h-81zM270 -198v698h75v-698h-75z" />
    <glyph glyph-name="uni01CA" unicode="&#x1ca;" horiz-adv-x="1260" 
d="M81 0v662h87l409 -557v557h75v-662h-87l-409 559v-559h-75zM969 -8c-47.333 0 -86.8311 9.16797 -118.498 27.501s-55.834 41.666 -72.501 69.999s-26.667 57.5 -30 87.5h78c2.66699 -17.333 9.66699 -34.666 21 -51.999s27.333 -31.666 48 -42.999s46.667 -17 78 -17
c30 0 54.167 4.83301 72.5 14.5s32 22.5 41 38.5s15.167 33.167 18.5 51.5s5 35.833 5 52.5v440h75v-443c0 -38.667 -6.83301 -75.334 -20.5 -110.001s-36.334 -62.834 -68.001 -84.501s-74.167 -32.5 -127.5 -32.5z" />
    <glyph glyph-name="uni01CB" unicode="&#x1cb;" horiz-adv-x="938" 
d="M81 0v662h87l409 -557v557h75v-662h-87l-409 559v-559h-75zM795 584v98h81v-98h-81zM798 -198v698h75v-698h-75z" />
    <glyph glyph-name="uni01CC" unicode="&#x1cc;" horiz-adv-x="771" 
d="M65 0l0.000976562 499.998h75v-78c18 24 40 44.333 66 61s59.333 25 100 25c34.667 0 67.167 -8.16699 97.5 -24.5s55 -40.666 74 -72.999s28.5 -72.166 28.5 -119.499v-291h-75v289c0 45.333 -13 81.833 -39 109.5s-59.667 41.5 -101 41.5
c-28 0 -53.333 -6.33301 -76 -19s-40.834 -30.5 -54.501 -53.5s-20.5 -49.5 -20.5 -79.5v-288h-75zM628.001 583.998v98h81v-98h-81zM631.001 -198.002v698h75v-698h-75z" />
    <glyph glyph-name="uni01CD" unicode="&#x1cd;" horiz-adv-x="662" 
d="M3 0l281 662h94l281 -662h-83l-81 192h-328l-81 -192h-83zM196 261h270l-135 323zM288 725l-98 105h82l59 -54l59 54h82l-97 -105h-87z" />
    <glyph glyph-name="uni01CE" unicode="&#x1ce;" horiz-adv-x="595" 
d="M276 -8c-48.667 0 -91.167 11.501 -127.5 34.501s-64.5 54.167 -84.5 93.5s-30 82.666 -30 129.999c0 48 10 91.5 30 130.5s48.167 70 84.5 93s78.833 34.5 127.5 34.5c41.333 0 76.833 -8 106.5 -24s53.834 -37.667 72.501 -65v81h75v-500h-75v80
c-18.667 -26.667 -42.834 -48 -72.501 -64s-65.167 -24 -106.5 -24zM286 60.001c37.333 0 68.833 8.66699 94.5 26s45.167 40.5 58.5 69.5s20 60.5 20 94.5c0 34.667 -6.66699 66.334 -20 95.001s-32.833 51.667 -58.5 69s-57.167 26 -94.5 26
c-36.667 0 -68.334 -8.66699 -95.001 -26s-47 -40.333 -61 -69s-21 -60.334 -21 -95.001c0 -34 7 -65.5 21 -94.5s34.333 -52.167 61 -69.5s58.334 -26 95.001 -26zM255 570.001l-98 105h82l59 -54l59 54h82l-97 -105h-87z" />
    <glyph glyph-name="uni01CF" unicode="&#x1cf;" horiz-adv-x="237" 
d="M81 0v662h75v-662h-75zM76 725l-98 105h82l59 -54l59 54h82l-97 -105h-87z" />
    <glyph glyph-name="uni01D0" unicode="&#x1d0;" horiz-adv-x="205" 
d="M65 0v500h75v-500h-75zM60 570l-98 105h82l59 -54l59 54h82l-97 -105h-87z" />
    <glyph glyph-name="uni01D1" unicode="&#x1d1;" horiz-adv-x="750" 
d="M375 -8c-50 0 -95.667 8.66699 -137 26s-76.833 41.666 -106.5 72.999s-52.5 67.5 -68.5 108.5s-24 84.833 -24 131.5c0 47.333 8 91.333 24 132s38.833 76.667 68.5 108s65.167 55.666 106.5 72.999s87 26 137 26s95.667 -8.66699 137 -26s76.833 -41.666 106.5 -72.999
s52.5 -67.333 68.5 -108s24 -84.667 24 -132c0 -46.667 -8 -90.5 -24 -131.5s-38.833 -77.167 -68.5 -108.5s-65.167 -55.666 -106.5 -72.999s-87 -26 -137 -26zM375 65c54 0 100.5 11.833 139.5 35.5s69 55.667 90 96s31.5 85.166 31.5 134.499c0 50 -10.5 95 -31.5 135
s-51 71.833 -90 95.5s-85.5 35.5 -139.5 35.5c-53.333 0 -99.666 -11.833 -138.999 -35.5s-69.5 -55.5 -90.5 -95.5s-31.5 -85 -31.5 -135c0 -49.333 10.5 -94.166 31.5 -134.499s51.167 -72.333 90.5 -96s85.666 -35.5 138.999 -35.5zM332 725l-98 105h82l59 -54l59 54h82
l-97 -105h-87z" />
    <glyph glyph-name="uni01D2" unicode="&#x1d2;" horiz-adv-x="564" 
d="M282 -8c-50.667 0 -94.667 11.5 -132 34.5s-66 54.167 -86 93.5s-30 82.666 -30 129.999c0 48 10 91.5 30 130.5s48.667 70 86 93s81.333 34.5 132 34.5c51.333 0 95.5 -11.5 132.5 -34.5s65.5 -54 85.5 -93s30 -82.5 30 -130.5c0 -47.333 -10 -90.666 -30 -129.999
s-48.5 -70.5 -85.5 -93.5s-81.167 -34.5 -132.5 -34.5zM282 60c37.333 0 68.833 8.66699 94.5 26s45.167 40.5 58.5 69.5s20 60.5 20 94.5c0 34.667 -6.66699 66.334 -20 95.001s-32.833 51.667 -58.5 69s-57.167 26 -94.5 26c-36.667 0 -68 -8.66699 -94 -26
s-45.667 -40.333 -59 -69s-20 -60.334 -20 -95.001c0 -34 6.66699 -65.5 20 -94.5s33 -52.167 59 -69.5s57.333 -26 94 -26zM239 570l-98 105h82l59 -54l59 54h82l-97 -105h-87z" />
    <glyph glyph-name="uni01D3" unicode="&#x1d3;" horiz-adv-x="709" 
d="M354 -8c-54.667 0 -103.169 12.167 -145.502 36.5s-75.5 58.5 -99.5 102.5s-36 95.333 -36 154v377h75v-379c0 -51.333 9.83301 -93 29.5 -125s45.334 -55.5 77.001 -70.5s64.834 -22.5 99.501 -22.5c35.333 0 68.666 7.5 99.999 22.5s57 38.5 77 70.5s30 73.667 30 125
v379h75v-377c0 -58 -12 -109 -36 -153s-57.167 -78.333 -99.5 -103s-91.166 -37 -146.499 -37zM311.998 725l-98 105h82l59 -54l59 54h82l-97 -105h-87z" />
    <glyph glyph-name="uni01D4" unicode="&#x1d4;" horiz-adv-x="566" 
d="M260 -8c-34 0 -66.334 8.16895 -97.001 24.502s-55.5 40.666 -74.5 72.999s-28.5 72.166 -28.5 119.499v291h75v-289c0 -45.333 13.167 -81.833 39.5 -109.5s59.833 -41.5 100.5 -41.5c28 0 53.333 6.5 76 19.5s40.834 30.833 54.501 53.5s20.5 49 20.5 79v288h75v-500
h-75v78c-18 -24 -40 -44.333 -66 -61s-59.333 -25 -100 -25zM239.999 570.002l-98 105h82l59 -54l59 54h82l-97 -105h-87z" />
    <glyph glyph-name="uni01D5" unicode="&#x1d5;" horiz-adv-x="709" 
d="M354 -8c-54.667 0 -103.169 12.167 -145.502 36.5s-75.5 58.5 -99.5 102.5s-36 95.333 -36 154v377h75v-379c0 -51.333 9.83301 -93 29.5 -125s45.334 -55.5 77.001 -70.5s64.834 -22.5 99.501 -22.5c35.333 0 68.666 7.5 99.999 22.5s57 38.5 77 70.5s30 73.667 30 125
v379h75v-377c0 -58 -12 -109 -36 -153s-57.167 -78.333 -99.5 -103s-91.166 -37 -146.499 -37zM231.998 730v83h89v-83h-89zM388.998 730v83h89v-83h-89zM222.998 858v60h264v-60h-264z" />
    <glyph glyph-name="uni01D6" unicode="&#x1d6;" horiz-adv-x="566" 
d="M260 -8c-34 0 -66.334 8.16895 -97.001 24.502s-55.5 40.666 -74.5 72.999s-28.5 72.166 -28.5 119.499v291h75v-289c0 -45.333 13.167 -81.833 39.5 -109.5s59.833 -41.5 100.5 -41.5c28 0 53.333 6.5 76 19.5s40.834 30.833 54.501 53.5s20.5 49 20.5 79v288h75v-500
h-75v78c-18 -24 -40 -44.333 -66 -61s-59.333 -25 -100 -25zM160.999 579.002v83h89v-83h-89zM317.999 579.002v83h89v-83h-89zM153.999 712.002v60h264v-60h-264z" />
    <glyph glyph-name="uni01D7" unicode="&#x1d7;" horiz-adv-x="709" 
d="M354 -8c-54.667 0 -103.169 12.167 -145.502 36.5s-75.5 58.5 -99.5 102.5s-36 95.333 -36 154v377h75v-379c0 -51.333 9.83301 -93 29.5 -125s45.334 -55.5 77.001 -70.5s64.834 -22.5 99.501 -22.5c35.333 0 68.666 7.5 99.999 22.5s57 38.5 77 70.5s30 73.667 30 125
v379h75v-377c0 -58 -12 -109 -36 -153s-57.167 -78.333 -99.5 -103s-91.166 -37 -146.499 -37zM231.998 730v83h89v-83h-89zM388.998 730v83h89v-83h-89zM320.998 847l61 105h107l-107 -105h-61z" />
    <glyph glyph-name="uni01D8" unicode="&#x1d8;" horiz-adv-x="566" 
d="M260 -8c-34 0 -66.334 8.16895 -97.001 24.502s-55.5 40.666 -74.5 72.999s-28.5 72.166 -28.5 119.499v291h75v-289c0 -45.333 13.167 -81.833 39.5 -109.5s59.833 -41.5 100.5 -41.5c28 0 53.333 6.5 76 19.5s40.834 30.833 54.501 53.5s20.5 49 20.5 79v288h75v-500
h-75v78c-18 -24 -40 -44.333 -66 -61s-59.333 -25 -100 -25zM160.999 579.002v83h89v-83h-89zM317.999 579.002v83h89v-83h-89zM231.999 698.002l61 105h107l-107 -105h-61z" />
    <glyph glyph-name="uni01D9" unicode="&#x1d9;" horiz-adv-x="709" 
d="M354 -8c-54.667 0 -103.169 12.167 -145.502 36.5s-75.5 58.5 -99.5 102.5s-36 95.333 -36 154v377h75v-379c0 -51.333 9.83301 -93 29.5 -125s45.334 -55.5 77.001 -70.5s64.834 -22.5 99.501 -22.5c35.333 0 68.666 7.5 99.999 22.5s57 38.5 77 70.5s30 73.667 30 125
v379h75v-377c0 -58 -12 -109 -36 -153s-57.167 -78.333 -99.5 -103s-91.166 -37 -146.499 -37zM231.998 730v83h89v-83h-89zM388.998 730v83h89v-83h-89zM311.998 847l-98 105h82l59 -54l59 54h82l-97 -105h-87z" />
    <glyph glyph-name="uni01DA" unicode="&#x1da;" horiz-adv-x="566" 
d="M260 -8c-34 0 -66.334 8.16895 -97.001 24.502s-55.5 40.666 -74.5 72.999s-28.5 72.166 -28.5 119.499v291h75v-289c0 -45.333 13.167 -81.833 39.5 -109.5s59.833 -41.5 100.5 -41.5c28 0 53.333 6.5 76 19.5s40.834 30.833 54.501 53.5s20.5 49 20.5 79v288h75v-500
h-75v78c-18 -24 -40 -44.333 -66 -61s-59.333 -25 -100 -25zM160.999 579.002v83h89v-83h-89zM317.999 579.002v83h89v-83h-89zM242.999 698.002l-98 105h82l59 -54l59 54h82l-97 -105h-87z" />
    <glyph glyph-name="uni01DB" unicode="&#x1db;" horiz-adv-x="709" 
d="M354 -8c-54.667 0 -103.169 12.167 -145.502 36.5s-75.5 58.5 -99.5 102.5s-36 95.333 -36 154v377h75v-379c0 -51.333 9.83301 -93 29.5 -125s45.334 -55.5 77.001 -70.5s64.834 -22.5 99.501 -22.5c35.333 0 68.666 7.5 99.999 22.5s57 38.5 77 70.5s30 73.667 30 125
v379h75v-377c0 -58 -12 -109 -36 -153s-57.167 -78.333 -99.5 -103s-91.166 -37 -146.499 -37zM231.998 730v83h89v-83h-89zM388.998 730v83h89v-83h-89zM327.998 847l-107 105h107l61 -105h-61z" />
    <glyph glyph-name="uni01DC" unicode="&#x1dc;" horiz-adv-x="566" 
d="M260 -8c-34 0 -66.334 8.16895 -97.001 24.502s-55.5 40.666 -74.5 72.999s-28.5 72.166 -28.5 119.499v291h75v-289c0 -45.333 13.167 -81.833 39.5 -109.5s59.833 -41.5 100.5 -41.5c28 0 53.333 6.5 76 19.5s40.834 30.833 54.501 53.5s20.5 49 20.5 79v288h75v-500
h-75v78c-18 -24 -40 -44.333 -66 -61s-59.333 -25 -100 -25zM160.999 579.002v83h89v-83h-89zM317.999 579.002v83h89v-83h-89zM308.999 698.002l-107 105h107l61 -105h-61z" />
    <glyph glyph-name="uni01DD" unicode="&#x1dd;" horiz-adv-x="557" 
d="M277 508c50.667 0 94.999 -11.498 132.999 -34.498s67.5 -54.167 88.5 -93.5s31.5 -82.666 31.5 -129.999c0 -48 -10 -91.5 -30 -130.5s-48.667 -70 -86 -93s-81.333 -34.5 -132 -34.5c-51.333 0 -95.5 11.5 -132.5 34.5s-65.5 54 -85.5 93s-30 82.5 -30 130.5v30h419
c-4 29.333 -13.5 56.166 -28.5 80.499s-35.167 43.666 -60.5 57.999s-54.666 21.5 -87.999 21.5c-35.333 0 -65 -7.83301 -89 -23.5s-42.667 -35.834 -56 -60.501h-82c17.333 44.667 44.833 81.167 82.5 109.5s86.167 42.5 145.5 42.5zM451.999 210.002h-340
c6.66699 -42.667 24.667 -78.334 54 -107.001s68 -43 116 -43s86.5 14.333 115.5 43s47.167 64.334 54.5 107.001z" />
    <glyph glyph-name="uni01DE" unicode="&#x1de;" horiz-adv-x="662" 
d="M3 0l281 662h94l281 -662h-83l-81 192h-328l-81 -192h-83zM196 261h270l-135 323zM208 730v83h89v-83h-89zM365 730v83h89v-83h-89zM199 858v60h264v-60h-264z" />
    <glyph glyph-name="uni01DF" unicode="&#x1df;" horiz-adv-x="595" 
d="M276 -8c-48.667 0 -91.167 11.501 -127.5 34.501s-64.5 54.167 -84.5 93.5s-30 82.666 -30 129.999c0 48 10 91.5 30 130.5s48.167 70 84.5 93s78.833 34.5 127.5 34.5c41.333 0 76.833 -8 106.5 -24s53.834 -37.667 72.501 -65v81h75v-500h-75v80
c-18.667 -26.667 -42.834 -48 -72.501 -64s-65.167 -24 -106.5 -24zM286 60.001c37.333 0 68.833 8.66699 94.5 26s45.167 40.5 58.5 69.5s20 60.5 20 94.5c0 34.667 -6.66699 66.334 -20 95.001s-32.833 51.667 -58.5 69s-57.167 26 -94.5 26
c-36.667 0 -68.334 -8.66699 -95.001 -26s-47 -40.333 -61 -69s-21 -60.334 -21 -95.001c0 -34 7 -65.5 21 -94.5s34.333 -52.167 61 -69.5s58.334 -26 95.001 -26zM176 579.001v83h89v-83h-89zM333 579.001v83h89v-83h-89zM169 712.001v60h264v-60h-264z" />
    <glyph glyph-name="uni01E0" unicode="&#x1e0;" horiz-adv-x="662" 
d="M3 0l281 662h94l281 -662h-83l-81 192h-328l-81 -192h-83zM196 261h270l-135 323zM287 732v83h89v-83h-89zM200 848v60h264v-60h-264z" />
    <glyph glyph-name="uni01E1" unicode="&#x1e1;" horiz-adv-x="595" 
d="M276 -8c-48.667 0 -91.167 11.501 -127.5 34.501s-64.5 54.167 -84.5 93.5s-30 82.666 -30 129.999c0 48 10 91.5 30 130.5s48.167 70 84.5 93s78.833 34.5 127.5 34.5c41.333 0 76.833 -8 106.5 -24s53.834 -37.667 72.501 -65v81h75v-500h-75v80
c-18.667 -26.667 -42.834 -48 -72.501 -64s-65.167 -24 -106.5 -24zM286 60.001c37.333 0 68.833 8.66699 94.5 26s45.167 40.5 58.5 69.5s20 60.5 20 94.5c0 34.667 -6.66699 66.334 -20 95.001s-32.833 51.667 -58.5 69s-57.167 26 -94.5 26
c-36.667 0 -68.334 -8.66699 -95.001 -26s-47 -40.333 -61 -69s-21 -60.334 -21 -95.001c0 -34 7 -65.5 21 -94.5s34.333 -52.167 61 -69.5s58.334 -26 95.001 -26zM254 580.001v83h89v-83h-89zM167 712.001v60h264v-60h-264z" />
    <glyph glyph-name="uni01E2" unicode="&#x1e2;" horiz-adv-x="1022" 
d="M-3 0l453 662h533v-72h-387v-222h343v-73h-343v-223h387v-72h-462v185h-309l-125 -185h-90zM259 254h262v336h-34zM579 736v60h264v-60h-264z" />
    <glyph glyph-name="uni01E3" unicode="&#x1e3;" horiz-adv-x="977" 
d="M276 -8c-48.667 0 -91.168 11.5 -127.501 34.5s-64.5 54.167 -84.5 93.5s-30 82.666 -30 129.999c0 48 10 91.5 30 130.5s48.167 70 84.5 93s78.833 34.5 127.5 34.5c41.333 0 76.833 -8 106.5 -24s53.834 -37.667 72.501 -65v81h75v-72c18 24.667 41.333 44.167 70 58.5
s62.667 21.5 102 21.5c51.333 0 95.5 -11.5 132.5 -34.5s65.5 -54 85.5 -93s30 -82.5 30 -130.5v-30h-419c4 -29.333 13.333 -56.166 28 -80.499s34.667 -43.666 60 -57.999s55 -21.5 89 -21.5c37.333 0 68.333 9 93 27s43.334 41.333 56.001 70h80
c-16 -48.667 -44.5 -88.334 -85.5 -119.001s-90.833 -46 -149.5 -46c-39.333 0 -73.333 7 -102 21s-52 33.333 -70 58v-71h-75v80c-18.667 -26.667 -42.834 -48 -72.501 -64s-65.167 -24 -106.5 -24zM285.999 60c37.333 0 68.833 8.66699 94.5 26s45.167 40.5 58.5 69.5
s20 60.5 20 94.5c0 34.667 -6.66699 66.334 -20 95.001s-32.833 51.667 -58.5 69s-57.167 26 -94.5 26c-36.667 0 -68.334 -8.66699 -95.001 -26s-47 -40.333 -61 -69s-21 -60.334 -21 -95.001c0 -34 7 -65.5 21 -94.5s34.333 -52.167 61 -69.5s58.334 -26 95.001 -26z
M531.999 290h340c-6.66699 42.667 -24.667 78.334 -54 107.001s-68 43 -116 43s-86.5 -14.333 -115.5 -43s-47.167 -64.334 -54.5 -107.001zM356.999 584v60h264v-60h-264z" />
    <glyph glyph-name="uni01E4" unicode="&#x1e4;" horiz-adv-x="723" 
d="M363 -8c-67.333 0 -125.164 15.1689 -173.497 45.502s-85.5 71.166 -111.5 122.499s-39 108.333 -39 171s13.333 119.667 40 171s64.5 92.166 113.5 122.499s106.5 45.5 172.5 45.5c71.333 0 133.166 -17.5 185.499 -52.5s90.833 -80.167 115.5 -135.5h-82
c-20 35.333 -47.833 63.333 -83.5 84s-78.834 31 -129.501 31c-53.333 0 -99.333 -11.833 -138 -35.5s-68.167 -55.5 -88.5 -95.5s-30.5 -85 -30.5 -135c0 -49.333 10 -94.166 30 -134.499s49.167 -72.333 87.5 -96s84.166 -35.5 137.499 -35.5
c37.333 0 72.833 7.5 106.5 22.5s61.5 36.5 83.5 64.5h-198v65h232c6.66699 21.333 10 43.666 10 66.999h-242v68h311v-135h37v-65h-37v-152h-69v117c-14 -21.333 -32 -41.5 -54 -60.5s-48.5 -34.5 -79.5 -46.5s-66.5 -18 -106.5 -18z" />
    <glyph glyph-name="uni01E5" unicode="&#x1e5;" horiz-adv-x="595" 
d="M294 -206c-62.667 0 -113.667 13.501 -153 40.501s-66 62.167 -80 105.5h83c10 -24.667 27.333 -43.834 52 -57.501s56 -20.5 94 -20.5c67.333 0 114 19.333 140 58h-86v65h109c1.33301 10.667 2 22.334 2 35.001v69c-18.667 -26.667 -42.834 -48.167 -72.501 -64.5
s-65.167 -24.5 -106.5 -24.5c-48.667 0 -91.167 11.167 -127.5 33.5s-64.5 52.833 -84.5 91.5s-30 81.667 -30 129c0 48 10 91.167 30 129.5s48.167 68.666 84.5 90.999s78.833 33.5 127.5 33.5c41.333 0 76.833 -7.83301 106.5 -23.5s53.834 -37.167 72.501 -64.5v80h75
v-485c0 -10.667 -0.333008 -20.667 -1 -30h62v-65h-77c-32 -84 -105.333 -126 -220 -126zM286 68.001c36.667 0 67.834 8.33301 93.501 25s45.334 39.167 59.001 67.5s20.5 59.5 20.5 93.5c0 34.667 -6.83301 66 -20.5 94s-33.334 50.333 -59.001 67s-56.834 25 -93.501 25
s-68.334 -8.33301 -95.001 -25s-47 -39 -61 -67s-21 -59.333 -21 -94c0 -34 7 -65.167 21 -93.5s34.333 -50.833 61 -67.5s58.334 -25 95.001 -25z" />
    <glyph glyph-name="Gcaron" unicode="&#x1e6;" horiz-adv-x="723" 
d="M363 -8c-67.333 0 -125.164 15.168 -173.497 45.501s-85.5 71.166 -111.5 122.499s-39 108.333 -39 171s13.333 119.667 40 171s64.5 92.166 113.5 122.499s106.5 45.5 172.5 45.5c71.333 0 133.166 -17.5 185.499 -52.5s90.833 -80.167 115.5 -135.5h-82
c-20 35.333 -47.833 63.333 -83.5 84s-78.834 31 -129.501 31c-53.333 0 -99.333 -11.833 -138 -35.5s-68.167 -55.5 -88.5 -95.5s-30.5 -85 -30.5 -135c0 -49.333 10 -94.166 30 -134.499s49.167 -72.333 87.5 -96s84.166 -35.5 137.499 -35.5
c40 0 77.833 8.66699 113.5 26s64.667 42.333 87 75s33.5 72 33.5 118h-242v68h311v-352h-69v117c-14 -21.333 -32 -41.5 -54 -60.5s-48.5 -34.5 -79.5 -46.5s-66.5 -18 -106.5 -18zM319.002 725.001l-98 105h82l59 -54l59 54h82l-97 -105h-87z" />
    <glyph glyph-name="gcaron" unicode="&#x1e7;" horiz-adv-x="595" 
d="M294 -206c-62.667 0 -113.666 13.502 -152.999 40.502s-66 62.167 -80 105.5h83c10 -24.667 27.333 -43.834 52 -57.501s56 -20.5 94 -20.5c57.333 0 99.166 13.5 125.499 40.5s39.5 66.167 39.5 117.5v69c-18.667 -26.667 -42.834 -48.167 -72.501 -64.5
s-65.167 -24.5 -106.5 -24.5c-48.667 0 -91.167 11.167 -127.5 33.5s-64.5 52.833 -84.5 91.5s-30 81.667 -30 129c0 48 10 91.167 30 129.5s48.167 68.666 84.5 90.999s78.833 33.5 127.5 33.5c41.333 0 76.833 -7.83301 106.5 -23.5s53.834 -37.167 72.501 -64.5v80h75
v-485c0 -71.333 -20.5 -126 -61.5 -164s-99.167 -57 -174.5 -57zM286.001 68.002c36.667 0 67.834 8.33301 93.501 25s45.334 39.167 59.001 67.5s20.5 59.5 20.5 93.5c0 34.667 -6.83301 66 -20.5 94s-33.334 50.333 -59.001 67s-56.834 25 -93.501 25
s-68.334 -8.33301 -95.001 -25s-47 -39 -61 -67s-21 -59.333 -21 -94c0 -34 7 -65.167 21 -93.5s34.333 -50.833 61 -67.5s58.334 -25 95.001 -25zM255.001 570.002l-98 105h82l59 -54l59 54h82l-97 -105h-87z" />
    <glyph glyph-name="uni01E8" unicode="&#x1e8;" horiz-adv-x="641" 
d="M81 0v662h75v-345l368 345h106l-282 -266l298 -396h-94l-259 345l-137 -128v-217h-75zM278 725l-98 105h82l59 -54l59 54h82l-97 -105h-87z" />
    </font>
</defs>
</svg>
